<svg xmlns="http://www.w3.org/2000/svg" width="1276" height="1150pt" viewBox="0 0 210 297" shape-rendering="geometricPrecision" text-rendering="geometricPrecision" image-rendering="optimizeQuality" fill-rule="evenodd" clip-rule="evenodd">
	<path fill="#0c5391" d="M105.06 143.44H-15.89V260.1l2.3 7.4 4.21 7.72 8.85 4.62 9.16 3.01 83.95.01 8.61 3.76 3.87 4.58V143.44z"/>
	<path fill="#56876c" d="M-15.89 253.04v7.05l2.3 7.4 4.21 7.72 8.85 4.62 9.16 3.01 83.95.01 8.61 3.76 3.87 4.58v-38.15H-15.89z"/>
	<path fill="none" stroke="#000" stroke-width=".71" d="M-58.16 291.22H105" transform="matrix(.73214 0 0 .7325 28.12 39.72)"/>
	<path fill="#e9cc0c" d="M-15.89 2.57H105v140.87H-15.89V2.57z"/>
	<path fill="#0c5391" d="M225.94 2.57H105v140.87h120.95V2.57z"/>
	<path fill="#ba2b1a" d="m66.73 93.1 3.7 2.25 4.1 2.02 2.97.9 2.58-.57 3.42-3.3 2.4-2.03h2.76l1.9 2.08.34 1.97-.17.5h-1.02l-.87-.64-.33.89-.74.78-1.27.5-.85-.22-.7-.7-.07.53-1.24 1.34 4.49-1.17L91.45 97l2.24-.14 2.33 1.57.63 2.38-.32 2.74-.58.76-.94-2.92-.63-.99-.45-.04-.04 1.3-.76 1.12-1.25.85h-1.62l-1.25-1.2-.45-1.13-1.57 1.17-3.23 1.2 2.1.45 5.12.23 2.5 1.34 1.13 2.43-.39 2.8-1.9 2.46-.3-3-.74-1.22-.55 1.4-.73.86-1.65.3-1.66-.97-.85-1.84.3-1.53-.6.19-2.02-.07-4.35-1.4-1.16.72-.86.97-.22 2.25-.56.93-1.2.41-1.04-.11-1.08-1 .78 3.5h-.5l-1.35-.79-1.91-1.96-.5-1.91.61-1.35 3.76-3.31.45-1.4-3.14-1.63-3.53-1.13-3.7-.05-.62-3.42-1.91-2.47 5.44-1.24zm-38.54.61-3.24-.14-5.24 3.57-3.37 1.48-2.9.41-2.42-1.35-2.21-3.77-1.75-1.41-2.62.27-1.09 1.48-.66 2.22.2 1.28.73-.47.74-.95.2 1.21.75 1.15.54.27 1.88-.74.13.74 1.22 1.21 1.67.54-1.75.4-9.14-3.7-1.75.07-1.75 1.81-.67 1.75.06 3.78.8.8 1.29-2.69.67 1.68 1.14.68 1.42-.34 1-1.01.14-.8 1.89.87 2.69.4-2.35.88-2.1.33-2.28.14-1.48 2.02-.61 2.42 1.41 3.1 1.35 1.35.2-3.3 1.21 1.4 2.5-.46 1.07-1.48-.2-1.75 6.46-2.5 2.9.75-1.36 1.88.2 1.41 1.55.82h.95l1.14-.54.47.46.2 1.62-.14 1.28 1.5-.98 1.27-2.53-.6-3.36-2.96-3.33 3.15-2.26 3.9-1.4 3.44-.54.6-6.13z"/>
	<path d="M43.04 33.47c4.02 1.26.44 7.52-3.6 6.54-2.24-.54-7.83-2.78-7.9 2.68 1.2-.7 2.24-.8 2.83-.61.85.26 2.42 1.6 3.28 2-.33.7-2.28 1.96-2.38 2.92-1.9-2.04-3.2-2.15-3.57-2.42-1.08-.8-4.02-.2-5.4-.4-4.42-.63-7.92-6.9-5.94-11.27.18.7 1.73 1.45 2.25 1.98.45.45 2.31 1.2 3.21.78-2.24-2.67-3.07-3.93-2.87-6.3.27-3.19 2.42-6.75 3.88-9.3 3.74-6.51-3.18-11.58-8.68-9.88-3.1.96-7.95 2.98-10.7 1.06-3.97-2.78-5.88-4.07-8.66-1.3 1.92.15 3.25.28 4.16 1.8.47.77 2.64 4.5 4.47 4.71-2.23 1.5-5.04 5.14-7.28 7.38-1.08 1.08-2.43 2.3-4.09 2.47-1.59.14-2.3-.66-3.3-1.37-.68 3.15 1.42 8.1 4.81 8.33 5.35.36 6.9-2.7 8.5-4.01-.12.6-4.99 6.02-5.59 6.7-1.33 1.49-3.85 6.18-7.78 3.14-.62 2.97.13 5.7 3.37 7.12 3.71 1.62 9.63-3.12 11.64-6.03-1.17 2.48-5.75 8.07-6.73 9.11a35.42 35.42 0 0 1-4.28 4.05c-1.59 1.12-3 .23-3.68-.7-.44 3.84.74 7.62 4 8.1 2.15.3 4.28-.17 6.49-1.86.14-.12 5.64-6.86 6.64-7.85a101.9 101.9 0 0 1-7.9 12 39.83 39.85 0 0 1-5.94 5.3c-.8.53-2.55-.03-3.47-1.17.02 3.14.36 5.94 2.72 7.54 2.84 1.9 6.89.91 9.98-2.2 4.34-4.4 9.57-13.75 10.9-15.7-1 3.68-6.95 15.92-9.01 18.7-1.92 2.6-6.22 5.8-8.64 7.82-.97.8-2.98.82-5.93-.8.58 10.66 12.33 8.45 15.41 5.32 8.63-8.77 11.12-14.44 14.84-22.52-.44 4.3-1 5.84-1.94 9.8a34.02 34.03 0 0 1-2.48 6.74c-.52.93-2.49 3.09-3.83 4.4C25.5 87.4 31.6 83.66 32.03 69.8c.64 1.38 4.3 9.5 3.95 10.73-2.46 3.4-5.04 7.08-7.1 8.55-3.35 2.38-5.45 1.15-8.76.58.67 2.14 4.38 5.23 7.63 5.04-.79 1.61-.61 6.85-.5 8.83.1 2.03 2.6 7.07 3.53 8.54-.29-5.6 2.46-9.25 6.2-12.53.67 3.52 3.26 8.39 4.74 12.53 1.17 3.31.67 9.42-4.6 9.7-1.47.08-3.26-1.24-3.82-2.14-1-1.64.54-2.86.78-4.18.09-.49-4.2-.17-5.67 1.32-1.93 1.94-2.48 3.37-2.1 5.41-5.3-2.96-14.34-9.26-21.7-3.69-6.3 4.78-7.95 12.02-3.32 16.76-.73-2.49-.75-8.05 6.36-6.99 7.34 1.12 8.86 7.1 18.46 8.57 7.61 1.15 11.76-.68 17.71-7.74.26 2.38-2.47 6.35-3.96 8.18-.19.22 3.34.44 4.04-.02.18.7 1.83 2.3 2.36 2.78 1.98-1.86 1.83-2.73 2.1-2.81.79.4 2.29.36 4.1-.44-3.08-2.2-4.36-6.18-4.08-7.7 4.1 4.7 7.04 8.04 14.44 8.04 2.59 0 6.04-1.11 8.25-1.9 1.1-.4 5.4-3.11 6.23-3.94 3.13-3.11 9.26-6.1 12.33-1.37.67 1.04 1.05 2.16.91 4.35 1.36-4.2 1.67-5.81.41-10.63-.76-2.94-6.73-7.02-10.69-7.02-3.82-.15-6.47 1.1-9.74 2.65-2.25 1.06-1.9 2.44-4.48 2.44 1.11-3.46.41-3.86-.65-5.24-1.66-2.12-4.62-1.86-7.42-.71 0 .1 2.24 1.48 2.14 2.77-.11 1.47-1.15 2.44-3.59 2.76-2.63.35-6.12-2.11-6.37-4.46-.76-7.45 4.87-11.61 4.87-17.85 3.1 3.07 6.55 7.7 7.35 11.53a20.72 20.73 0 0 0 1.6-8.02c0-2.81.92-6.69-1.8-7.95 3.41.01 9.52-2.43 11.09-5.23-7.29-.01-8.42-1.09-11.53-3.14-2.37-1.57-3.26-4.06-5-5.79 1.48-4.07 3.22-8.54 3.91-12.79.44 5.75 2.54 14.66 8.11 17.3 1.98.94 8.06 1.06 8.94-1.15-5.1-2.15-7.61-17.08-8.42-20.3.4 2.03 5.92 13.22 8.32 17.12 2.78 4.53 8.08 9.91 13.74 9.91 3.66 0 8.56-4.9 7.09-9.57-1.94 3.22-6.36 1.6-7.16.82-5.47-5.32-10.92-14.34-13.46-20.6 2.32 3.84 7.32 12.47 11.88 13.95 3.12 1.03 10.06-1.75 9.14-8.27-.58.17-3.58 2.1-4.83 1-5.78-5.05-10.4-13.18-12.7-16.81l7.8 7.7c1.2 1.18 2.95 1.45 4.83.95 2.83-.78 5.35-4.16 4.92-7.48.05.2-2.12 1.9-3.6.87-3.26-2.25-11.64-12.62-12.82-15.35.13-.07 6.01 7.86 10.4 8.06 2.96.12 7.45-3.9 5.89-7.46-5.92 4.25-12.18-8.39-15.12-12 2.23 1.4 7.1 5.92 10.8 5.7 2.56-.17 6.3-3.86 4.9-7.11-3.92 2.08-5.9-.88-8.21-3.19-1.72-1.71-3.87-4.46-5.95-6.42 1.4-1.34 1.3-1.09 2.74-2.57 1.06-1.1 3.88-3.58 5.82-3.48-5.75-4.18-9.93 2.06-13.27 2.35-3.35.3-12.02-6.68-15.78.22a8.23 8.23 0 0 0-.56 5.32c.7 2.5 2.77 5.37 3.86 7.58a14.1 14.1 0 0 1 1.28 5.98c0 1.64-.96 2.92-1.58 4.13 1.7-.26 1.8-.74 2.7-1.76.55-.64 1.51-1.53 2.02-2.96 1.4 2.9 2.68 7.88-2.1 12.45-1.86 1.78-3.84.99-6.68.54-1.22-.2-3.03.54-4.59 1.1-.73.28-1.96 1.99-1.96 1.88-1.95-4.02 1.8-9.36 2.65-12.14 1.64-5.28-.06-6.6-1.96-8.92.97.56 1.52.4 2.6.4 1 0 2-2.1 2.26-2.9-3.07 1.55-3.8-.04-5.84-3a10.23 10.23 0 0 0-4.03-2.92l-14.85-.04.1.54 1.33.76.32 1.21-.32 1.08-1.25 1.07 2.2 2.2 5.45 1.89 1.3 1.75-.13 2.56-1.12 2.01-1.84 1.21-.87.68z"/>
	<path d="m64.42 97.37-.15-1.21c.25.5.8 1.38 1.4 1.55.64.2 1.5.36 2.18.48.4.07-.36.2-.47.23-.44.08-2.89-.46-2.96-1.05zm-.75 2.61.22.58c1.75-.42 5.65.46 6.42.88 1.28.69 3.55 1.61 3.56 2.03 0 .55-1.54 1.82-2.77 2.81-1.58 1.3-2.7 2.79-1.58 4.98.48.92 4.37 3.93 5.44 2.94-1.13-.26-1.54-2.17-1.56-3.08a2.49 2.49 0 0 0 3.29-.1c1.08-.99.6-2.23.94-3.3.11-.37.44-.7.74-.98.95-.95 4.57 1.47 7.05 1.24-1.1 1.61 1.66 4.05 2.52 4.05 1.64 0 2.66-.44 3.27-2.22.47 1.27.6 2.8.39 4.15 1.6-1.06 3.25-3.49 3.25-4.88 0-2.21-1.14-4.23-3.11-4.72-3.15-.79-6.41-.5-9.68-.9.4.06-.74.03-.3.18.66.2 1.93.61 3.62.66 2.34.08 4.17.06 6.03.63 1.28.4 4.37 3.45.9 7.92 0-1.37.06-2.71-.61-3.42-.6-.64-.3-2.18.44-2.78-1.38.24-1.12 1.84-1.38 2.68-.36 1.19-1.11 1.93-2.23 1.88-.67-.02-1.89-.8-2.15-1.44-.36-.86-.44-2.58.47-3.22-1.04.18-1.32.78-2.06.74-1-.08-4.64-1.06-5.63-1.45-.92-.35-1.2.29-1.75 1.03-.36.5-1.35.7-1.67-.1-.41.94 1.16.76.85 2.61-.17.98-.5 1.3-1.16 1.52-1.27.44-1.24.05-2.03-.76-.63-.66-.95-1.99-2.79-1.67.63.4 1.7 1.08 1.8 1.51.23 1.08 1 2.24.65 3.44-1.03-.01-3.08-2.75-3.34-3.64-.78-2.59 4.09-3.8 4.45-5.79.05-.27.3-.81.14-1.1-.4-.62-3.4-2.15-6.88-2.95-.9-.21-3.1-.05-3.76.04z"/>
	<path d="m79.34 100.22-.88-.33c.55 0 .98-.09 1.47-.1 3.55-.11 5.8-1.09 9.32-2.47 1.87-.74 4.47-1.3 6.22.05 1.95 1.48 2.34 6.43.02 7.5-.31-1.39-.9-4.04-1.5-4.04.06 1.34-1.6 3.06-2.97 3.13-1.4.07-2.42-1.03-2.78-2.09-.83 1.09-3.88 2.02-5.17 2.02-1.7 0-2.85-1.18-4-1.8 1.02.02 1.7.4 2.36.78 2.08 1.2 6.73-.76 6.97-2.71.29.84.32 1.59 1.1 2.36 1.52 1.53 2.67.95 3.75-.5.26-.33.34-1.39.26-2.05-.04-.4-.2-.66-.2-1.1 0-.3.1-.5.28-.62.28.44-.03 1.45.51 1.83.8.53 1.4 2.8 1.83 3.5.22-.76.34-2.04.37-2.47.2-2.95-2.64-4.75-5.98-3.57-2.8 1-6.02 2.83-8.97 2.89a7.73 7.73 0 0 1-2-.2z"/>
	<path d="m67.1 93.08-.56.32c2.36 1.7 9.13 5.67 12.03 5.23 1.74-.25 2.99-1.7 4.17-2.94.91-.95 1.93-2.1 3-2.73 1.8-1.03 4.75.57 4.83 3.82-.85.17-1.05-.17-1.4-.55-.75-.83-1.67-1.18-.97-2.6-.4.15-.57.19-.62 1.15-.05.76.93 1.31.88 1.83-.07.7-1.18 1.92-2.4 1.51-.6-.2-1.05-1.25-1.83-1.15.4.19.62.6.51.98-.2.68-1.34 1.17-1.75 1.26-.77.18-2.66.64-3.74.8 4.64.05 5.38-.93 5.87-2.02.3.54 1.1.9 1.9.62a4.09 4.09 0 0 0 2.05-1.92c.2.57 1.85.81 2-.17.39-2.5-1.2-4.8-3.67-4.8-2.92 0-4.38 2.44-5.94 4.23-2.82 3.21-5.96 1.71-8.93-.08-2.1-1.28-3.96-1.84-5.43-2.8z"/>
	<path fill="#e9cc0c" d="m36.66 7.83-1.24.26 1.5 3.17 1.03 5.17 14.5.1.72-3.82 1.81-5.18-1.7.61-1.56 1.4-1.76.15-.56.94-1.25-1.45-1.03-.1-1.04-2.34-1.66-.15-1.75 2.07-.47.47-1.14.41-.52.73-1.4-.88-.82-.1-1.66-1.46z"/>
	<path d="m27.75 96.54-.07-1a4.06 4.06 0 0 1-1.64 1.92c-.37.22-1.41.12-1.8-.15.04.14.45.5.52.55.4.2 1.05.21 1.54.04.42-.15 1.4-1.37 1.44-1.37zM38.4 16.72l-.94.03c0-.78-.2-1.55-.27-2.26a19.5 19.5 0 0 0-.51-2.99c-.48-1.6-2.33-3.76-1.5-3.95 1.44-.33 2.47.34 3.32 1.46.4 0 1.44-.02 1.87.79a2.1 2.1 0 0 1 1.87-1.14c.16-.28.27-.57.37-.7.46-.73 1.29-1.92 2.34-1.88 1.06.05 1.5.55 1.96 1.38.22.39.4.9.47 1.3.58-.05.95.08 1.28.21.25.1.66.5.82.76.22-.32.36-.48.77-.58.37-.1.4-.15 1.36.02a6.83 6.83 0 0 1 1.7-1.4c.38-.24.74-.39 1.2-.5.57-.12 1.09 0 1.02.27-.1.39-.76 1.33-1.07 2.2a22.93 22.93 0 0 0-1.6 6.84l-.74-.02c.21-2.06.69-4.38 1.35-6.23.27-.75.55-1.34 1-2.06-.06-.59-1.61.62-1.98 1.05-.22.26-.39.93-.8.72-.5-.26-.73-.32-1.2.03-.62.58-.7.68-.66 1.46.01.3.28.58.4.7.13.13.5.45 1.12.54.18.03 0 .48-.07.5-.43.1-1.03-.18-1.27-.32a3.4 3.4 0 0 1-1-.7c-.49.26-1.17.57-1.6.69-.49.13-.88-.04-.6-.34.26-.27.6-.28.93-.39.33-.11.59-.35.85-.86.12-.23.28-.56.12-1.19-.08-.27-.65-.62-1-.68-.21-.04-.63-.06-.76-.19-.22-.23-.3-.34-.32-.58a1.98 1.98 0 0 0-.24-.72c-.22-.44-.7-1.14-1.32-1.14-.45 0-1.03.49-1.42 1-.3.42-.46.89-.73 1.25-.03.04-.15.33-.5.32-.67-.11-1.31.2-1.31 1.37 0 .77.03.73.4 1.12.42.44.92.6 1.27.81.14.07-.05.39-.23.4-.32.01-.92-.15-1.23-.34-.34-.2-.47-.57-.72-.69-.49.05-.82.92-1.87 1.11-.9.16-.34-.4-.05-.73.76-.86 1.62-.56 1.28-2.15-.13-.57-.98-.6-1.57-.62-.7-.02-.65-.84-1.48-1.29-.53-.29-.66-.25-.95-.2-.3.05.09.67.24.83.22.23.29.33.41.57.2.36.32.82.46 1.1.03.07.15.36.33 1.16.17 1.06.27 1.33.5 2.48.14.72.36 1.53.5 2.38z"/>
	<path d="M37.52 16.17h15.35l.01.55-15.43-.02.07-.53z"/>
	<path fill="none" stroke="#000" stroke-width=".71" stroke-linecap="round" d="M23.74-34.51h9.81" transform="matrix(.73214 0 0 .7325 28.12 39.72)"/>
	<path d="M41.8 31.26c-3.22-2.12-7.54.23-10.66-.34-3.3-.6-6.42-2.4-3.88-6.87 1.8 2.93 4.2 3.27 8.44 3.3 3.07.03 6.13.49 8.21 2.17-.18.63-1.1 1.5-2.1 1.74z"/>
	<path d="M27.26 24.86c-1.57 2.72.58 4.6 3.44 5.41 2.82.8 4.53-.3 8.14-.3 1.43 0 2.95.3 3.38.65.82-.31 1.27-.99 1.2-1.05-.94-.73-2.9-1.2-3.87-1.4-3.55-.75-4.32-.16-7.02-.39-3.55-.3-4.18-1.23-5.27-2.92z" fill="#ba2b1a"/>
	<path d="M38.55 21.25c.31.91 1.77 1.92 3.08 2.36 1.32.45 3.07.68 4.43 1.53 2.46 1.52 1.2 5.65-.87 7.32-1.45 1.17-5.45 1.6-8.32 3.1-.15.07-.35-.27-.38-.38-.15-.4.93-1.85 1.25-2.24 1.67-2.02 6.3-1.66 6.26-4.16-.02-1.85-5.13-1.93-6.15-2.91-1.46-1.42-3.53-3.1-3.92-.51-.89-1.69-1.1-1.56-1.42-2.3-.59-1.32-.5-2.44-.1-3.22.54-1.03 1.41-1.2 2.57-1.38a3.35 3.35 0 0 1 2.47-1.81c.9-.11 1.99.63 2.26 1.54.25.85.22 1.9-1.16 3.06z"/>
	<path d="M36.94 20.66c3.2.4 3.01-3.32.5-3.32-1.13 0-1.55 1.09-1.92 1.81-.77.02-2.9-.14-2.82 2.21.03.83.63 2.05 1 2.46 1.56-1.87 3.34.94 4.7 1.62.68.34 1.95.63 3.25.92 2.02.45 3.75 1.68 2.12 3.92-1.04 1.45-5.03 1.1-6.27 3.62-.76 1.51.22.66 1.42.32 4.29-1.25 8.05-2.32 7.88-6.64-.1-2.55-5.57-3.3-6.63-4.03-.72-.5-3.26-2.55-3.22-2.89z" fill="#ba2b1a"/>
	<path d="m45.05 19.42-2.78-.31-2.3-.11c-.38 1.2-.49 3.26.88 3.89.9.4 2.64.47 3.37-.46.62-.81.77-1.97.83-3z"/>
	<path d="m44.52 19.43-2.19-.32-1.9-.08c-.03 1.02-.73 3.17 1.23 3.56 2.63.53 2.94-2.05 2.87-3.15z" fill="#fff"/>
	<path d="m43.1 19.36-.8-.26-.55-.02c-.47.39-.74 1.26-.58 1.77.15.44.56.88 1.12.85.69-.03 1.14-.95 1-.88-1.4.87-2.1-1.4-.19-1.46z"/>
	<path d="M39.84 18.9c2.59.02 4.94.37 7.8.48.06.1.01.19-.14.22-.75.16-3.35.01-3.69-.04-.76-.1-3.24-.22-4.02-.3-.1-.01.05-.34.05-.36zM25.66 93.7l-.7-.42c-3.31 2.39-11.04 8.3-14.18 3.32-1.4-2.23-1.48-4.58-4.69-4.47-3.21.1-3.8 3.38-3.44 6.02.53.03 1.28-.56 1.53-1.17.1.64.46 1.8 1.35 2.16.64.26 1.34-.5 1.9-.49.68 2.1 3.5 2.72 5.13 1.54-1.48.2-2.6.64-4.1-.87-.64-.63-.55-.73-.4-1.65-.71.51-2.09 1.02-2.27.94-.51-.25-1.4-1-1.03-2.17.17-.5 2.54-1.21.97-2.98.71 1.62-2.19 2.5-2.49 3.94-.36-.52-.19-2.22.64-3.36A2.93 2.93 0 0 1 5.53 93c2.38-.58 3.22 1.85 4.52 3.94.92 1.48 2.15 2.47 3.68 2.45 4.16-.05 8.94-3.59 11.93-5.7z"/>
	<path d="M8.2 104.25c.76-.2 2.55-1.73 3.23-2.01-.84.44-4.27 1.98-4.99 1.9-1.27-.14-3.92-.4-3.83-1.8.05-.79-.52-1.38-1.2-1.38 1.03.63.6 2.28.1 3.23-.5.93-1.76.77-2.47.35-2.22-1.28 1.29-4.8-1.55-4.97.88.74.45 2.06.38 2.43-.15.69-.96 2.2-1.52 2.77-.74-.85-.75-6.61 2.72-6.97 1.56-.15 6.67 2.76 8.07 3.2.55.18 1.06.3 1.52.36 1.8.25 3.15-.82 3.8-1.12-1.12.26-2.7.59-4.13.25-1.61-.38-3.25-1.35-4.36-1.96-2.94-1.62-4.26-1.71-4.52-1.7-1.83-.1-3.68 2.12-3.95 3.94-.2 1.29-.66 4.31.67 5.07.3.17.47.38.8.4-.12-1.39.59-2.33.84-2.68a2.7 2.71 0 0 0 .97 1.67c.65.6 2.79.44 3.67-1.64.37.29 1.88.9 3.3.96.67.03 1.9-.15 2.45-.3z"/>
	<path d="M1.4 115.2c-.33-.37-.54-3.03-.2-2.84.38.64.68.8 1.38.8 1.42 0 3.57-.89 3.5-2.69-.02-.28-.15-.83.1-1.1a21.02 21.03 0 0 1 4.13-1.93c1.21-.3 2.85-.95 3.68.38-1 1.47-1.32 2.78.63 3.71 1.06.52 2.37-.17 2.78-.4.41.4.27 3.15.27 3.44a3.2 3.2 0 0 0 1.81-1.09c1.87-2.08 1.4-4.17 1.07-5.71-.2-.86-1.1-1.63-1.67-2.3-.56-.65-.95-.83-1.3-1.3.89-1.33 7.17-4.5 10.38-3.46L27.7 99c-1.29.45-4.24.99-5.31 1.38-.94.35-5.65 2.62-5.6 3.53.05 1 2.65 2.9 3.03 4.13.56 1.77.44 3.65-.82 5.02-.35.36-.78.76-.92.74.08-1 .12-1.35 0-2.1-.09-.62-.34-.83-.33-1.29.01-.64.38-1.16.68-1.74-.87.39-.84.93-1.17 1.62-.36.74-.66.77-1.24.8-1.3.08-3-1.05-1.47-2.78a4.06 4.07 0 0 0 1-2.15c-.18.27-.72 1.23-1.76.43-.47-.36-1.04-.44-1.92-.22a32.3 32.33 0 0 0-6.1 2.23c-.84.44-.86-1.35-2.09-.83.88.47 1.2 1.23 1.33 1.5.66 1.16.15 1.61-.24 2.13-.5.66-2.68 1.2-3.13.39a3.71 3.71 0 0 1-.35-2.05c.05-1.09-.42-2.1-1.45-1.83.71.42.94.96.94 1.9 0 1.01-.17 2.98-.42 3.7a5.62 5.62 0 0 1-1.9-3.58c0-1.27 1.25-4.1 2.55-4.02 1.76.08 2.84-.32 4.46-.67.85-.2 3.26-1.14 4-1.86-1.03.37-4.94 1.68-6.08 1.79-2.27.2-3.9-.03-4.67 1.7-.45 1.03-1.19 2.73-.75 4.2.24.82 2.1 4.05 3.43 4.12z"/>
	<path d="M80.27 23.68c-.49 0-.94.22-1.26.55l-.44-.3c.2-.3.3-.65.3-1.03a1.8 1.8 0 0 0-1.75-1.84 1.8 1.8 0 0 0-1.77 1.83c0 .64.3 1.2.78 1.54l-.23.35a1.68 1.68 0 0 0-.71-.16 1.8 1.8 0 0 0-1.77 1.84c0 1.02.8 1.83 1.77 1.83a1.8 1.8 0 0 0 1.73-2.17h.25c0 16.3-12.25 29.67-27.88 31.16-.73-.54-2.01-1.64-1.67-2.32.47-.96 2.27.64 2.27.64v-5.7s-1.99 2.53-2.6 2.14c-.6-.38.88-3.27.88-3.27h-4.35s1.5 2.89.89 3.27c-.6.39-2.58-2.14-2.58-2.14v5.7s1.79-1.6 2.26-.65c.33.66-.83 1.68-1.57 2.25-15.3-1.8-27.17-15.03-27.17-31.08l.48.22-.01.12c0 1.01.8 1.83 1.76 1.83a1.8 1.8 0 0 0 1.78-1.83 1.8 1.8 0 0 0-1.78-1.84c-.33 0-.65.1-.92.28l-.26-.34c.6-.29 1.02-.93 1.02-1.67a1.8 1.8 0 0 0-1.75-1.83 1.8 1.8 0 0 0-1.78 1.83c0 .42.15.81.37 1.12l-.47.25a1.7 1.7 0 0 0-1.29-.58 1.8 1.8 0 0 0-1.76 1.83 1.8 1.8 0 0 0 1.76 1.85c.9 0 1.62-.7 1.75-1.59l.04.03-.34 4.56c-.1 1.33-.1 3.45-.1 3.45 0 17.29 14.68 31.3 32.25 31.3s32.16-14.24 32.16-31.52c0 0 .22-1.67.1-3.12-.1-1.44-.43-4.8-.43-4.8l.3-.03a1.8 1.8 0 0 0 1.75 1.72 1.8 1.8 0 0 0 1.75-1.84 1.8 1.8 0 0 0-1.75-1.84zM118 8.71l-.45-.36 2.23-1.43 5.58 3.24 4.12 2.14 6.86-1.13 3.82-.85 4.25 1.86 1.72 2.77-.68 4.16-4.24 7.4-.17 4.25.93 4.92-1.47-.63-1.77-1.94-1.18-2.9-2 4.96.58 5.29 1.72 3.17 3.47 2.13 4.03-.1 3.56-.87 2.5 1.63 1.92 2.12 3.95-3.59-1.72-.8-2.6-2.36-1.63-.2-1.63.67.19-1.34 1.44-1.59 3.08.1 3.98 1.73 1.68.1 2.31-2.02 1.24-2.98-.8-2.5-.87-.82 2.78-1.34 1.35-1.69.67-2.16-.53-2.21-2.73-1.58-2.98-.77-1.64-1.06-1.51-1.58 1.07-.44.73-1.07-.06-1.3-1.35-1.17h-.56v-.62h14.7l4.1 4.45 2.4 2.55 3.05.9-1.03.89-1.47.18-2.01-.47-1.9-.84 2.74 4.08-.13 3.87-3.19 9.76-.7 3.32 2.01 3.3 2.7-2.41 3.22-.3 5.82.97 3.37-.9 2.1-2.24 1.11-2.92.2-4.16-1.34-5.55-1.35-1.77-1.34 3.8-1.75 1.71-1.39.81.68-2.38.21-4.3-.66-3.05-4.3-6.77-.69-2.62.8-2.33 2.26-1.95 3-.55 6.6 1.16 3.36 1.04 2.45-.3 2.87-1.66 3.18-2.26 2.26-.68 2.33.73-2.08.93-3.37 3.8-2.02 1.82-1.9.98 5.15 3 4.46 4.22 3.42 1.4 2.32-.36-.3 2.87-1.6 2.45-2.37 1.22h-2.64l-3.6-1.65-3.6-2.26 4.76 6.67 3.67 3.48 2.46 1.36 2.68-.43.19 2.5-2.47 3.22-2.25.54-3.66-1.39-3.88-3.2.76 2.59 5.02 7.67 2.45 2.49 1.7.44 2.38-.63-.44 3.66-1.34 2.23-2.42 1.48-2.43-.2-1.68-.74-6.05-6 2.43 5.25 7.17 9.65 1.95 1.2 2.69-.23-.9 3.07-2.01 1.94-3.81.9-3.43-1.37-5-5.78-5.48-8.41 3.64 8.47 6.34 10.11 4.54 4.7 3.03 1.4 3.36-.27-2.13 3.98-3.42 1.96-2.47.22-2.8-.89-5.16-3.76-6.17-8.86-8.68-17.5-.01 2.99 2.01 8.92 1.69 5.73L192 81l3.03 3.79-3.46 1.1-4.29-.77-3.36-3.03-2.6-4.37-2.36-7.24-1.01-4.96-4.37 15.4 4 4.26 5.1 3.7 3.54.85h4.71l-3.3 2.7-5.04 1.78 1.17 3.42-.16 5.79-2.08 6.27-1.68-3.86-2.97-4.1-3.2-3.48-.5 4.26-2.53 6.63-1.56 5.44.56 3.59 3.59 2.97 3.53-.33 1.74-1.75.39-1.57-1.23-2.63 3.3.1 2.75 2.48.17 2.63-1.8 2.8 1.47.07 3.36-1.52 4.83-3.25 5.32-1.47 5.39.63 3.58 1.73 3.65 3.82.9 4.38-.51 5.16-.44-1.3-1.35-2.68-2.58-1.8-3.93-.06-4.1 1.86-5.2 4.54-4.16 2.8-3.87 1.13-5.1-.06-4.26-1.68-3.81-2.92-3.7-3.76.1 2.64 1.68 3.7 2.08 3.04-4.16-.49-.7.46-1.02 2.38-1.36-1.68-.44-1.05-4.23-.06 2.13-2.1 1.32-2.42.99-2.67-.3-2.25-3.38 5.26-2.8 2.84-4.47 1.53-4.47.43-2.62-.5-3.06-1.22-5.2-4.1-4.09-3.24-4.2-1.96-3.76-.22-2.24.95-1.35 1.52-.34 1.85.17 3.26-1.68-3.04-.5-3.14.62-3.25 1.62-3.2 3.03-2.8 4.1-1.91 3.7-.29 4.95 1.1 9.85 5.01-.8-3.45.67-2.78 2.6-1.61 3.22-.32-.85 2.87 1.03 2.73 3.15 1.53 2.98-.25 2.24-1.52.79-3.25-.73-5.5-3.37-7.18-2.12-5.09-4.7 5.05-1.62 2.22-1.89 3.43-1.54-7.26.13-4.39 1.15-4.7-3.24-.56-3.28-1.8-.74-1.08 5.56.07 4-2.27c.2-.12.5-.36.69-.48l3.73-3.97.92-3.49-.5-3.85-3.97-10.59-1.04 6.25-1.83 6.3-2.39 3.97-2.8 2.2-2.82 1.22-2.27.31-2.62-.18 1.22-1.96 1.53-2.88 2.75-10.57 1.04-5.15.61-5.8-4.95 12.1-4.4 9.42-4.71 5.94-4.22 2.5-4.03.86-3.3-.61-3-2.27-1.06-1.7-.26-1.31 3.47.53 4-2.47 5.11-5.75 2.88-4.75 3.73-6.83 2.95-7.4-1.77 1.76-5.64 8-4.02 4.38-3.8 2.44-3.86.58-2.95-1.34-.76-1.52-.5-3.53 1.88.91 1.84-.72 3.5-2.91 4.7-6.37 4.7-7.5-4.58 4.3-3.84 2.98-4.57.77-2.32-1.84-1.04-2.83-.07-2.65 1.48 1.14 2.27-.83 3.17-2.9 4.83-5.8 1.27-2.25-.22-.36-5.16 3.13-3 .75-2.83-1.27-1.27-1.87-.37-2.02.29-1.95 1.72.68 3.37-1.27 3.06-3.07 5.68-7.93-1.87 1.13-4.78 2.98-3.07.6-1.86-.37-2.1-1.5-.9-2.54.15-1.87 3 .45 3.59-2.1 4.25-4.03 4.12-3.37-1.65-.6-2.54-3.37-.75-1.41-1.8-1.1-1.63-.64z" fill="#fff"/>
	<path fill="#ba2b1a" d="m120.1 63.48 4.94-7.11v12.6h-11.52l2.79-1.24 3.78-4.25zm-5.92-32.71-2.13-1.85h9.97l-2.57 1.45-3.2.68-2.07-.28zm63.72-6.21v-2.02l.76.58 2.48.7-.5.72-.9.43-1.83-.4zm-11.35 4.36h11.7l-.9 4.24-2.52 7.19-.63 2.37h-8.9V31.05l1.25-2.13zm-1.25-4.15v-8.91h-8.05v.73l1.47.73.45.98-.18 1.03-.98 1.04-.73.28 2.15 2 2.45 1.03 3.43 1.09zm17.2-7.5v-1.49h9.04v13.14h-3.62l-.15-2.12-1.24-2.85-1.97-2.8-2.07-3.88zm21.2-1.49h-12.16v-4.32l4.1.89 2.9.84 3.14-.47 3.16-2.56v4.7l-1.14.92zm2.86 3.32-1.72-1.16v10.29l1.04.69h10.67l1.03-2.63-.22-1.67-2.11.55-3.14-1.13-5.55-4.93zm-12.82 14.01-1.53-4.2h11.99l.64.81v13h-11.67l1.08-3.94-.5-5.67zm15.92 10.83-1.8-1.22h8.27l-1.4 1.48-2 .57-3.07-.83zm-3.79-1.22h-1.03v12.8h12.11l.44-2.3-.5-.6-1.77.73-2.32-.55-3-3.6-3.36-5.02-.57-1.46zm-1.03 28.91v-2.65h11.9l.07 1.89-2.54 3.15-3.48 1.09-3.32-1.09-2.63-2.4zM194.1 55.51h9.62l1.12 2.16v11.3h-2.05l-4.65-7.06-4.04-6.4zm-.13 0h-2.43v13.47h9.1l-4.53-9.75-2.14-3.72zm12.72 22.74-1.85-2.51v6.7h5.88l-4.03-4.19zm-7.55 4.19h5.7v5.84l-3.52-2.87-2.18-2.97zm-7.6 3.39v-3.4h1.58l2 2.36-2.5 1.04h-1.08zM179.9 73.76l-1.13-4.78h9.34l1.48 6.12 1.95 4.78v2.56h-7.33l-2.35-3.63-1.95-5.05zm-2-18.25h13.64V44.88l-3.08 1.13-4.04-.28-4.32-.63-2.2 1.15v9.26zm-27.81-15.15 1.55-.98v2.18l-1.1.2-.9.52.45-1.92zm4.05 2.36h11.17v12.8h-13.67v-8.8l1.66 1.56 1.1-1.04 2.9-2.22-1.55-.75-1.61-1.55z"/>
	<path fill="#ba2b1a" d="M165.3 68.98V55.5h12.6v10.22l-.93 3.25h-11.66z"/>
	<path fill="#ba2b1a" d="M152.52 68.98h12.79v13.46h-10.52l.68-2.15-.1-3.26-2.85-8.05zm-14.18-36.61v-3.45h2.62l.13 2.29.98 4.47-.92-.13-1.53-1.34-1.28-1.84zm2.36-21.84-2.36.15v5.1h7.75l-.37-1.96-1.42-1.72-3.6-1.57z"/>
	<path fill="#ba2b1a" d="M126.25 15.78h12.1v13.14h-13.3V16.67l1.2-.89zm-3.74-7.94 2.53 2.05v5.55l-1.8-1.82-1.57-2.8L118.9 9l-1.49-.61 1.97-1.32 3.14.78zm1.7 21.08h.83v13.8h-1.06l.61-1.62-2.16 1.62h-9.97l-.72-2.62.16-2.1 1.72.68 3.94-1.58 6.65-8.18zm.83 25.48V42.71h12.17l1.13 1.13V55.5h-12.9l1.36-2.63-1.76 1.51zm13.3 14.58V55.5h13.3v11.7l-.59-2.1-.38 3.87h-9.64l1.57-9.26-2.54 5.08-1.72 4.18zm36.68 13.46h-9.71v13.13h12.6V85.5l-2.89-3.05zm8.2 13.13h-5.31v7.46l2.4 3.63 1.14 2.71h.21l1.86-5.2.37-4.87-.67-3.73zm-71.04-38.51-.43-1.55h12.19l-3.62 2.89-2.89 1.27-3.44-.55-1.81-2.06zm17.3 11.92h8.86l-4.56 10.17-2.07 3.29h-6.67V76.2l4.44-7.22zm7.6 13.46h1.26v-3.29l-1.26 3.29zm8.08 0-2.5 2-3.21 1.04-1.1.06v-3.1h6.81zm6.48 4.06v9.07h-4.44l.59-2.12-2.84-.56-3.5-1.76-.91-1.23 3.62.3 2.73-.56 4.75-3.14zm9.2 22.87-4.38-10.29-4.82 5.24v-8.75h13.67v13.8h-4.47zm-41.58-26.93h5.78v6.51L120.12 90l-4.65-1.1-1.83-1.96-.91-1.83-.13-.92 3.12.37 3.54-2.11zm46.04 39.39v-12.46h5.24l-1.3 5 .13 3.27 2.5 2.74 3.1.63 2.94-1.13v1.95h-12.6zm12.6 13.13v-13.13h4.92l-.84 1.01 1.68.06 2.18-1.07h5.7v11.84l-1.77 1.29H177.9zm26.94-13.13h-13.3v-3.6l4.17-1.4h4.95l4.18 1.52v3.48zm3.94 0h-3.94v4.71l2.2.85 1.74 1.85 1.18 3.14.62-2.19-.28-4.49-1.52-3.87zm-34.12 13.13 3.25 1.38v-1.38h-3.25zm-5.24 0h-4.11v5.01l.52-.02.67-1.61.51-.88 2.92.16 1.43.35-.1-.64-1.33-1.3-.51-1.07zm-17.78 0v-13.13h13.67v13.13h-3.41l1.73-3.48.46-2.53-.6-.7-4.76 6.71h-7.1zm-4.43-13.13h4.43v-6.96l-2.59.51-1.67 1.29-.73 2.47.56 2.7zm-8.87-3.63 7.2 3.63h-7.2v-3.63zm-13.3 8.9v-5.27h13.3v11.08l-4.46-3.73-3.41-1.8-3.78-.63-1.65.36zm-3.01-5.27h3.01v-2.8l-3 2.8z"/>
	<path fill="#ba2b1a" d="m145.62 137.74-4.77-2.78h10.79v2.86l-6.02-.08z"/>
	<path fill="#e9cc0c" d="m182.7 94.04 2.25-.66 1.85 1.43 3.67 1.9 3.32 1.35 2.1.3 2.34-.98 3.04-3.27 2.27-1.74h2.7l1.76 1.86.53 2.1-.28.6-.87.13-1.05-.69-.58 1.31-1.05.72-1.07.11-.95-.83-.53 1.06-2.04.6-1.84.2 2.5.2 3.13-.67 3.2-1.16 3.48-1.26 2.63-.06 1.96 1.49.8 1.8-.47 2.81-.38.06-1.2-2.04-1.02-.73-.06 1.23-.56 1.17-1.23.93-1.6.17-1.29-1.13-.64-1.44-1.23 1.2-4.12 1.32 1.93.5 6.51.2 3.22 1.64 1.05 2.69-.61 2.51-1.04 1.77-.24-1.65-.8-1.34-.86-.68-.73 1.1-.86.92-2.08.19-1.4-1.3-.55-1.15.06-1.53-.61.67-.55.06-3-.85-3.36-1.29-1.72 1.53-.18 2.39-.73.8-1.59.48-1.1-.12-1.7-1 .5 3.07-1.21-.52-1.75-1.97-.4-2.04.97-1.46 2.71-2.23.8-.9.02-.7-2.76-1.82-3.19-1.62-1.5-.43-1.56.13-.32-2.87-.84-2.57zm-37.73-1.39-3.51 2.54-3.52 2.1-2.91 1.04-2.54-.07-1.57-.83-1.87-2.77-1.57-2.31-1.95-.53-1.64.53-1.05 1.12-.44.98-.14 2.63.53-.03 1.01-1.17.28 1.17.92 1.3 2.08-.62.76 1.3 1.99 1.06-2.38-.09-4.49-1.62-4.65-1.69-2.4.56-1.92 2.28-.22 3.62 1.03 1.27 1.43-2.72.59 1.57 1.49.84 1.4-.4.87-.78.39-.93 1.35.77 3.14.47 2.19-.11-2.48.98-3.64.79-3.14.17-1.57 1.15-.69 1.94.4 2.14 1.34 2.05.4.28.19-1.3.79-1.07c0 .15.04.2.08.31l.92 1.3 2.23-.1 1.05-1.22.14-2.06 7.05-2.45 2.21-.53 1.62 1.39-.36 1.5.51 1.54 1.43.72 1.15-.17.8-.58.54 1.14-.03 2.37.98-.35 1.62-1.67.36-2.96-.87-2.33-2.21-1.86-.84-.91.3-.68 2.79-1.97 2.54-1.44.68-.1 2.83.06.95-5.82-2.75-.74z"/>
	<path d="m183.66 96.8-.16-1.2c.25.5.81 1.38 1.4 1.56.64.19 1.5.35 2.17.46.4.08-.35.22-.46.24-.44.07-2.89-.46-2.95-1.06zm.16 2.36.06.52c1.7-.8 4.7 1.3 5.5 1.7 1.34.68 3.22 1.83 3.22 2.24 0 .53-1.1 1.5-2.38 2.46-1.67 1.25-2.84 2.7-1.67 4.81.5.9 3.23 3.3 4.35 2.34-1.2-.25-1-1.6-1.02-2.47.74.66 3.07.86 4.2-.09 1.14-.96.62-2.16.99-3.2.12-.35.45-.66.76-.95 1.01-.92 5.18 2.63 7.75 1.64-.78 1.48 1.4 3.5 2.31 3.5 1.71 0 2.79-.45 3.43-2.16 1.25.31 1.7 2.4 1.49 3.71 1.68-1.02 2.34-3.07 2.34-4.42 0-2.15-1.2-4.1-3.28-4.57-3.3-.77-6.72-.5-10.15-.87.4.05-.79.02-.32.16.68.2 2.02.6 3.81.66 2.45.07 4.36.05 6.33.6 1.33.38 4.24 3.46 1.83 7.33 0-1.33-.83-2.3-1.54-2.98-.63-.61-.3-2.1.47-2.7-1.45.25-1.17 1.8-1.45 2.6-.38 1.16-1.17 1.87-2.35 1.83-.7-.02-1.97-.77-2.26-1.4-.36-.82-.45-2.49.5-3.1-1.1.16-1.28 1.39-2.06 1.35-1.05-.07-4.97-1.67-6-2.05-.97-.33-1.27.27-1.84 1-.38.48-1.42.68-1.76-.1-.43.91 1.21.74.89 2.53-.18.95-.51 1.25-1.21 1.47-1.33.42-2.2.22-3.03-.57-.66-.64-.1-2.1-2.03-1.79.66.4 1 .74 1.1 1.16.23 1.05.53 2.04.58 3.29-1.08 0-2.34-2.31-2.61-3.17-.82-2.51 3.9-3.81 4.3-5.74a.8.8 0 0 0-.15-.7c-.41-.62-3.72-2.64-6.38-3.71a5.65 5.65 0 0 0-2.72-.16z"/>
	<path d="m198.49 99.82-.88-.14c.55 0 .98-.1 1.46-.12 3.56-.1 5.81-1.09 9.32-2.47 1.88-.73 4.48-1.51 6.23-.18 1.95 1.5 2.3 5.28.42 6.52-.32-1.38-1.3-2.82-1.9-2.82.06 1.34-1.6 3.06-2.97 3.12-1.4.08-2.42-1.02-2.79-2.08-.82 1.08-3.88 2.02-5.16 2.02-1.71 0-2.85-1.19-4-1.8 1.02.01 1.7.4 2.36.78 2.07 1.19 6.73-.77 6.97-2.73.29.86.32 1.6 1.09 2.37 1.53 1.53 2.67.95 3.75-.48.27-.35.34-1.4.27-2.07-.05-.4-.2-.66-.2-1.1 0-.3.09-.5.28-.62.27.44-.03 1.46.5 1.83.81.53 1.53 1.81 1.98 2.5.22-.74.2-1.04.23-1.46.2-3-2.64-4.83-5.98-3.57-2.78 1.04-5.97 2.5-8.93 2.57-.63.02-1.52.03-2.05-.07z"/>
	<path d="m185.28 93.56-.72.14c2.37 1.7 8.7 5.43 11.59 5 1.75-.26 2.98-1.7 4.17-2.94.9-.96 1.93-2.11 3-2.74 1.8-1.04 4.75.58 4.83 3.83-.85.17-1.04-.17-1.4-.56-.76-.83-1.67-1.17-.98-2.58-.4.13-.56.17-.61 1.14-.05.76.94 1.3.88 1.83-.08.7-1.18 1.91-2.4 1.5-.6-.2-.78-1.24-1.56-1.14.4.17.48.56.37.94-.2.7-1.52.98-1.93 1.07-.77.18-2.7-.12-3.02.66 4.64-.26 4.79-.56 5.3-1.66.29.55 1 .9 1.8.63a4.13 4.13 0 0 0 2.05-1.92c.2.56 1.84.8 2-.18.39-2.5-1.2-4.79-3.67-4.79-2.93 0-4.38 2.44-5.95 4.22-2.82 3.22-5.96 1.72-8.92-.07-2.1-1.28-3.36-1.44-4.83-2.39z"/>
	<path fill="#e9cc0c" d="m156.14 7.27-1.24.26 1.5 3.16 1.04 5.18 14.49.1.72-3.83 1.82-5.18-1.7.63-1.57 1.4-1.76.15-.57.93-1.23-1.45-1.04-.1-1.04-2.33-1.65-.16-1.76 2.07-.47.47-1.14.41-.52.72-1.4-.88-.82-.1-1.66-1.45z"/>
	<path d="m147.22 95.98-.05-1a4.06 4.06 0 0 1-1.64 1.93c-.38.22-1.41.11-1.79-.16.03.15.44.52.51.55.41.2 1.05.21 1.53.04.43-.15 1.4-1.36 1.44-1.36zm10.66-79.82-.94.02c0-.78-.2-1.54-.26-2.25a18.4 18.4 0 0 0-.52-2.98c-.48-1.61-2.32-3.77-1.49-3.96 1.43-.33 2.46.34 3.31 1.45.4 0 1.44-.01 1.87.8a2.1 2.1 0 0 1 1.88-1.14c.14-.28.27-.57.36-.7.47-.74 1.29-1.92 2.34-1.88 1.06.04 1.5.55 1.96 1.38.22.4.39.9.47 1.3.58-.05.95.07 1.28.21.25.1.66.5.82.76.22-.32.37-.48.76-.58.38-.1.4-.16 1.38.01a6.83 6.83 0 0 1 1.7-1.4 3.7 3.7 0 0 1 1.2-.49c.57-.12 1.08 0 1.02.27-.1.4-.76 1.33-1.09 2.2a23.05 23.05 0 0 0-1.59 6.84l-.74-.03c.22-2.05.7-4.37 1.36-6.22.27-.75.55-1.34.99-2.07-.06-.58-1.61.63-1.98 1.06-.22.26-.38.93-.79.72-.5-.27-.73-.32-1.2.02-.63.59-.7.7-.67 1.47.02.3.28.57.4.7.13.13.5.44 1.13.54.18.03 0 .48-.08.5-.42.1-1.02-.19-1.27-.32-.22-.12-.68-.36-1-.7a9.3 9.3 0 0 1-1.6.69c-.5.13-.89-.04-.6-.34.26-.27.6-.27.93-.39.34-.12.6-.34.86-.86.11-.24.27-.56.1-1.19-.07-.27-.64-.62-.98-.68-.22-.05-.63-.05-.76-.2-.22-.23-.3-.34-.33-.58a1.98 1.98 0 0 0-.25-.72c-.21-.43-.68-1.13-1.31-1.13-.44 0-1.01.48-1.42 1-.31.41-.46.88-.73 1.25-.03.03-.14.33-.5.32-.68-.11-1.3.19-1.31 1.36 0 .77.03.73.4 1.13.42.44.93.6 1.27.8.14.08-.04.4-.23.4a2.8 2.8 0 0 1-1.22-.33c-.36-.21-.48-.58-.72-.69-.5.05-.84.92-1.88 1.1-.9.18-.33-.4-.04-.72.75-.85 1.6-.55 1.27-2.15-.12-.56-.98-.6-1.56-.62-.7-.02-.65-.84-1.48-1.3-.54-.28-.66-.24-.95-.19-.31.05.08.67.23.82.22.24.3.33.42.57.19.37.32.83.45 1.1.03.07.15.36.33 1.17.18 1.05.27 1.33.5 2.48.15.72.37 1.52.5 2.37zm-6.71 50-.35-1.32c-1.36 9.12-3.1 21.14-15.02 20.48 1.5-1.67 3.43-6.71 4.73-12.4 1.6-7.06 2.89-14.97 2.48-17.77-1.51 6.33-6.15 17.13-9.28 23.22-2.52 3.44-5.34 10.79-13.77 11.07-3.06.1-6.75-2.08-7.1-4.86 2.36.62 3.83.51 6.39-1.4 4.85-3.66 7.42-8.4 9.41-11.8 1.6-2.72 6.97-13.11 7.08-17.94a100.11 100.16 0 0 1-7.68 11.96 47.17 47.17 0 0 1-4.82 5.4c-3.35 2.7-4.91 3.17-6.97 3.14-3.03-.06-4.51-.96-4.6-5.21.65.49 1.06.52 1.95.54 1.04.02 2.23-.92 2.75-1.3 3.1-2.48 6.6-7.67 8.52-10.8l2.46-4.06c1.34-2.24 2.62-4.46 1.68-4.28-2.47 3.36-5.93 8.18-10.08 9.81-4.14 1.63-6.97-.55-7.23-5.65.38.29.49.82 1.72.73 2.2-.15 5.1-3.38 6.26-4.88 1.31-1.7 6.07-7 5-8.26-.46.35-3.2 2.33-4.2 2.85-1.43.71-3.01 1.64-4.76 1.09-3.19-1.02-3.81-2.77-3.63-6.11.6.64 2.51.56 3.54.06 1.41-.7 2.3-1.12 4.31-3.5 2.3-2.76 2.96-3.83 4.77-6.31.31-.44 2.52-3.32 1.4-3.27-2.79 2.57-6.54 4.79-7.9 5.12-1.46.35-2.8.5-4.13-.28-1.36-.79-2.71-2.02-2.34-4.8a6.46 6.46 0 0 0 3.37.01 13.7 13.7 0 0 0 3.45-2.26c1.68-1.46 4.27-4.1 5.96-5.52-.04-.05.74-.57 1.6-1.3.47-.39 1.35-.59 1.37-.67.03-.2-1.7-.07-2.64-.72-1.06-.73-2.27-3.18-2.93-4.1a7.51 7.51 0 0 0-3.06-2.02c-.86-.3-1.37-.33-.44-.95 1.9-1.26 4.23.84 5.61 1.9 1.32 1 3.25 2.93 6.36 2.93 3.32 0 4.74-.78 6.46-1.37 2.11-.71 4.4-.4 6.17.4 2.43 1.1 2.73 3.25 2.47 5.53-.12 1.54-2.11 3.74-4.44 8.42-.61 1.25-.5 3.04-.45 4.63.07 1.78.82 4 1.1 5.02a9.3 9.3 0 0 1-2.08-1.56c-1.5-1.93-1.55-3.2-1.89-4.48-1.92 1.7-2.66 5.87-2.66 8.33 0 1.16.9 4.41 2.24 5.9a8.27 8.28 0 0 0 6.24 2.73c1.8-.06 3.37-.53 5.13-.77 1.2-.17 3.14 1.5 4.33 3.17l.5-.54c-1.9-2.04-2.53-2.63-2.9-2.89-1-.66-1.5-.96-2.43-.78-1.92.37-4.14.72-4.87.72a6.86 6.86 0 0 1-5.16-1.95c-1.54-1.5-2.2-5.36-2-7.3a9.2 9.2 0 0 1 1.54-4.43c.19.7 1.22 2.42 1.74 2.93.46.46 1.92 1.8 2.83 1.39-.4-2.91-1.09-4.64-.9-7.02.28-3.18 2.96-6.78 4.33-9.37 3.3-6.21-3.2-10.67-8.49-9.04-3.08.95-7.54 2.22-10.29.3-3.98-2.78-7.07-5.83-9.94-2.32 1.39.68 3.79 1.5 4.7 3.02.47.77 1.97 4.3 3.79 4.51-2.22 1.5-4.63 3.8-6.87 6.03a10.72 10.72 0 0 1-3.54 2.46c-1.48.59-2.6.4-3.9.14-1.06 3.15 1.12 6.88 4.54 6.88 2.13 0 2.6-.15 4.64-.99.47-.19 3.53-2.31 4.2-2.7-.11.6-4.66 6.38-5.26 7.05-1.34 1.5-5.3 4.94-7.47 2.78-.63 2.97-.38 5.92 2.8 7.49 3.27 1.6 7.98-2.06 9.51-3.3-1.22 2.34-4.37 5.9-5.34 6.94a30.11 30.13 0 0 1-4.02 3.68c-1.59 1.12-2.92-.4-3.36-.73-.44 3.83.44 7.74 3.7 8.22 2.16.3 4.18.02 6.37-1.67.15-.12 3.48-3.17 4.48-4.16a63.52 63.52 0 0 1-6.37 9.42c-1.24 1.43-2.72 3.34-4.48 4.52-.8.54-3.02.84-3.95-.29.02 3.13-.03 4.98 2.34 6.57 2.83 1.9 7.75.04 10.84-3.07 4.34-4.38 7.83-10.18 9.18-12.14-1 3.69-6.57 13.9-8.64 16.7a40.79 40.8 0 0 1-6.63 7.04c-.96.8-2.59 2.07-6.1.82 1.82 9.61 12.81 7.02 15.89 3.89 8.62-8.78 10.05-17.42 13.77-25.52-.44 4.31-1.47 8.35-2.42 12.3a97.11 97.11 0 0 1-1.9 6.65 14.99 15 0 0 1-3.05 4.67c10.43 2.26 15.7-6 16.73-19.43z"/>
	<path d="M161.37 30.78c-3.22-2.12-7.54.24-10.66-.34-3.31-.6-6.42-2.4-3.9-6.87 1.82 2.94 4.2 3.27 8.45 3.3 3.08.03 6.13.5 8.23 2.18-.2.61-1.11 1.5-2.13 1.73z"/>
	<path d="M146.82 24.39c-1.56 2.7.59 4.6 3.44 5.4 2.82.8 4.53-.3 8.14-.3 1.44 0 2.96.3 3.39.66.82-.32 1.27-1 1.19-1.06-.93-.73-2.9-1.2-3.87-1.4-3.55-.75-4.32-.15-7-.39-3.57-.3-4.18-1.23-5.28-2.91z" fill="#e9cc0c"/>
	<path d="m175.97 48.18-.66-.66c0 .11 2.51-2.22 3.25-2.49 1.56-.56 3.03-.26 4.25-.07 2.84.44 6.42 1.55 8.62-.74 4.58-4.76 1.64-11.9.24-14.8-.51 1.43-.96 3-1.51 3.63-.91 1.02-1.75 2-3.46 2.27.62-1.2.99-3.34.99-4.98 0-2.06.06-3.37-.77-5.04-1.1-2.22-4.25-5.76-4.7-8.27a5.13 5.13 0 0 1 .32-2.82c3.25-6.93 13.21-1.43 16.57-1.4 4.69.05 7.38-7.67 13.14-3.5-1.94-.08-3.9 2.18-4.81 3.41a10.76 10.76 0 0 1-4.18 3.61c2.34 1.17 4.67 3.37 6.38 5.1 1.04 1.03 2.7 2.46 4.29 2.95 1.59.5 2.14.35 3.68-.07 1.4 3.24-2.03 7.37-4.6 7.54-3.69.22-6.4-2.03-8.64-3.44 2.8 3.62 7.9 12.34 12.74 9.44 1.57 3.56-1.9 7.84-4.8 7.25-3.92-.8-6.85-3.83-7.11-4.35 1.18 2.72 4.87 9.26 8.04 11.64 1.4 1.06 2.97.27 4.15-.33a6.95 6.95 0 0 1-3.45 8.15c-1.75.84-4.25.25-5.9-1.35l-4.38-4.27c2.05 3.76 4.32 8 9.37 13.43 1.12 1.21 3.58.73 4.14.57.78 5.76-6.47 8.58-9.73 5.9-3.23-2.63-7.62-8.45-9.63-12.37 2.53 6.26 7.17 14.28 12.64 19.6.8.8 4.94 3.74 6.88.54 1.28 4.36-3.14 8.12-6.8 8.12-5.86 0-10.87-5.67-13.65-10.2-2.4-3.9-9.75-17.78-10.14-19.81.8 3.22 3.22 21.99 9.18 24.04-.88 2.21-6.66 2.1-8.64 1.16-5.57-2.64-8.92-13.96-9.37-19.7l.33-1.52a50.81 50.84 0 0 0 3.55 13.15c1.05 2.54 3.6 6.06 5.6 6.96 2.75 1.23 4.51 1.16 7 .22-4.3-3.73-6.71-15.05-7.9-21.23-.45-2.33-.67-3.94-1.73-6.38-.15-.35.45-.7.78-.3.25.31.55.59.71.94 3.34 6.97 6.45 13.75 10.4 20.17 2.25 3.68 7.24 11.4 13.1 11.76 2.72.17 5.86-2.17 6.85-5.24-5.62 1.3-9.1-4.25-12.63-9.13-1.55-2.14-4.54-7.8-5.49-9.94a79.82 79.82 0 0 0-5.01-9.74c-.18-.3.43-.74.67-.49.82.82 2.51 3.94 3.05 4.82 1.47 2.39 6.09 9.99 9.5 13.14 2.03 1.88 9.06 2.55 9.96-3.62-4.65 1.51-6.41-3.25-9.1-6.88-2.16-2.89-4.54-7.57-6.5-10.8-.24-1.47-.02-1.77.24-1.57.63.5 1.97 2.63 2.54 3.32a38.19 38.2 0 0 0 5.61 5.55c2.16 1.1 3.35.95 5.37-.65 1.58-1.26 1.9-3.18 2.05-5.12-4.4 1.51-5.35-1.37-7.8-4.25-1.32-1.56-4.52-6.97-4.76-9.28 1-.31 4.62 4.8 8.64 4.59 2.46-.14 3.93-3.78 3.79-5.46-.83.38-2.24.8-3.46.18-2.38-1.22-3.73-2.8-5.94-5.46-.87-1.04-6-7.88-7.1-9.23-.17-.18.37-.17.62-.12.8.14 2.08 2.55 5.67 4.68 2.16 1.45 4.4 2.8 7.03 1.88 1.75-.62 3.5-2.23 3.57-5.6-6.53 2.36-10.3-8.16-16.8-8.52-.23-.01-.22-.4.01-.41 1.91-.11 3.3-.24 5.33-2.9.98-1.27 2.83-3.93 5-4.29-5.2-1.19-6.94 4.35-11.32 4.38-2.56.02-3.26-.73-5.4-1.2-2.4-.51-5.65-1.16-8.12-.34-.8.26-2.34 1.7-2.73 2.56a5.18 5.18 0 0 0-.19 2.84c.99 2.3 2.7 4.66 3.94 6.57a9.1 9.1 0 0 1 1.3 3.92c.2 2.3.2 4.46-.56 6.6a6.88 6.89 0 0 0 2.63-2.61c.45-.85 1.18-2.54 1.12-3.73 3.12.7 4.94 12.74 1.17 16.44-2.14 2.09-5.93 2.24-8.11 1.64-1.45-.4-6.03-1.24-8.42 2.01zM157 15.6h15.34l.02.56-15.42-.02.07-.53z"/>
	<path fill="none" stroke="#000" stroke-width=".71" stroke-linecap="round" d="M186.94-35.28h9.8" transform="matrix(.73214 0 0 .7325 28.12 39.72)"/>
	<path d="m172.2 16-1.1.07c1.72.58 2.96 2.96 4.18 4.28.68.73 1.55 1.8 2.24 2.58.56.65 2.32 1.1 3.14 1.17-.44.65-1.8.72-3.02.31-2.96-.99-2.48-2.06-3.76-2.6-.51-.21-.92 0-.66.3 2.46 2.8 4.4 4.5 4.26 7.92-.07 2.08-.98 4.64-1.56 6.37-2.2 6.52-4.15 8.46-.35 12.12 3.66 3.52 4.23 6.14 3.33 11.18-.62 3.53-1.7 7.14-2.44 10.29-.78 3.37-2.39 7.94-3.27 11.15 1.09 1.1 2.12 2.5 3.23 3.6 1.73 1.74 3.27 2.64 5.4 4.1 2.32 1.6 6.09 1.4 8.3 1.3-1.35 1.3-4.6 3.09-7.92 3.81 1.38 2.96 1.38 5.57 1.06 9.06-.18 1.9-1.35 4.57-1.7 6.13-.21-3.6-6.34-9.6-9.12-12.89-.9-1.07-1.65-2.72-2.07-3.43-.11-.2-.45-.2-.43-.02.26 2.17 4.37 7.05 5.87 8.32 2.33 1.96 5.38 7.41 5.72 9.56.54-2.2 2.6-5.55 2.6-8.76 0-2.82.12-5.37-1-7.55 2.74-.33 6.45-2.8 8.52-5.02-7.25.25-8.2-.55-11.32-2.6-2.37-1.56-4.53-4.27-6.27-6 1.63-4.48 2.32-7.4 3.43-11.97.37-1.49 2.07-7.7 2.22-8.41.49-2.33.61-6.53-.44-8.83-1.96-4.24-5.58-4.64-4.88-8.38.36-1.88 2.61-7.51 3.4-10.31 1.33-4.76.11-6.3-1.8-8.6.97.55 2.42.94 3.5.94 1.02 0 2.64-1.18 2.9-2-3.08.52-4-.2-6.14-3.16-.79-1.1-3.05-3.76-4.06-4.03zm-14.08 4.77c.3.9 1.77 1.92 3.07 2.36 1.32.45 3.08.69 4.44 1.53 2.47 1.52 1.19 5.65-.88 7.32-1.45 1.18-5.45 1.6-8.32 3.1-.14.07-.34-.27-.38-.38-.14-.4.93-1.84 1.26-2.24 1.67-2.03 6.3-1.65 6.26-4.16-.03-1.85-5.14-1.93-6.15-2.9-1.47-1.43-3.53-3.1-3.92-.52-.9-1.69-1.1-1.56-1.42-2.3-.59-1.32-.5-2.44-.1-3.22.54-1.03 1.4-1.2 2.57-1.38a3.35 3.35 0 0 1 2.47-1.82c.89-.1 1.98.64 2.26 1.56.24.85.22 1.9-1.15 3.05z"/>
	<path d="M156.5 20.18c3.2.4 3.02-3.31.51-3.31-1.14 0-1.56 1.08-1.91 1.8-.78.03-2.91-.13-2.83 2.22.03.83.63 2.05 1 2.45 1.55-1.87 3.33.94 4.7 1.63.68.33 1.95.61 3.25.9 2.02.47 3.74 1.69 2.12 3.93-1.05 1.45-5.03 1.1-6.28 3.62-.74 1.52.22.67 1.42.32 4.3-1.25 8.05-2.32 7.88-6.64-.1-2.55-5.56-3.3-6.62-4.03-.72-.5-3.27-2.55-3.22-2.89z" fill="#e9cc0c"/>
	<path d="m164.54 18.86-2.79-.3-2.3-.13c-.39 1.2-.48 3.27.89 3.9.9.4 2.63.47 3.37-.47.62-.8.76-1.96.83-3z"/>
	<path d="m164 18.87-2.2-.33-1.89-.07c-.03 1.03-.73 3.16 1.23 3.56 2.63.53 2.94-2.05 2.87-3.15z" fill="#fff"/>
	<path d="m162.58 18.8-.8-.26-.55-.03c-.46.4-.73 1.26-.57 1.78.14.44.56.88 1.11.85.69-.03 1.14-.96 1-.88-1.4.86-2.1-1.4-.2-1.46z"/>
	<path d="M159.33 18.34c2.57.01 4.93.36 7.8.47.05.11 0 .2-.15.22-.75.17-3.35.02-3.68-.03-.77-.1-3.24-.22-4.02-.3-.1-.01.05-.34.05-.36zm2.97 14.47-1.12.43c4.02 1.25.72 8.93-3.1 7.32-2.36-.99-8.6-3.95-8.54 2 1.2-.7 2.06-.85 2.65-.66.85.27 2.59 1.84 3.22 2.47.97.97 4.17 1.3 4.17.98 0-.06 0-.17-.06-.18-1.36-.14-2-.3-2.86-.68-1.28-.59-2.49-3.1-4.91-3.17-.59-.03-1 .08-1.9.66.93-4.77 6.99-.52 9.24-.44 2.76.1 4.39-2.76 4.69-5.18.15-1.23-.51-3.01-1.47-3.55z"/>
	<path d="m158.09 45.17-1.12-.35c-2.49 2.09-5.42 3.8-6.69 7.04-1.16 2.95-1.26 7.77-.13 11.56 1.26 4.18 3.4 9.55 4.65 13.52 1.6 5.05-2.59 9.13-6.1 11.27-3.86 2.35-5.14 1.42-8.85 1.42 1.07 2.13 5.17 4.03 7.58 4.08-.78 1.6-1.43 7.32-1.17 9.3a68.32 68.32 0 0 0 1.92 7.74c1.3-3.54 3.12-5.76 5.77-8.37 1.8-1.73 3.47-3.98 5.02-5.82.28-.33 3.12-4.18 1.87-4.18-1.52 2.85-1.95 3.37-4.28 6-.54.61-1.8 2.19-3.05 3.5-1.04 1.1-2.1 1.96-2.56 2.42-1.1 1.12-2.39 3.95-2.7 4.74-.39-2.1-1.34-5.25-1.34-8 0-2.68.74-5.64 1.2-7.85-2.18 0-5.3-1.51-6.77-2.8 6.83.83 9.1-1.93 13.15-6.47 3.3-3.73-.16-11.45-1.54-14.27a70.14 70.17 0 0 1-2.1-6.34 21.7 21.71 0 0 1-.6-7.4c.53-5.56 4.45-9 7.84-10.74z"/>
	<path d="m156.23 99.46.46-.83c1.25 5.07 5.5 10.59 6 14.92.22 2.54.62 4.34-.74 6.65-.8 1.4-3.29 2.12-4.82 2.05-3.33-.15-5.34-2.62-5.05-5.23.08-.79.64-1.35.63-1.94-1.8 0-4.36.43-5.24 2.24a4.8 4.8 0 0 0-.35 3.1c.2 1.05.65 2.23 1.05 3.19a303.1 303.1 0 0 0-9.34-4.84c-8.81-3.59-13.07-.23-16 2.7-1.5 1.5-4.83 6.49-1.3 11.72-.86-4.54 2.04-6.55 5.48-6.68 4.66-.17 8.42 3.58 11.8 6.33 1.82 1.48 3.68 3 5.87 3.99 4.13 1.86 11.22.48 14.41-2.6 1.75-1.69 3.96-6.08 4.5-6.6 1 .47.6 2.78.1 4.03-.57 1.4-1.02 2.76-2.08 4.17-.57.76-1.95 1.58-1.3 1.49 1.12-.16 2.17-.17 3.29-.1.56.03.7 1.26 2.02 2.49.27-.57.64-1.23.8-1.84.43-1.48 3.68-.21 4.7-.19-1.93-.85-4.75-8.02-3.97-9.61.11-.25.27-.22.45-.02 4.17 4.73 7.74 8.26 14.57 8.5 3.05.1 6.55-1.12 7.9-2.13a61.8 61.82 0 0 0 6.71-5.61c2.92-2.87 11.3-5.46 13.17 2.84 1.83-10.86-6.6-14.31-10.57-14.43-6.04-.18-8.3 1.77-10.4 3.13-3.02 1.97-4.37 3.34-8.12 2.7.8-.37 2.33-1.58 2.54-2.6.23-1.14.18-2.67-.66-3.51-1.44-1.44-2.64-1.83-4.69-1.76 1.9 1.97 1.07 4.95-1 5.74-3.27 1.26-5.45.36-7.44-2.27-2.2-2.92.86-9.84 1.9-12.44 1.26-3.2 1.84-4.66 1.53-8.64l.86 1.42c0 6.23-4.7 11.17-4.26 17.27.17 2.35 3.42 4.95 6 4.34 1.09-.26 2.86-1.18 2.97-2.64.1-1.28-1.4-3.03-1.4-3.14 2.8-.9 5.5-.17 6.67 2.24.84 1.69.13 3.99-1.23 5.67 2.58 0 5.1-3.09 7.35-4.16 3.27-1.55 5.88-2.3 9.7-2.14 3.97 0 9.84 3.84 10.6 6.96 1.2 4.83.37 7.16-.53 11.65a8.43 8.43 0 0 0-.97-5.18c-2.64-4.98-9.2-2.8-12.33.3a91.6 91.65 0 0 1-6.42 5.08 14.42 14.43 0 0 1-7.56 2.17c-7.4 0-10.15-3.72-14.6-8.16.29 2.63 1.25 5.5 3.54 8.11.15.15.37.91.15.85-2.24-.6-3.45-.6-4.28-.49-.94.13-.09.73-1.78 2.87-1.62-1.54-1.6-2.2-1.78-2.52-.36-.67-2.07-.55-3-.39-.78.15-2.34.06-1.82-.2.57-.26 1.53-1.29 2-1.76.9-.9 3.69-5.33 2.52-6.99-1.7 2.9-3.67 8.1-10.19 9.16-3.04.5-5.9.66-8.13-.15-7.61-2.71-9.63-10-17.72-10.57-7.17-.52-5.35 6.38-4.6 8.86-5.18-4.74-4.4-12.58 1.9-17.36 7.35-5.57 16.93.53 22.24 3.5-.38-2.06-1.11-4.28.8-6.23 1.48-1.49 6.23-1.96 5.87-1.2-.57 1.21-1.16 3.3-.51 4.32.57.9 2.91 2.37 4.38 2.41 6.05.19 4.9-6.65 3.72-9.96-1.47-4.14-4.29-8.54-4.98-12.05zm-11.08-6.33-.7-.4c-3.32 2.37-11.04 8.3-14.19 3.3-1.4-2.21-1.49-4.57-4.68-4.46-3.23.1-3.81 3.38-3.45 6.02.53.03 1.29-.55 1.53-1.17.1.64.46 1.8 1.35 2.16.64.25 1.33-.5 1.9-.49a3.37 3.37 0 0 0 2.85 2.02 4.25 4.25 0 0 0 2.58-.64c-1.48.2-2.9.8-4.4-.7-.64-.65-.55-.74-.41-1.67-.7.52-2.07 1.03-2.26.95-.5-.24-1.39-.99-1.02-2.16.17-.51 2.53-1.23.97-2.99.7 1.62-2.2 2.49-2.5 3.93-.36-.51-.18-2.2.64-3.35a2.93 2.93 0 0 1 1.66-1.04c2.38-.59 3.22 1.84 4.52 3.93.92 1.48 2.15 2.48 3.67 2.46 4.16-.06 8.93-3.6 11.94-5.7z"/>
	<path d="M127.27 103.32c.83-.19 1.39-.63 2.13-.9-.91.42-3.17.67-3.94.6-1.38-.15-4.24-.39-4.14-1.66.06-.73-.57-1.27-1.3-1.28 1.13.58.65 2.1.1 2.97-.53.87-1.89.71-2.66.33-2.4-1.2 1.4-4.43-1.67-4.58.95.66.49 1.9.4 2.24a7.01 7.02 0 0 1-1.63 2.55c-.8-.79-.8-6.1 2.93-6.43 1.7-.14 7.21 2.55 8.73 2.96.6.16 1.13.27 1.63.32 1.95.23 3.16-.4 3.88-.68-1.22.24-2.7.2-4.23-.11-1.74-.36-3.51-1.25-4.7-1.81-3.18-1.5-4.6-1.58-4.89-1.58-1.98-.07-3.97 1.96-4.28 3.63-.22 1.2-.7 3.98.74 4.69.33.16.5.34.87.36-.14-1.27.63-2.14.9-2.47a2.46 2.46 0 0 0 1.05 1.55c.7.54 3 .4 3.96-1.52a9.15 9.16 0 0 0 3.56.88c.73.03 1.98.07 2.56-.06z"/>
	<path d="M118.56 113.07c-.38-.36.21-1.96.59-1.78.44.64 1 1.1 1.8 1.1 1.65 0 3-.76 2.91-2.53-.01-.28-.13-.66.16-.93.94-.6 5.08-2.1 5.8-2.29 1.4-.37 3.27-1.38 4.27.48-.4 1.45 0 3.02 1.22 3.59 1.2.56 2.24-.1 2.72-.33.47.4.3 3.11.3 3.39a3.82 3.82 0 0 0 2.1-1.07c2.14-2.05 1.6-4.1 1.22-5.63-.22-.85-1.26-1.6-1.92-2.27-.65-.63-1.17-.85-1.66-1.21-.88-.66 2.13-2.27 2.54-2.5 2.49-1.36 2.9-2.32 6-1.47l.1-1.6c-.51 1.65-2.2.5-3.4.98-1.06.41-6.05 3.38-6 4.29.07.99 3.06 2.85 3.5 4.06.64 1.75.5 3.6-.94 4.94-.4.37-.9.75-1.07.73.09-.99.14-1.33 0-2.06-.1-.62-.38-.82-.38-1.27.01-.64.44-1.15.79-1.72-1 .39-.96.91-1.35 1.6-.41.73-.76.78-1.43.78-1.08 0-2.44-1.6-1.7-2.73.41-.64 1.15-1.47 1.16-2.13-.2.26-1 1.44-2.02.44-.67-.67-1-1-2.21-.64a64.31 64.31 0 0 0-7.03 2.61c-1.67.76-1.38-1.3-2.78-.78.72.22 1.26 1.04 1.39 1.32.32.66.08 2.01-.45 2.54-.63.63-2.4.87-2.91.06a3.25 3.25 0 0 1-.4-2.01c.06-1.08-.49-2.07-1.67-1.8.82.4 1.08.93 1.08 1.87 0 1-.55 2.13-.85 2.83-1.3-.85-1.51-2.97-1.51-3.82 0-1.26 1.14-2.93 2.62-2.86 2.02.09 3.28-.32 5.13-.66.98-.18 3.63-1.2 4.48-1.9-1.19.35-5.56 1.73-6.86 1.83-2.63.2-4.5-.03-5.38 1.68-.51 1-.84 2.82-.4 4 .29.8 1.27 2.73 2.44 2.87z"/>
	<path fill="#fff" d="m13.8 155.07-.18-.87-.92 1.34-.61 2.02-.11 1.22-1.82 1.61-.53 1.39.27 1.59.36.87-1.04 2.54-.53.76.38 2.95-.82 11.58.3 2.96 1.08 1.28 2.04 1.38.7-.06.42-1.12.51.1.05 1.02 3.26-2.29.15-1.32-.35-2.36 2.14-4.27 2.19-1.13 1.12-1.23.77 1.9.35 3.3-.4 5.26-1.13 6.17-.35 4.49 1.22 4.95 1.88 3.51-5.2-.71-1.12-.05-3.36-.82-2.14-.1-3.31 1.38-10.76 8.2-3.4 3.78-1.08 2.4v2.9l.36.46 2.39-.92 2.34-1.47.36-1.08.05-2.4.82-1.58.92-.35.86.61 5.4-5.35 1.84-.87 1.38-.2-2.25 3.77-1.93 2.69-2.51 2.21-1.64 1.83-1 2.04-1.32 2.1-.72 2.9v2.19l.2.77 1.38-.36 2.96-2.04.5-.97-.2-3.46 1.33-1.64.71.41 1.84-1.53 2.9-5.61 1.48-1.27 1.53-.26 1.73-.66.81-.51 1.9 1.27 2.44 1.02 3.13.41 3.14.23 2.02.86 1.89-.02 1.64-.67.8.75 2.6 1.38 2.36.99 2.3.77 6.99 1.45 5.55.7 7.07.53 3.46 5.44 2.23 2.72 1.16 2.92 2.68 2.47 1.4 2.05.69 2.23 1.57 2.49-.77 4.46-1.69 3.67-1.75 2.29-1.15 1.3-.84 1.91-3.93 1.62-1.13.96-1.05 2.98 1.65.43 5.29-.04.57-1.97.18-1.75 1.96-1.79 1.7.22.83-1.18.87-3.45 4.22-7.83.92 2.75-.4 5.97-.42 1.99-2.08 3.67-1.59 1.37-2.6 1.59-1.63 1.88-.81 1.79-.2.87 1.53.35 5.45-.3.5-1.69.36-2.7 1.48-1.38 2-.15 1.22-.62.6-1.12-.05-4.53-.3-4.75.5-4.79.97-4.08-1.32-3.32-2.86-2.44-.7-2.35.86-3.2 3.57-4.7 1.73-4.5.77-5.14-.62-3.72-2.14-4.87-.92-1.53 1.84.58 2.1 1.31 1.41 2 .98 3.12.12 3.75-.48 4.66-1.69 8.04-.76 4.97.16 3.06 1.78 4.65 2.45 4 1.16 3.32.38 3.1-.23 1.14 1.8-1.3 1.87-2.86.57-2.8-.16-3.44-.8-2.52 1.32 1.04 1.71-.12 1.35-1.35-1.65-.55-1.47-1.84-1.04-3.12-.24-2.87 1.04 1.4 1.4.86 1.1.19.43-.31-1.6-2.18-.7-4.8.8-2.8 1.35.35 1.05-.57.82-1.49-1.57-.04-1.79-1.57-.44-4.68-1.12-5.67-3.51-4.33-3.26-1.73-3.52-.61-4.43-.05-2.9-2.35-3.62-.61-3.88.3-2.65.1-3.72-.7-13.55-5.54-3.18-3.12-1.35-.37-1.1-1.28-.98-1.29.18-1.72-.61-2.6 1.12.72 1.58.2 1.02-.1.33-.13-2.02-1.6-1.52-2.86-2.7-3.52 1.52.56h.98l1.19-.17.89-.58.16-.58-2.03-.6-1.8-1.37-.89-.95 1.1.32 1.48-.4.91-.72.41-1.07-1.37-.25-1.17-.26-1.79-1.68-2-2.04-1.67-1.07 1.43-.62.81-.91.16-1.07-.16-.86-.91.8h-1.64l-1.87-.69-4.17-2.56-2.67-1.4-2.84-.57-2.14.3-3.53.97-.93-1.75-1.09-1.48-.65-.7-.22 1.44-.3 1.09-.74 2.1-1.06-.3-.47-1.36-.27-1.18z"/>
	<path d="m94.74 246.84.38-.79c.03-3.08-2.13-8.5-2.89-10.58a22.02 22.03 0 0 1-1.42-8.76c.03-1.89.32-3.81.91-5.47-.13-.04-.14-.05-.19.02-.24.3-.37.88-.51 1.4-.81 2.84-.53 7.58-.08 9.52 1.07 4.5 4.4 12.27 3.8 14.66zm-56.56-85.72 1.02-.07a3.59 3.59 0 0 1-2.14.8c-1.56 0-2.56-.3-3.95-.96-.71-.34-3-2.04-4.37-2.83-1.3-.76-4.13-1.03-5.36-.94a9.07 9.07 0 0 1 5.52.74c2.49 1.35 4.63 3.8 7.68 3.83.5-.02.9.14 1.6-.57z"/>
	<path d="M19.57 157.55v-.56c5.81-2.31 8.37-.79 10.53.3 1.47.73 7.84 6.05 9.19 2.57.61.46.4 2.2-.04 2.74-1.51 1.84-3.37 1.59-5.14.97-.8-.28-2.65-1.42-3.26-2.31.07-.28 1.46.93 1.68 1.08 1.08.69 2.85 1.66 4.47 1.22 1.26-.33 2.28-1.04 2.28-2.53-2.97 1.32-6.21-1.36-8.8-2.96-1.58-.97-3.37-1.8-5.4-1.8-2.08 0-3.96.7-5.51 1.28z"/>
	<path d="m19.68 159.65-.08.22c1.66.03 2.38.92 3.18 2.13.32.5.6 2.19-.18 3.41 1.87-.55 2.6-1.74 2.6-3.96.8.63 2.27 1.94 2.63 3.08.36 1.13.66 1.32.57 4.2 1.1-.64 1.76-2.6 1.97-3.75 2.2.47 3.86 5.18 3.33 6.88-.35 1.1-.88 1.83-1.5 2.8-.3.48-1.27 1.83-1.75 2.6-1.5 2.42-1.88 3.84-1.88 4.7 0 .56-.03 2.38.77 2.42-.03-2.34 1.31-4.05 2.4-5.13.66-.64 3.53-3.25 3.94-3.97a15.3 15.3 0 0 0 1.51-5.97c0-.49-.18-.93-.34-1.19-.05-.08-.15-.03-.13.02.7 1.96-.66 5.69-1.47 6.97-.82 1.3-2.48 2.52-4.06 4.2a12.74 12.75 0 0 0-2.12 3.31c.13-1.44 1.91-3.53 2.8-4.59a21.48 21.5 0 0 0 3.18-4.45c.6-1.3.71-3.26.61-4.5-.28-1.46-.31-1.75-.73-2.53-.07-.14-.25-.06-.2.07 1.17 3.12.84 5.91-.75 8.1-.62.85-1.4 1.64-2.18 2.64a35.73 35.75 0 0 0-2.68 4.01c.13-.94.4-1.4.75-2.2 1.46-3.34 4.53-5.6 4.72-9.07.15-2.79-1.26-4.56-2.61-5.95.75 1.31 1.67 2.14 2.1 3.45.49 1.46.34 2.82.04 3.71a13.77 13.77 0 0 0-1-4.03c-.58-1.21-1.38-2.5-2.7-2.7.06-.9-.17-1.55-.38-2.33.28.27.91.93 1.43 1.24-.05-.3-1.34-1.44-1.6-1.7s-1.02-.91-1.53-1.26c.76 1.05 1.35 1.41 1.65 2.76a5.78 5.79 0 0 1-.49 3.48 7.55 7.55 0 0 0-1.3-4.6 11.83 11.83 0 0 0-4.25-3.32c1.59 1.36 3.2 2.02 4.34 4.01.68 1.22 1.3 3.92.49 5.14-.05-3.35-.69-4.32-2.27-5.9-.4-.4-2.86-2.4-3.64-2.85.94 1.19 1.6 1.52 1.59 3.43 0 .79-.59 1.89-1.22 2.18.35-1.7.31-2.43-.41-3.47-.8-1.14-1.75-1.74-3.15-1.74z"/>
	<path d="m35.7 174.88.27-.58c.1 2.16.36 5.06.95 6.13.96 1.8 2.25 3.78 2.44 5.95.21 2.4-.5 4.72-1.09 6.45a11.13 11.13 0 0 0-.64 3c0 .54-.3 1.77 1 3.18a12.15 12.16 0 0 1-.2-4.62c.1-.63.95-3.34 1.17-4.31 0 .02.3-1.68.3-1.96 0-.64.13-1.3 0-2-.19-1.18-.67-3.1-1.3-4.17-.7-1.22-1.79-4.71-1.72-6.21 0-.09.08-.24.1-.16.42 3.3 1.64 5.53 2.74 8.24.52 1.26.55 1.88.58 3.89.04 3.08-2.8 7.05-1.2 10.78 0-1.03.1-2.59.23-3.48.2-1.32.91-2.44 1.38-3.6.33-.85.68-2.29.72-3.2.16-3.88-2.06-5.41-2.88-9.19-.01-.05.05-.04.05-.1a91.05 91.05 0 0 1 2.42 5.34c1 2.42.78 3.92.39 6a4.87 4.87 0 0 0 1.35-3.75c-.03-.5-.4-1.35-.55-1.84a21.38 21.39 0 0 0-1.42-3.04c-.02-.05-.07-.1-.02-.16.43.44 1.13 1.75 1.4 2.36.06.13.77 1.44.94 3.08.3-.51.55-1.23.55-1.9 0-.32-.1-1.2-.23-1.64-.32-1.01-1.27-2.3-1.54-2.68-.63-.86-.83-1.93-1.18-2.97a32.43 32.45 0 0 0-2.2-4.62c-.03-.05-.1-.23-.06-.2 1.26.82 2.36 4.17 2.94 5.69a7.17 7.17 0 0 0 1.78 2.85c.25.22 1.63 1.3 1.69 1.07.06-.18-.82-1.02-1.56-2.16-.52-.81-1.1-1.67-1.3-2.64-.07-.35.37.54.44.67.63 1.25 2.97 4.98 4.49 4.23-.62-.02-1.63-.89-2.3-2.07-.71-1.2-1.38-2.66-1.98-3.4-.8-.98-2.59-3.1-3-5.12.17.4 1.3 1.98 1.63 2.32a3 3 0 0 0 2.13.75 3 3 0 0 0 1.42-.28c-1.1.06-2.74-1.2-3.55-2-.37-.38-2.89-3.23-2.5-3.17.64.7 4.9 6.37 6.78 4.5-3.2-.25-5.14-3.87-6.77-5.87a16.25 16.26 0 0 0-2.05-2.38c-.36-.31-.9-.66-1.24-.92-.35-.26-.48-.41.25-.4a6.59 6.6 0 0 1 1.92 1.52c.42.5 1.13 1.47 1.53 2 .6.82 1.87 2.78 2.5 2.87 1.15.15 3.03-.47 2.97-1.86-2.05.34-2.75-.58-3.83-1.65-1.1-1.1-2.92-3.3-4.4-3.55l1.1-.13c1.42.69 2.41 2.12 3.74 3.44.63.64 1.12 1.18 1.96 1.45.28.09 1.5.03 1.94-.17.4 2.38-1.52 2.83-3.22 3.02.71.98 3.08 2.13 4.33 2.21-.1 1.75-3.04 1.9-4.17 1.62.83 1.2 1.88 2.52 2.52 3.79.44.9 2.1 3.44 3.22 3.55-1.28.54-2.45.44-4 .16 1.3 2.7-1.2 6.35-2.3 7.98-1.5 2.21-2.3 5.25-2.08 9.29-2.22-1.1-2.46-3.19-2.06-5.4.27-1.56 1.5-5.1 1.6-6.66.07-.91-.25-3.9-1.35-5.53-1.9-2.84-1.83-4.24-1.97-7.64z"/>
	<path d="m36.13 178.95.89 2.14c-.52 3.5-1.83 7.47-5.69 8.48 2.16 1.37 4.28-.55 4.69-.93 1.7-1.56 2.49-3.4 2.25-5.03l.4 1.06c.11 1.2-.69 2.32-1.79 3.58-2.03 2.33-4.93 2.82-6.4 1.05 3.56-.02 5.84-4.4 5.99-7.74.04-.91-.34-1.8-.34-2.6z"/>
	<path d="m38.3 183.4-1.19-2.24-.18.22c.47 2.4-1.07 5.12-1.64 5.98.56-.21.98-1.09 1.22-1.56.48-.96.76-2.42.93-3.54 1.18 1.6-.16 3.44-.57 4.17a8.36 8.36 0 0 1-3.35 2.95c-.07.03.1.1.17.08.84-.18 1.9-.94 2.82-2.05 1.1-1.31 1.87-3.04 1.8-4.01zm-12.2 22.58c.42.12.94.2 1.37.34.31.11.1.39-.03.39-.24 0-.46-.02-.68-.1-.4-.15-.92-.33-1.35-.4-.86-.17-1.7-.08-2.6-.05-.68.02-1.42.22-2.11.3-1.01.09-2.95.33-3.94 0a3.9 3.9 0 0 0-3.41.49c-.5.33-.94.7-1.51 1.1-.17.1-.62.3-1.1.64-1.03 1.67-3.52 5.95-4.93 7.04-.99.77-3.12 2.56-3.76 4.09-.41.99-1.98 3.13-2.25 4.27-.32 1.3-.67 2.77-.14 4.46 1.38-.13 3.84-2.05 4.3-2.93 0-1.1-.42-3.27.31-4.28.17-.22.64-.78.89-.9-.34-.22-.6-.8-.43-1.14.04-.09.17-.17.27-.07-.38.6.53 1.16.66 1.25.7.54 2.46-2.52 2.8-3.13.61-1.11 2.06-4.37 3.16-4.55-.09-.22-.88-.52-.88-.68 0-.12.1-.1.19-.1.24.15.59.26 1.22.25 1.6-.02 3.64-1 4.83-1.94.08-.06 1.03-1 1.01-.5a6.04 6.04 0 0 1-1.17 1.18c.7.94 3.8 2.03 4.3 2.15 1.56.37 4.25.6 5.7.65.4.01 1.08.42 1.6.58.6.2 2.35.36 2.98-.08.34-.15 2.49-1.14 2.73-1.32.29-.22.66-.47.95-.62.27-.13.48.07.23.24-.51.39-1.47 1.07-1.94 1.37.23.05 1.33-.21 2.05-.53.12-.05.2.07.21.08-.13.55-1.9.81-2.44.85 1.69 1.57 7.24 3.42 8.45 3.7l-.58.36a26.83 26.83 0 0 1-8.74-3.98c-.57.12-1.18.62-1.75.62-.66 0-1.32-.01-1.88-.15-.94-.2-1.12-.71-3.97-.8-3.6-.1-5.53-.71-8.48-2.81-1.03.87-3.2 1.4-4.04 1.58-1.91 1.4-2.2 3.07-3.12 4.57-.43.73-1.67 4.27-3.95 3.59-1.27 1.1-.78 2.88-.63 4.63-.42 1.43-4.07 3.78-5.27 3.38-.34-.4-.47-2.78-.32-3.4.82-3.53 1.59-3.85 2.14-4.82.4-.68.59-1.27.9-1.77 1.26-2 2.57-2.62 4.26-4.32.44-.43 1-1.34 1.43-1.96.75-1.09 1.35-2.2 1.95-3.08 1.1-1.61 1.5-1.83 2.21-2.26.9-.54 1.77-1.45 2.86-1.62a4.47 4.47 0 0 1 1.37.01c.5.15 1.1.27 1.64.3.61.03 1.33-.02 1.95-.08.67-.06 4.51-.49 5.07-.5a5.77 5.77 0 0 0 1.83-.28c.36-.12.74-.33 1.1-.4a6.53 6.53 0 0 0 3.02-1.5c.49-.36 1.67-.07.72.14-.63.15-2.64 1.4-.55 1.24.17-.02.02.18-.03.19-.98.14-4.3.4-4.67 1.02z"/>
	<path d="M27.85 213.2s.02-.05.07-.05c.31.03.78.48 1.49.5.44.02 1 .02 1.39-.1.64-.17 1.31-.9 2.16-.9.48 0 .49.36.28.3-.49-.13-.87.12-1.23.3-.67.34-1.21.63-2.05.65-.87.03-2.1-.26-2.11-.69zm7.41 1.43v.13c.52.35 1.95.9 2.95 1.39.22.1 1.7.73 1.8.64.25-.2-1.55-.76-2.34-1.14-.82-.4-2.21-1.17-2.41-1.02zm.96-50.73-1.15-.12c2.12.55 3.32 2.33 4.76 3.75.58.59 1.82 1.9 2.7 2.2.4.14 2.14-.03 2.36-.6l-.2-.3-.4.02c.04.53-1.32.82-1.9.46-1.3-.8-1.6-1.27-2.7-2.37-1-.99-2.09-2.56-3.47-3.04zm4.13 16.6c.04.07.1.26.05.28-.05.02-.16-.2-.18-.24a.4.4 0 0 1-.07-.18c0-.14.15.07.19.13zm6.51 9.13-.58-.66c-.38-.4-1.88-2.4-2.37-2.96l-.26.47c.82 1.42 1.46 2.84 3.21 3.15zm13.48 31.5-.53-.66c-5.33-.46-9.86-.67-13.79-1.61l-.6.35c4.83 1.55 9.99 1.27 14.92 1.93z"/>
	<path d="m57.31 217.97.43.14-.02.42c1.9.6 3.61 3.25 4.45 4.67.4.68 3.03 4.7 3.86 5.3a23.25 23.26 0 0 1 5.3 5.13c1.1 1.51 3.21 4.32 5.26 4.86-.07.9 2.93 5.24 2.89 7.24.17 1.61-.37 5.13-.59 6.94-.15 1.4-1.5 3-1.7 3.64-.68 2.12-3.32 2.8-4.47 3.84-1.15 1.05-2.59 2.78-2.82 4.47 1.7.09 4.18.37 6.32-.2.44-.78.6-1.8.6-2.39.05-1.9.57-2 .94-2.44.84-1 1-.8 2.66-.88a2.3 2.3 0 0 0 2.05-2.33c.05-2.42-.52-4.88-.52-7.25 0-2.87.36-6.09 1.34-9.43.16-.56-.35-2.16-.73-2.9-.78-1.33-1.71-1.73-2.38-2.54-1-1.17-2.5-3.06-1.2-4.77.24-.32-.06-1.36.32-1.81 2.2-2.66 2.46-3 2.82-3.53 2.1-3.05 3.86-9.52 2.96-13.27-.88-3.65-3.75-9.66-6.74-11.15-3.59-1.79-5.27-1-8.63-.8-2.54.13-4.25-.38-6.5-.69l1.36-.51c5.3 1.73 8.85-1.58 14.22 1.27 2.9 1.54 5.4 6.99 6.22 9.09 1.42 3.66 1.15 5.66.58 9.1-1.12 5.53-3.52 8.34-4.2 9.23-1.43 1.9-1.63 1.15-1.63 3 0 .8-.74 1.17-.54 2.08.35 1.6 1.94 2.7 3.14 3.83.71.66 1.92 2.5 1.58 4.36-.54 2.84-1.18 4.82-1.33 8.37a40.8 40.8 0 0 0 .2 5.3c.09.9.11 1.91.11 2.84a4 4 0 0 1-.73 2.2c-1.37 1.4-2.6.54-3.41.97a2.6 2.6 0 0 0-1.12 1.43c-.13.52-.22 1.25-.33 2.08-.1.87-.46 2-.65 2.05-1.57.44-5.64.57-7.63-.07.66-1.93 1.7-4 3.42-5.27 1.36-1 2.82-1.56 3.4-2.35 1.72-2.38 1.93-3.09 2.36-4.07.27-1.68 1.1-6.56.49-8.2-.62-1.69-1.47-4.22-2.67-5.75a17.42 17.43 0 0 1-2.95-2.5c-1.3-1.37-2.98-4.04-4.46-5.4-1.09-1.07-3.44-2.69-3.9-3.3-.91-1.19-2.02-2.5-2.73-3.83-1.18-2.22-2.49-4.37-4.68-5.57l-.02-.65z"/>
	<path d="M84.06 210.9c-.06 2.22.11 5.26-.3 7.1a19.2 19.2 0 0 1-1.94 4.7c-1 1.8.4.2 1.07-1.13.52-1.03 1.1-2.69 1.4-4.45.15-.85.33-4.76-.23-6.23zM69.6 199.61c-.15-.13-.41.02-.63.05-.33.04-.44.09-.7.12-.07 0-.32 0-.08.12s.67 0 .88-.03c.06-.01.54-.14.53-.26zm-3.26.19c.07.14.36.25.81.29.18.01.37 0 .56 0 .22 0-.03-.17-.1-.19a4.35 4.35 0 0 0-1.27-.1zm14.03.97.64.66c3.5.11 8.38-.04 11.02 2.74 1.56 1.64 3.03 3.55 3.53 5.75.29 1.22.53 2.41.65 3.69.02.23.22 2.17.19 3.06a18.82 18.83 0 0 1-.8-2.75c-.21-1.2-.46-2.41-.72-3.62-.33-1.42-1.69-4.43-3.17-4.93 2.43 2.07 3.23 6.14 3.65 8.91a10.24 10.25 0 0 0 1.1 3.66c.75 1.25 1.7 2.44 3.29 2.2.05.43-.52 1-.77 1.19-.28.2-1 .26-1.38.2-1.46-.22-1.7-1.67-2.07-2.57a22.06 22.07 0 0 1-.83-3.76 12.87 12.88 0 0 0-1.13-4.13c-.06-.12-.96-1.94-.88-1.06 1.8 2.72 1.78 6.42 2.2 7.81.48 1.54.92 4.51 3.62 4.27 1.2-.1 1.92-1.47 2.08-2.56-4.24.14-3.36-3.1-3.84-6.74-.3-2.2-.62-4.53-1.74-6.2-3.82-5.71-7.2-5.4-14.64-5.82zm-10.33-1.13c1.21-.51 2.27-.38 3.44-.29.95.08 2.63.66 3.4 1.2.07.06-.26.02-.3.01-1.54-.51-2.34-.88-3.66-1a8 8 0 0 0-1.78-.02c-.22.03-.99.22-1.1.1z"/>
	<path d="m82.54 203.6-.28-.52c1.98.5 3.74 1.45 4.75 2.81a10.77 10.78 0 0 1 1.86 5.35c.34 5.7-1.44 11.58-2.48 17.54-.6 3.46-.79 7.18 2.12 11.2 1.98 2.75 3.63 6.9 3.21 10.3.9-.44 3.22-3.06 3.4-5.18.17-1.94.06-4.07-.11-4.87-.27-1.23-1.1-2.93-1.5-4.08-.83-2.34-1.85-5.53-1.51-8.24.07 1.11.34 2.42.5 3.46a17.06 17.07 0 0 0 1.67 5.3c.44.83 1.28 2.1 2.37 2.1a2.86 2.86 0 0 0 1.88-.95c-1.13-.19-2.12-1.27-2.52-2a19.4 19.41 0 0 1-1.11-2.87c-.26-1.03-.6-5.14-.62-6.47-.03-3.46.12-6.68-1.23-11.84a13.18 13.19 0 0 1 1.03 3.32c.34 2.7.56 5.6.56 8.38 0 2.42 1.02 4.81 3.56 4.98-.99-.43-2-3.96-2.01-5.13-.02-1.48-.04-3.55.82-4.66l.41.14c-.26.5-.52 1.4-.54 2.22-.07 3.06.17 6.3 2.48 7.44-1.55 1.36-3.51-.18-4.19-1.03 0 2.36 1.29 6.92 4.28 6.92-.26 1.9-2.56 2.63-4.06 1.84.85 1.9.77 4.55.32 6.8-.26 1.33-2.98 5.5-4.57 5.44 1.1-6.3-3.23-9.75-4.98-14.91a12.9 12.91 0 0 1-.56-5.9c.25-1.98.97-5.43 1.78-9.2 1.62-7.54 2.2-16.28-4.73-17.7z"/>
	<path d="m93.28 249.08-.44.4c.1-3.47-1.76-7.18-2.7-8.74-.97-1.65-3-5.1-3.17-6.96-.42-4.51.45-8.03 1.54-11.51-.54 2.5-1.69 7.14-1.34 11.03.24 2.63 2.71 6.23 3.8 8.4 1.23 2.45 2.16 4.23 2.31 7.38zm-1.32-28.7c.05-.65.12-1.25-.1-1.94-.1.52.06 1.25-.13 1.79-.07.2.2.24.22.15zm-4.58-14.72c.59.28 1.76 3.08 1.94 3.8.48 1.99.76 3.95.76 6.04.2-3.58-.17-4.46-.37-5.61-.22-1.4-1.94-4.86-2.33-4.23zm-5.34-3.2.34.61c.7-.05 2.08.42 2.72.74.46.22 1.62 1.13 1.46.74-.11-.24-1.77-1.07-2.14-1.2-.66-.22-1.95-.52-2.38-.89z"/>
	<path d="m81.95 202.47-.61-1.16c.16.05.23.56.82.76.79.27 1.9.57 3.04.98 1.8.62 3.65 1.6 4.16 2.59.1.17-1.03-.8-1.21-.91a14.22 14.22 0 0 0-6.2-2.27zm-16.73-4.12c-.35 1.66.1 3.7.47 5.35.5 2.33 2.37 7.7 3.1 10.1.6 2 .66 6.27.34 9.15-6.05-2.57-18.7-7.17-25.47-9.85a12.03 12.03 0 0 1-4.1-2.55c-1.04-1.12-1.94-2.58-1.97-4.13-.06-2.13 2.2-4.51 2.94-5.37 2.58-2.97 6.8-8.44 5.92-11.92l4.34 5.85 8.67 3.74 5.76-.37z"/>
	<path d="M64.65 198.26c-.61 3.42 1.5 9.38 2.52 12.13 1.47 3.93 1.58 7.14 1.49 11.88-8.79-4.19-22.95-8.32-26.75-10.76-1.19-.76-3.33-2.54-3.62-4.57-.29-1.96 1.2-3.94 3.17-6.04a27.3 27.32 0 0 0 3.07-4.1c1.5-2.4 2.35-3.54 2.93-6.74l5.95 7.16 11.24 1.04z" fill="#d32820"/>
	<path d="m64.32 196.81-3.7.03-10.26-3.96-2.84-3.37c.5 2.21-.66 5.29-1.27 7.02-.94 2.62-2.86 5.74-3.13 8.55-.32 3.32.37 5.54 3.94 7.6 4.83 2.77 9 1.57 10.73.12 4.02-3.4 4.46-11.75 6.53-15.99z"/>
	<path d="m63.07 196.8-14.98-4.9c-.44 3.9-3.76 8.94-4.46 13.25-.45 2.8.77 5.97 5.2 8 3.8 1.74 7.3.49 8.99-1.29 3.4-3.55 4.46-11.22 5.25-15.06z" fill="#fff500"/>
	<path d="M52.18 211.8c-1.05 2.72-4.28 6.22-6.7 7.8a15.37 15.37 0 0 1-4.97-1.08c3.43-2.27 5.49-4.44 7.19-7.88 1.18.38 3.16 1.38 4.48 1.16z"/>
	<path d="M45.31 218.94a22.6 22.61 0 0 0 6.14-6.77c-.9-.15-2.66-.68-3.42-1.02-1.28 2.75-4.68 6.36-6.23 7.17 1.26.35 2.27.53 3.51.62z" fill="#fff500"/>
	<path d="m48.9 211.23-.24-.12c-1.48 2.95-2.3 4.01-4.13 5.75-.04.04.1.16.21.06 2.96-2.67 3.72-4.78 4.15-5.69zm-7.02 7.63-.46-.12a7.71 7.71 0 0 0 2.74-1.56c.05-.05.15.1.02.2-1.65 1.3-1.34 1.2-2.3 1.49zm25.45-23.04c.03.73 0 1.14-.92.94-.95-.2-2.63-.45-3.48-.01-.7.36-1.33.7-1.68 1.98 1.1-1.29 1.93-1.94 3.76-1.9.55 0 1.07.29 1.91.25.7-.03.63-1.1.4-1.26zm-18.34-4.71c0-.69-.38-1.6-.54-1.8-.3-.4-.9-1.02-1.46-1.02.22-.37 1.37.4 1.67.96.3.58.54 1.17.54 1.81 0 .17-.2.13-.22.05z"/>
	<path d="M60.88 195.45c1.7-.88 3.03-1.61 5.22-1.67 3.78-.1 4.35 4.2 1.22 4.23-1.16.01-3.3.1-3.77.5-.96.83-3.06 8.21-3.89 9.3-2.31 4.74-6.43 5.04-10.99 3.48-7.03-2.4-3.1-9.97-1.85-13.7.86-2.57 1.08-3.79.95-6.04-.09-1.74-3.62-3.33-.94-4.57.8-.36 2.14.08 2.67 1.15.76 1.53.86 3.01 2.6 4.16 2.22 1.47 5.96 2.73 8.78 3.15z"/>
	<path d="M50.32 191.79c-.3-.2-.4-1.2-.59-1.69-.47-1.26-.8-2.39-2.24-2.69-.52-.1-1.2.19-1.18.8.03 1.21 1.49.95 1.95 3.4a10.3 10.3 0 0 1-.42 4.84c-1.91 5.16-5.3 12.23.98 14.38 5.47 1.87 8.72.44 10.88-4.1 1.42-2.99 2.74-8.43 3.7-8.94.2-.1.58-.34 1.22-.3 2.57.14 4.6-.3 3.96-1.67-.92-1.9-4.48-1.32-5.66-.64-.43.24-.83.55-1.38.9-3.8-.66-7.14-1.55-11.22-4.29z" fill="#fff500"/>
	<path d="M51.78 193.93c1.06.55 2.27 1.2 3.55 1.64.36.11.96.34 1.34.38.01 0 .73-.08.35-.13-1.34-.2-4.27-1.56-5.12-1.97-.1-.05-.1.07-.12.07zm1.55 1.45c.68.42 1.41.77 2.33 1.06.24.07.63.2.88.22 0 0 .48-.1.24-.13-.88-.13-2.7-1-3.34-1.23-.06-.02-.1.08-.1.08zm1.1 1.13c.68.42.54.32.88.46.22.1.62.2.87.23 0 0 .48-.08.24-.13-.87-.2-1.2-.42-1.84-.65-.07-.03-.13.08-.15.1zm3.71-.21c.03-.03.11-.08.11-.1a1.8 1.8 0 0 0-.46-.14c-.05-.01-.1.07-.14.1-.03.03.42.19.5.13zm-.51.64c.02-.03.11-.08.1-.1a1.55 1.55 0 0 0-.44-.15c-.05-.01-.11.1-.15.13-.03.03.41.18.49.12zm-.44.51c.03-.03.12-.08.11-.09a1.46 1.47 0 0 0-.44-.16c-.04 0-.12.08-.16.12-.03.02.42.18.5.13zm-.47.56a.61.62 0 0 0 .11-.13 1.8 1.8 0 0 0-.46-.15c-.05 0-.1.08-.14.1-.03.04.42.23.49.18zm-.85-.31a.56.56 0 0 0 .17-.11 1.11 1.11 0 0 0-.37-.13c-.05 0-.1.1-.15.13-.03.02.24.12.35.1zm2.58-1.31c.43.19.93.33 1.3.41 0 0 .36-.1.23-.14-.61-.2-.93-.24-1.4-.4-.04-.01-.13.12-.14.13zm-.45.64c.49.15.72.24 1.1.33 0 0 .38-.1.24-.15l-1.19-.3c-.05-.01-.14.11-.14.12zm-.35.56c.45.14.35.1.7.2 0 0 .37-.08.24-.13a4.37 4.37 0 0 0-.84-.2c-.04 0-.1.13-.1.13zm-.49.57c.46.15.34.12.5.15 0 0 .21-.14.16-.15a3.7 3.7 0 0 0-.55-.14c-.05 0-.1.13-.1.13zm-5.41 14.28.1-.14c.52.13 2.1.25 2.64.03.02 0-.13.2-.3.22-.64.1-1.87.05-2.44-.1zm-.38.71.11-.19c.5.14 2 .26 2.53.04.01 0-.12.2-.29.23-.64.12-1.78.08-2.35-.08zm-4.09-1.37-.12.14a3.22 3.22 0 0 1-.76-.61c.28.1.66.4.88.47zm.25-.6-.1.16a4.85 4.86 0 0 1-1.12-.93c.28.12 1 .7 1.22.77zm16.81-13.35c-.15.59-.27 1-.51 1.52-.06.12-.1.55 0 .35.14-.27.66-1.43.66-1.72 0-.07-.04-.14-.15-.15zm-.54 2.34c-.06.4-.19 1.44-.06 1.28.04-.05.3-1.36.06-1.28zm.14 2.17c0 .29.55 3.6.77 3.13.1-.21-.63-2.86-.77-3.13zm2.16 7.74c-.26 0 .16.67.25.48.06-.1-.14-.48-.25-.48z"/>
	<path d="m30.3 238.84.14-.43c6.89 1.68 13.64 4.47 23.25 8.25.1-3.34-.16-6.6-.44-9.8.86 1.08 1.07 7.73.86 10.5-10.41-4.28-17.65-6.81-23.8-8.52z" fill="#191919" stroke="#000" stroke-width=".08" transform="matrix(.73214 0 0 .7325 28.12 39.72)"/>
	<path d="m47.41 190.25.68 2.02c-.37.7-2.46 5.03-4.52 7.59a60.1 60.1 0 0 0-3.91 5.13c-.72 1.16-.51 2.05-.12 2.7.1.18-.06.13-.07.13-.99-1.3-.32-2.83.66-4.1 1.32-1.7 2.72-3.26 3.88-5 1.76-2.65 3.78-5.9 3.4-8.46zm-7.62 17.95c-.05.11.15.46.24.43.08-.01-.17-.6-.24-.43zm.49.89c-.07.15.59.88.73.97.08.05.3.13.16-.03-.1-.13-.62-.74-.82-.95-.03-.04-.04 0-.07 0zm6.36 3.92-.24.2c-1.43-.58-3.83-1.66-4.1-2.03.07-.03.09-.1.17-.05a27.3 27.32 0 0 0 4.17 1.88zm16.1 9.37c.1.27.27.77.43 1.1.32.65 1.27 1.64 1.8 2.22a6.4 6.4 0 0 0 1.09.98c.12.08.24 0 .1-.14-.66-.66-2.1-2.12-2.73-3.1-.1-.18-.46-.84-.7-1.06z"/>
	<path fill="#56876c" d="m83.48 151.2-2.78-3.4-2.14 3.28.41 1.8.1 2.87.66 1.97 1.27.56 1.31-.72.7-2.23v-1.97l.47-2.17z"/>
	<path d="m78.67 151.16-.23-.35a17.48 17.5 0 0 0 2.24-3.46c.78 1 2.09 2.87 2.9 3.7l-.3.5a41.42 41.44 0 0 1-2.53-3.49c-.35.7-1.3 2.33-2.08 3.1z"/>
	<path d="m80.65 148.08.26-.02.37 9.81-.26.01-.37-9.8z"/>
	<path fill="#56876c" d="m66.4 159.66-4.12 1.5 2.39 3.1 1.84.21 2.73.87 2.08.03.95-1.03-.25-1.47-1.87-1.4-1.86-.65-1.9-1.16z"/>
	<path d="m64.79 164.2-.41.1a17.5 17.5 0 0 0-2.53-3.26c1.22-.4 3.4-1.03 4.45-1.53l.37.46c-1.1.4-3.08 1-4.12 1.24.54.55 1.77 1.99 2.24 2.98z"/>
	<path d="m62.52 161.3.08-.25 9.38 2.9-.08.25-9.38-2.9z"/>
	<path fill="#56876c" d="m69.18 178.58.3 4.37 3.64-1.43.7-1.7 1.6-2.38.6-2-.71-1.2-1.49-.16-1.85 1.4-1.15 1.61-1.64 1.49z"/>
	<path d="m73.07 181.4-.01.42c-1.23.26-2.75.95-3.83 1.51-.05-1.27-.04-3.55-.22-4.7l.53-.22c.1 1.16.1 3.24.05 4.3.68-.36 2.4-1.14 3.5-1.32z"/>
	<path d="m69.68 182.76-.23-.14 5.4-8.2.21.14-5.38 8.2z"/>
	<path fill="#56876c" d="m88 181.65 4.2 1.22-.08-3.92-1.37-1.25-1.69-2.31-1.67-1.25-1.37.26-.66 1.34.69 2.22 1.11 1.63.84 2.06z"/>
	<path d="m91.98 178.95.39.16c-.17 1.24-.04 2.9.11 4.12-1.21-.4-3.35-1.19-4.49-1.4l-.02-.6c1.12.33 3.07 1.03 4.04 1.44a14.73 14.74 0 0 1-.03-3.73z"/>
	<path d="m92.1 182.6-.22.17-5.86-7.87.22-.17 5.85 7.88z"/>
	<path fill="#56876c" d="m96.68 164.85 2.49-3.62-3.74-1.15-1.62.9-2.73.88-1.7 1.2-.18 1.38 1.05 1.05 2.33.05 1.9-.55 2.2-.14z"/>
	<path d="m95.37 160.22.28-.33c1.13.56 2.75.96 3.95 1.2-.76 1.02-2.18 2.8-2.75 3.81l-.56-.15a43.3 43.3 0 0 1 2.64-3.4c-.76-.14-2.6-.6-3.56-1.13z"/>
	<path d="m98.89 161.26.09.25-9.32 3.08-.08-.26 9.3-3.07z"/>
	<path d="M67.14 164.45c-3.8-1.14-4.98 1.19-4.92 4.4.04 1.54 1.76 6.96 2.92 8.52 1.8 2.43 4.12 1.76 5.74.06.81-.86 2.17-3.98 4.1-2.94 2.03 1.1-.52 4.02-.98 4.8-.76 1.3-1.96 2.96.3 5.05 1.56 1.46 8.28 1.4 9.4 1.24 2.78-.38 5.55-1.83 4.09-5.04-.68-1.5-3.61-4.52-1.66-5.64 2.5-1.45 4.17 4.01 6.11 4.35a3.76 3.77 0 0 0 3.52-1.18c2.13-2.54 3.58-7.58 3.54-10.59-.02-1.43-1.53-2.87-2.93-2.85-1.52-.25-5.45 2.16-6.52.05-1.39-2.78 5.05-2.63 6.2-5.3 1.69-3.85-7.41-9.7-9.78-9.78-1.73-.06-3.45 1.15-3.45 3.67 0 1.73.04 4.62-1.74 4.62-1.97-.03-1.9-2.58-1.9-4.62 0-2.65-1.4-3.83-3.6-3.71-3.29.17-7.14 3.49-9.25 5.82-1.27 1.4-1.1 3.4.41 4.7 1.96 1.71 5.87 1.71 5.18 3.99-.61 1.97-3.25.9-4.78.38z"/>
	<path d="M67.63 165.08c-3.64-1.47-5.02.37-4.87 3.72.07 1.48 1.54 6.74 2.91 8.28 1.91 2.14 3.75 1.44 5.4-.51.72-.86 2.16-3.6 4.13-2.36 2.35 1.47-.08 3.99-.5 4.74-.69 1.27-2.37 2.8-.23 4.8 1.49 1.38 8.08 1.44 9.15 1.3 3.21-.43 5.03-1.82 3.49-4.97-.69-1.39-3.41-4.09-1.28-5.54 2.64-1.8 4.08 2.41 5.81 3.84 1.28 1.06 2.88.32 3.54-.49 1.99-2.45 3.73-6.96 3.53-10.47-.07-1.36-1.56-2.53-3.07-2.32-1.44-.22-5.38 2.27-6.24-.27-1.26-3.74 5.11-2.94 6.22-5.46 1.6-3.67-7.37-9.18-9.62-9.26-1.65-.05-2.84 1.51-2.84 3.9 0 1.64.02 4.32-2.1 4.36-2.1.04-2.28-2.45-2.28-4.38 0-2.52-.87-4-2.97-3.9-3.12.17-7.1 3.38-8.95 5.7-1.2 1.5-1.1 3.25.7 4.44 2.03 1.34 5.65.94 4.8 4.02-.58 2.05-3.28 1.31-4.73.83z" fill="#fff500"/>
	<path d="M68.97 160.22c-.04.01-.14-.05-.22-.08-2.93-1.42-2.38-2.7-.85-3.5 1.39-.73 2.66-.56 4.08-1.73 1.16-.96 1.74-2.47 2.88-3.32 1-.74 3.1-.94 2.86 2.8 0 .04 0 .08-.03.13-.04.1-.19.06-.25-.01-.18-.26-.12-1.05-.14-1.44-.06-1.4-1.34-2.43-2.81-.54-1.9 2.43-2.21 3.28-5.27 4.03-.93.23-2.1.65-2.05 1.7.05.95 1.6 1.43 1.83 1.74.04.08.02.22-.02.22z"/>
	<path d="m81 177-.25.65c-4.62-2-8.73 1.5-8.74 5.99h-.88c.12-5.82-3-7.7-8.32-6.58l-.25-.79c5.24-1.24 6.33-5.49 3.68-9.9l.64-.52c3.09 4.53 7.03 4.22 10.61.39l.67.63c-3.01 3.45-2.47 8.1 2.85 10.13z" fill="#d32820" stroke="#000" stroke-width=".71" transform="matrix(.73214 0 0 .7325 28.12 39.72)"/>
	<path d="M71.91 172.04a2.03 2.03 0 0 1 0 4.05 2.03 2.03 0 0 1 0-4.05z" fill="#fff500" stroke="#000" stroke-width=".71" stroke-linecap="round" transform="matrix(.73214 0 0 .7325 28.12 39.72)"/>
	<path d="M70.44 176.18c-.02.05-.1.13-.15.19-2.27 2.34-3.3 1.42-3.6-.3-.26-1.53.3-2.7-.37-4.4-.55-1.4-1.8-2.42-2.25-3.78-.4-1.18.07-3.24 3.54-1.83.05.02.09.02.13.06.08.07 0 .2-.1.23-.3.1-1.03-.22-1.4-.32-1.37-.36-2.73.53-1.4 2.51 1.72 2.56 2.42 3.13 2.19 6.27-.08.96-.04 2.2.98 2.48.9.25 1.85-1.08 2.22-1.2.08-.02.22.04.2.09zm15.78 3.72c.05.03.09.13.13.2 1.5 2.9.29 3.6-1.43 3.31-1.54-.24-2.45-1.15-4.3-1.06-1.5.07-2.87.93-4.29.92-1.24 0-3.04-1.12-.6-3.96.03-.03.05-.07.1-.1.1-.04.2.08.19.17 0 .32-.53.91-.75 1.24-.8 1.17-.38 2.74 1.93 2.12 2.97-.8 3.73-1.29 6.63-.06.88.38 2.06.75 2.66-.13.52-.78-.42-2.1-.41-2.48 0-.1.1-.2.14-.17zm8.14-14.02c.03-.04.15-.05.23-.07 3.2-.57 3.52.8 2.74 2.35-.7 1.39-1.83 2-2.3 3.78-.37 1.45.04 3.03-.39 4.38-.37 1.2-1.96 2.58-3.95-.6-.02-.03-.05-.06-.06-.12-.02-.1.12-.16.2-.13.31.1.72.78.96 1.08.88 1.1 2.52 1.18 2.6-1.21.11-3.08-.12-3.95 1.92-6.35.62-.73 1.32-1.76.66-2.58-.59-.74-2.12-.22-2.49-.35-.09-.02-.16-.14-.12-.18zM83.87 153.8a.67.67 0 0 1 .02-.23c.43-3.24 1.82-3.1 3.06-1.9 1.12 1.09 1.35 2.36 2.91 3.34 1.27.8 2.89.88 4.05 1.7 1.02.72 1.86 2.66-1.77 3.6l-.14.02c-.1-.02-.12-.17-.06-.25.2-.26.96-.44 1.32-.58 1.32-.5 1.89-2.04-.37-2.85-2.89-1.04-3.79-1.08-5.45-3.75-.51-.82-1.27-1.8-2.26-1.42-.88.33-.86 1.96-1.09 2.27-.05.07-.2.1-.22.06zm10.06 94.39-.63.81c.95-2.13-.65-6.69-.82-7.2-.72-2.04-2.01-4.99-2.73-7.09-.96-2.84-1.59-7.8-.52-10.51-.42 4.03-.51 6.56 1.06 11.02a166.49 166.57 0 0 0 2.27 6.04c.27.67 1.52 3.8 1.37 6.93zm-28.23 7.89c-.08-.13-.4 0-.58.07-.34.1-.48.27-.34.27.06 0 .23-.1.44-.17.26-.07.53-.11.49-.17zm.36.42c-.14-.1-.36.1-.5.24-.22.2-.25.4-.13.33.05-.02.1-.13.27-.26.22-.17.42-.28.36-.31zm.37.57c-.15-.08-.3.09-.43.23-.2.23-.27.4-.17.53.04.04.12-.26.27-.42.19-.21.4-.31.33-.34zm.27 1.04c.2.05.25-.13.31-.31.1-.28.18-.56 0-.59-.06 0-.08.25-.16.45-.11.26-.25.44-.15.45zm14.77-2.96c-.35-1.51-.35-5.03-.34-5.4.04-1.16-.03-2.9.4-3.85.26.07-.06 1.08-.09 1.78a75.18 75.21 0 0 0-.07 5.62c0 .27.04.8.1 1.85zm.48-17.71c-.38 0 .08.74.12 1 .07.5.05 1.18-.1 1.63-.13.41-.39.83-.52 1.22-.11.35.3-.08.37-.18a3.66 3.66 0 0 0 .63-1.86c.04-.33-.13-1.8-.51-1.8zm-58.11-59.28c-.22.09.18 1.58.26 1.87.29.97.24 5.16-.37 6.23-.23.4.1 1.09.33.25.43-1.5.58-2.96.58-4.57 0-.51-.33-3.77-.8-3.78zm-9.46-6.3c.37.01.46-.29.6-.29.03 0-.24.42-.6.42-.3 0-.56-.16-.5-.28.01-.07.3.15.5.16zm1.06-1.7-.02-.37c.16.07.39.13.62.1.34-.04.62-.1.9-.28.15-.1.45-.37.41-.04-.02.17-.6.46-.77.5-.3.08-.82.12-1.14.09zm-.37-2.81c1 0 1.7-.8 1.86-.64.06.08-.84.9-1.89.89-.5 0-1.47-.74-1.36-.88.09-.1.81.62 1.4.63z"/>
	<path d="m10.06 163.92.36.49c-.22.44-.3 1.17-.62 1.88-.18.42-.42.7-.7 1.15-.15.25-.08.86.02 1.25s.26.58.28 1.22c.04 1.73-.67 8.73-.69 10.43 0 1.51-.38 3.92.37 4.87.58.74 1.57 1.77 2.55 2 .06.02.57.14.58.06.1-1.08.6-2.76.93-3.36.6-1.05 1.43-.85 1.03.82-.08.23-.64 2.38-.52 2.46.05.03 2-1.61 2.71-2.16.3-.22-.24-2.68-.19-3.37.05-.73 1.73-3.05 2.23-4.45 3.94-1.78 3.94-3.43 4-8.08 0-.49-.1-1.13-.01-1.24.03-.04.14.15.17.54.18 1.84.45 5.86-.92 7.43-.39.44-2.28 1.54-2.86 1.78-.24.68-.54 1.26-.84 1.87-.34.69-1.2 1.8-1.19 2.64.01.96.41 1 .17 3.02-.08.71-1.04.92-1.7 1.55-.8.75-1.38 1.43-2.01 1.13-.2-.1-.06-.66-.27-.67-.25 0-.17.48-.43.76-.17.2-.7.04-1.2-.2-2.39-1.08-3.18-2.53-3.26-4.49-.07-1.81.03-3.95.08-5.4.08-1.84.8-6 .59-8-.15-1.28-.7-2.1.1-2.97.48-.52.95-2.1 1.24-2.96z"/>
	<path d="M13.82 169.37c-.21.08-.5.28-.66.44-.24.24-.36.42-.23.76.07.17.1.33.3.52.32.35 1.6.3 1.97-.2.23-.34.69-.8.2-1.28-.33-.33-1.07-.4-1.58-.24z"/>
	<path d="M14.05 169.85c-.17.01-.33.26-.35.42-.01.22.07.41.32.44.22.02.32-.26.34-.41.02-.19-.12-.42-.31-.44z" fill="#fff"/>
	<path d="m12.24 158.74-.59.24c-.05-1.48 1.19-4.62 2.22-5.3a9.74 9.74 0 0 0 .93 3.96l-.55.17a10.67 10.68 0 0 1-.68-3.1 6.64 6.64 0 0 0-1.33 4.03zm7.74 4.48c.04-.45-.26-1.82-.26-2.81-.01-1.18.3-2.82.12-3.17-.59-1.15-1.9-3.63-3.06-4.25-.21.62-.32 1.97-.6 2.6-.46 1.05-1.4 3.23-.73 5.01.17.45 1.05 1.72 1.29 2.18.16.32.4.7.52 1.04.12.32.39 1.16.39.17 0-1.86-2.08-2.6-2.02-4.78.07-2.48 1.32-3.6 1.4-5.48 1.2 1.21 2.63 3.36 2.34 4.93-.39 2.2.35 4.74.6 4.57z"/>
	<path d="M17.27 155.56a8.9 8.9 0 0 1-.45 2.46c-.29.69-.48 1.4-.36 2.24.05.32.44.98.48.78.03-.2-.44-.98-.2-1.83.21-.81.48-1.71.7-2.5.13.06.86 1.95.88 2.66.01.45-.01 1.24-.01 1.66 0 .25-.02 1 .07 1.17.11.25.14-1.65.15-1.84.06-1.2.17-1.64-.32-2.81-.26-.64-.52-1.46-.94-1.98zm-1.71 2.06.08-.33c-1.77.36-5.38 1.78-5.88 3.52-.5 1.7-.1 2.78.52 3.59.26.34 1.11.58 1.51 1.2.2.32.27.34.14 1.5a8.4 8.4 0 0 0 2.1-1.46c.2-.29.28-1.15.2-1.58-.27-1.56-1.68-2.4-.42-3.8l.1-.56c-1.12 1.07-1.28 1.8-.5 3.24.25.46.58 1.49.43 2.05-.2.7-.9.97-1.49 1.47.12-1.12-.42-1.42-1.52-2a1.18 1.18 0 0 1-.47-.52c-.83-1.83-.42-2.57-.05-3.3.99-1.91 4.09-2.85 5.25-3.02z"/>
	<path d="M14.33 157.84c.63 0 .93.3 1 .93.15-.8.31-1.07.19-1.37-.18.04-1.2.29-1.19.44z"/>
	<path d="m15.43 160.26.26.62c-.89 1.65.7 2.48.79 3.42 0 .04-.02.44-.04.42-.3-.3-.87-.79-1.26-1.09-2.4-1.84-1.8-4.32-.1-5.68l.22.2c-1.45.62-1.98 2.86-.7 4.46.22.3 2.29 2.5 1.32 1.04-.7-1.07-1.3-1.68-1.2-3.12.08.07.04.76.36 1.06.04-.29.33-.93.35-1.33z"/>
	<path d="M13.08 159.67c-.75.88-1.6 2.44.02 4.05-.84-1.95-.93-2.11-.02-4.05z"/>
	<path d="m14.5 158.6.7-.52a8.6 8.6 0 0 0-2 .8c-.68.34-1.47.86-1.93 1.37-.66.7-.95 1.48-.77 2.22.1 0 .14-.77.22-1.02.33-.91 2.53-2.64 3.79-2.85z"/>
	<path d="m13 166.15-.42.38c.22-.49.41-.9.26-1.35-.23-.7-.67-1.06-1.1-1.67-.72-1.04-.86-1.84.1-2.63.33.01-.33.7-.34 1.02-.02.7.47 1.4.95 1.9.24.23.59.85.68 1.16.05.2.06.46 0 .65-.02.06-.12.53-.14.53zm5.62 11.45-.06-.45c-.37.18-1.65.12-2.08.1-.24 0-.59.75-1.17 1.3.38.18.91-.77 1.13-1.02.13-.17.95.09 1.21.1.38 0 .66.05.97-.04zm-2.7 5.79c-.14.05-.14.73-.19.98-.03.2-.07.25-.26.42-.05.05-.35.24-.05.2.21 0 .45-.36.51-.65.03-.11.12-1 0-.95zm-6.27-1.1c-.05-.3.03-.4.1-.48.04-.04.21-.15.26-.05.06.07-.03.14-.07.16-.12.06-.17.15-.3.37zm.62-1.1c.53-.56 1.13.42 1.25.8.16.46.21 1.65.06 2.1-.16.45-.33.88-.93.9-1.17.05-1.33-1.18-.91-1.9.16-.25.44-.54.7-.66.1-.06.15 0 .1.11-.12.27-.66.64-.69 1.1-.04.79.13 1.05.68 1.12.9.1 1.1-1.8.76-2.68-.09-.22-.3-.72-.53-.83-.1-.04-.5-.01-.49-.07zm2.53 2.42c-.04.02-.1-.02-.12-.06-.11-.16.44-1.26 1.4-.96.64.2.77.88.77 1.42 0 .25-.13.05-.15-.07-.09-.74-.5-1.32-1.24-1.12-.41.11-.61.76-.66.78zm.49-1.36c.07-.21.28-.26.5-.24.1 0 .36.14.36.25 0 .1-.16-.03-.2-.06-.07-.05-.33-.05-.41-.02a.52.52 0 0 0-.15.08c-.06.06-.1 0-.1-.01zm4.28-11.3c-.59 1.26-2.23 6.2-3.1 6.1-1.1-.15-.37.26.05.22.78-.07 2.34-3.17 2.82-4.74.06-.18.6-1.58.22-1.58zm-4.17 1.62c-.46.53-.5 2.4-.5 3.53 0 .51-.46.5-.66.74-.33.38-.19 1.24-.96 1.6-.49.23.15.3.36.11.42-.38.57-.78.7-1.25.13-.5.75-.55.8-.89.03-.25.12-1.4.08-1.85-.04-.62.29-1.9.18-2zm-.1-3.51a2 2 0 0 1 .63-.36c.35-.12.6-.05.97 0 .33.04.28-.18.06-.3-.46-.21-1.47.03-1.65.66zm.35 2.12-.25-.07c.06.28 0 .53-.2.73-.05.06.04.18.1.11a1 1 0 0 0 .35-.77zm-1.2-1.46c.12.11-.01.33-.01.49 0 .44.06.51.24.86.14.3.07.35.01.52-.03.13-.13.05-.08-.17.03-.18-.37-.77-.4-1.12 0-.33.21-.61.25-.58zm9.87 4.28-.64 1.75c1.02-.62 1.74-2.86 1.81-3.29.06-.35.2-1 .1-1.02-.15-.04-.18.44-.25.64-.18.57-.37 1.32-1.02 1.91z"/>
	<path d="m21.68 175.28-.2.63c1.35-.76 2.14-1.75 3.15-2.88.14-.18-.1-.2-.3.01-.76.83-1.6 1.8-2.65 2.24zm-1.05-11.93c.04-.9-.53-1.61-.37-1.73.08-.07.71 1 .66 1.78-.04.53-.69 1.74-.78 1.56-.1-.17.45-.77.49-1.6zm-1.01.73c.16-.53-.15-.78-.04-.82.07-.03.33.55.2.93-.12.43-.56.71-.58.6-.02-.11.27-.22.42-.71zm.07-6 .12-.22c3.22.13 4.6-.73 7.94 1.95.1.08-.03.22-.15.14-.21-.1-.64-.51-1.32-.96a5.65 5.65 0 0 0-3.21-.95c-.68-.04-2.4.02-3.38.04zm.1.56-.13.2c1.9.34 2.8 1.1 3.78 2.77 0 0 .3.46.28.28-.69-2.12-2.45-2.96-3.93-3.25z"/>
	<path d="M24.6 163.41c.1-.97.2-1.87-.28-2.67.9.27.76 1.6.28 2.67z" fill="#fff"/>
	<path d="m21.84 175.52.43-.54c.95 2.29 1.03 5.26.76 7.96-.36 3.8-1.3 7.96-1.54 11.83-.22 3.36 1.86 8.26 3.5 10.78l-.92.13c.07-.15.13-.43 0-.64-2.03-3.46-4.18-6.48-2.7-14.55.7-3.84 2.38-10.93.47-14.97z"/>
	<path d="m10.97 208.1-.65.73c-2.05-.09-2.99 1.18-4.76 2.79-1.07.95-3.34 3.99-4.04 3.45-.68-.51-.64-.71-1.24-.04a3.2 3.2 0 0 0-.8 1.83c0 .75.16 1.48.12 2.27-1.19 1.4-3.75 3.03-5.85 3.18-.2-1-.4-2.66-.11-3.7 1.34-4.7 7.18-8.08 12.46-12.55 3.94-3.31 6.88-3.93 10.7-2.74 1.7.52 3.85.08 7.12.87l.55 1.22c-.7-.86-3.14-.92-5.5-1.15-1.85-.17-3.65-.92-4.67-1.07-2.48-.36-5.82 1.7-8.36 3.95.15-.18-1.83 1.68-3.53 2.8-1.06.72-1.87 1.56-2.44 1.81-.95.44-1.16.53-1.86 1.58-.74 1.11-3.32 2.68-3.88 5.79a6.3 6.3 0 0 0 .06 2.63c.88-.06 2.9-1.17 3.6-1.66 1.85-1.27.8-1.84 1.17-3.77.18-.91 1.1-2.66 2.09-2.37.5.15.55.92 1.16.3l4.42-4.47c.79-.66 1.23-1.09 2.29-1.26.8-.13 1.3-.1 1.95-.41z"/>
	<path d="M13.09 205.8c.12-.15.17.1.02.25-.22.23-1.95 1.62-2.44 1.6-.19 0-.07-.13 0-.14a7.8 7.8 0 0 0 2.42-1.7zm14.06-.64-.46.15c-.64-1.9-1.26-3.29-1.73-4.98-.3-1.08.5-2.51 1.24-3.09.53 0 .1.22-.03.4-.44.61-1.05 1.59-.9 2.34.42 1.98 1.03 2.97 1.88 5.18zm-18.7 3.64.61-.22c-.7-.22-1.13-.68-1.87-.31a9.51 9.51 0 0 0-2.2 1.63 33.97 33.99 0 0 0-1.71 1.82c-.07.12-.16.6.04.4.6-.61 1.43-1.57 2.05-2.23a4.83 4.83 0 0 1 2.14-1.47c.48-.16.73.13.94.38z"/>
	<path d="m7.64 208.23-.36.09c.2-.1.1-.4.29-.5.05-.02.07.25.07.41zm7.56 2.55c.17-.16.17.11-.02.28-.3.26-3.03 1.27-3.62 1-.22-.1-.09-.18 0-.17.86.11 3.18-.63 3.65-1.1zm-4.56 2.21c-.48-.36-2.98 4.28-3.46 5.42-.07.17.12.12.14.08.66-1.3 2.38-4.52 3.32-5.4.04-.03-.02-.08 0-.1zm-6.11 7.28c-.23-.24-1.43 1.29-1.59 1.84-.02.08.1.02.11 0a6 6 0 0 1 1.48-1.8c.02-.01 0-.04 0-.04zm-4.56-6.59c-.29-.25-1.54 1.53-1.68 2.17-.02.09.11.01.12 0a6.73 6.73 0 0 1 1.55-2.12c.02-.01 0-.03 0-.05zm.88.35h.3c-.05-.4-.11-.85-.2-1-.06-.09-.19-.07-.2 0-.03.3.18.48.1 1zm.65 8.45c-.15-.15-.9.76-.99 1.1-.01.06.07.02.07.01.23-.3.67-.83.9-1.06.02-.02 0-.04.01-.05zm.13.4c-.2-.02-.32.73-.18.93.01.03.05-.01.05-.02.01-.23.07-.67.15-.88 0-.01-.03-.02-.02-.03zm.6.28c-.17 0-.18.59-.05.75.01.03.04-.01.04-.02-.01-.18 0-.54.03-.7 0-.02-.02-.03-.02-.03zm.92 1.15c.25-.23-.2-.9-.5-1.05-.05-.03-.1.05-.05.1.17.2.4.55.47.9 0 .04.06.05.08.05zm-6.62-8.32c-.13-.18-1.06.82-1.1 1.24 0 .06.08.05.09.03.23-.33.73-.93 1.04-1.2.01-.01-.02-.05-.03-.07zm.4.47c-.1-.11-.67.63-.67.91 0 .04.06.03.07.02.13-.25.43-.68.62-.88.01 0-.01-.04-.03-.05zm.73.53c-.11-.11-.5.29-.41.49.01.04.13.03.13.01.1-.18.17-.3.28-.4.01-.02.02-.08 0-.1zm24.4-10.03c-.22.08-.21-.18.03-.27.55-.23 3.4-.08 3.84.44.15.19 0 .26-.09.22a8.45 8.45 0 0 0-3.78-.39zm43.27 21.47 1 .66c0 2.1 2.6 3.78 3.95 5.45.46.57 1.42 1.92 1.55 2.88.13.94 1.13 1.9 1.5 2.57 1.07 2.32-.66 6.2-1.6 8.33a19.35 19.35 0 0 1-2.62 3.7c-.45.48-.71.65-1.02 1.29-.14.3-.4 1.56-.96 1.65-.65.25-1.44.6-2.09.85a6.37 6.37 0 0 0-2.41 1.46c-.36.37-1 2.12-1.25 2.83l1.13.15c1.73.17 3.1.29 5.17.07.29-.5.6-1.26.6-1.87 0-.58.01-1.39.33-1.85a6.7 6.7 0 0 1 1.89-1.72c.13-.75-.47-.74-.88-.5-.37.2-.92.9-1.22 1.19-.11.11-.58.74-.64.36.66-.64 1.18-1.32 1.9-1.8.29-.19.69-.12.81-.02.26.22.19.63.43.76.36.2 1.02.22 1.38.07.24-.1.34-.43.41-.77.3-1.37.9-3.08 1.38-4.24.95-2.32 2.91-5.28 4.03-7.27l.26.9c-.6.42-3.32 6.15-3.8 7.01-.62 1.08-.86 2.93-1.2 3.8-.6 1.6-.92 1.19-2.61 1.16-.82.37-1.9 1.33-1.9 2.19a7.4 7.4 0 0 1-.65 3.08c-1.2.2-5.5.37-7.65-.52 1.12-2.4.78-3.4 3.42-4.68.93-.47 2.15-.7 2.8-1.32.64-.6.76-1.59 1.32-2.08 2.14-1.9 4.98-6.91 4.83-11.27-.2-.59-.97-1.46-1.41-2.32-.44-.87-.74-2.05-.87-2.37-.71-1.83-3.16-3.06-3.98-4.58a13.45 13.45 0 0 1-1.32-3.23zM81 257.76c-.33.25-.95.36-1.3.11a2.13 2.13 0 0 0-1.15-.31c-.59.04-1.16.88-1.46 1.32-.15.22-.4.44-.52.67-.33.72.37-.07.54-.3.4-.6.83-1.62 1.8-1.45.49.08.88.41 1.44.41.24 0 .42-.07.59-.18.07-.05.3-.29.06-.27z"/>
	<path d="m78.05 242.8-.99-2.17c.16.38.3 1.4.12 1.75-.18.36-.6.88-1.2.85.01.83-.2 1.26-.51 2.1.14-.06.46-.7.51-.86.09-.27.22-.67.24-.96.35-.17.88-.46 1.01-.73.26-.47.55-.26.82.01z"/>
	<path d="M75.22 245.97c-.15.19-.25.45-.37.66-.05.1-.18.3-.18.4 0 .28.33-.36.34-.4.04-.09.36-.65.2-.66zM73 251.3c.17-.18.69-1.48.78-1.7.1-.23.46-1.3.44-1.4-.07-.3-.42.88-.61 1.32-.16.35-.78 1.72-.62 1.78zm-1.42-18.67c.06.32.59 1.16 1.33 2.09.73.92 2.02 2.03 2.16 2 .24-.09-1.32-1.33-1.97-2.18-.4-.52-1.39-2.02-1.52-1.9zm6.52 8.04c-.05.27-.05.33.24 1.03.51 1.29.7 1.4.84 1.4.26 0-.1-.29-.5-1.24-.25-.6-.42-1.24-.58-1.2zm-5.3 20.07c.2.22 1.03-.32 1.2-.4.16-.1.85-.68.82-.8-.08-.24-.69.38-1 .55-.26.13-1.08.49-1.03.65z" fill="#191919"/>
	<path d="m97.16 238.8-.6.1a7.03 7.03 0 0 1-1.91-2.75 17.48 17.48 0 0 1-.73-2.79c.32-.12.6 1.9.97 2.57.15.28.45 1.63 2.27 2.88zM66.9 227.28c-.15-.04-.12.15-.02.25.08.1.18.15.28.2.08.02.14.06.14-.08 0-.1-.3-.28-.4-.37zm.97 1.18c.02-.08.1-.03.14 0 .1.04.37.23.44.33.03.04.15.2 0 .2-.16 0-.24-.18-.35-.28-.05-.06-.25-.17-.23-.25zm6.69 31.96c-.14-.09-.32.1-.47.22-.26.22-.26.4-.13.35l.26-.25c.22-.18.4-.28.34-.32zm.34.49c-.13-.08-.25.04-.4.16-.26.22-.21.4-.12.35.06-.02.08-.11.25-.24.22-.19.34-.22.28-.27zm.52.67c-.11-.07-.19.04-.3.14-.22.17-.19.31-.1.27.04-.02.05-.07.18-.18.18-.14.27-.2.22-.23zm.41.38c-.1-.07-.15.04-.25.15-.2.2-.2.17-.15.25.02.04.05-.07.18-.18.18-.15.27-.19.22-.22zm.45.45c-.1-.05-.18.03-.26.11-.17.17-.14.17-.1.24.02.03.05-.07.17-.15.16-.12.23-.17.19-.2z"/>
	<path fill="#0c5391" d="M165.29 143.44h60.65V260.1l-2.29 7.4-4.2 7.72-8.86 4.62-9.16 3.01H165.3v-139.4z"/>
	<path d="m212.6 147.23.44-.37-2.21-1.42-5.6 3.24-4.11 2.14-6.86-1.14-3.82-.83-4.24 1.84-1.72 2.79.66 4.15 4.25 7.4.17 4.25-.93 4.92 1.47-.63 1.77-1.93 1.17-2.9 2 4.95-.56 5.29-1.74 3.17-3.45 2.12-4.05-.1-3.55-.87-2.5 1.65-1.93 2.1-3.95-3.58 1.73-.82 2.6-2.35 1.63-.19 1.63.67-.2-1.34-1.43-1.6-3.07.11-4 1.73-1.68.1-2.3-2.03-1.24-2.97.8-2.5.87-.82-2.78-1.35-.58-.72v109.05l1.12-1.38.43-1.04 4.24-.06-2.14-2.1-1.32-2.43-.99-2.66.3-2.25 3.39 5.26 2.8 2.84 4.47 1.53 4.46.42 2.63-.49 3.05-1.22 5.2-4.1 4.09-3.23 4.2-1.97 3.76-.22 2.24.95 1.35 1.52.34 1.85-.17 3.25 1.68-3.03.5-3.14-.6-3.26-1.63-3.19-3.03-2.8-4.1-1.91-3.7-.3-4.95 1.1-9.86 5.02.8-3.45-.66-2.79-2.6-1.6-3.22-.32.84 2.87-1.03 2.74-3.14 1.52-2.98-.25-2.25-1.51-.79-3.26.74-5.5 3.36-7.18 2.12-5.09 4.7 5.05 1.62 2.22 1.89 3.43 1.55-7.27-.14-4.37-1.14-4.71 3.23-.57 3.28-1.8.75-1.07-5.56.07-4-2.27c-.2-.11-.51-.36-.7-.48l-3.72-3.98-.92-3.48.5-3.86 3.96-10.58 1.04 6.24 1.83 6.3 2.4 3.98 2.8 2.2 2.82 1.23 2.26.3 2.63-.19-1.22-1.95-1.53-2.87-2.76-10.59-1.04-5.13-.6-5.82 4.95 12.12 4.4 9.42 4.7 5.93 4.22 2.5 4.04.86 3.3-.61 3-2.27 1.05-1.7.27-1.3-3.47.51-4-2.47-5.12-5.75-2.87-4.74-3.74-6.83-2.94-7.4 1.76 1.76 5.64 8 4.03 4.37 3.79 2.44 3.87.59 2.94-1.34.76-1.52.5-3.53-1.88.9-1.83-.7-3.5-2.92-4.7-6.37-4.7-7.5 4.57 4.3 3.84 2.98 4.58.78 2.31-1.86 1.05-2.82.06-2.66-1.47 1.15-2.28-.83-3.16-2.9-4.84-5.8-1.26-2.25.22-.37 5.16 3.14 2.99.75 2.84-1.27 1.27-1.87.37-2.02-.29-1.94-1.73.67-3.36-1.28-3.07-3.06-5.68-7.93 1.88 1.12 4.78 3 3.07.6 1.86-.38 2.1-1.5.89-2.54-.15-1.87-3 .45-3.58-2.1-4.26-4.03-4.1-3.37 1.63-.6 2.55-3.36.75-1.42 1.8-1.1 1.62-.65zm-47.31 16.3 1.83-1.06 2.98-.77 1.63-1.06 1.5-1.57-1.05-.44-.74-1.07.06-1.3 1.35-1.17h.56v-.62l-1.43-1.45-1.57-1.1-2.6-.68-2.52.1v12.2z" fill="#e9cc0c"/>
	<path d="m185.63 231.17 3.51 2.54 3.51 2.1 2.92 1.04 2.55-.07 1.56-.83 1.87-2.76 1.57-2.32 1.94-.52 1.65.52 1.05 1.12.44.97.14 2.64-.53-.02-1.01-1.2-.29 1.2-.92 1.29-2.07-.62-.76 1.29-2 1.07 2.4-.08 4.48-1.64 4.66-1.68 2.38.56 1.93 2.27.23 3.64-1.04 1.26-1.43-2.73-.59 1.58-1.48.84-1.4-.4-.88-.78-.39-.93-1.34.76-3.15.48-2.18-.11 2.46.98 3.65.8 3.14.16 1.57 1.15.7 1.94-.4 2.13-1.35 2.06-.4.28-.2-1.3-.78-1.07c0 .16-.04.2-.08.31l-.92 1.3-2.23-.1-1.05-1.22-.15-2.07-7.04-2.44-2.21-.53-1.63 1.38.36 1.5-.51 1.54-1.43.72-1.14-.16-.8-.59-.55 1.15.05 2.37-1-.36-1.62-1.65-.35-2.97.87-2.34 2.21-1.86.83-.9-.3-.68-2.77-1.97-2.55-1.44-.68-.1-2.83.05-.96-5.81 2.76-.74z" fill="#ba2b1a"/>
	<path d="m183.37 234.5.06-1a4.06 4.06 0 0 0 1.64 1.93c.37.22 1.4.1 1.79-.16-.03.14-.44.51-.52.55a2.12 2.12 0 0 1-1.52.04c-.44-.15-1.41-1.37-1.45-1.37zm-3.95-29.82.36-1.32c1.36 9.12 3.1 21.15 15.02 20.47-1.5-1.66-3.43-6.7-4.72-12.4-1.61-7.06-2.9-14.96-2.5-17.77 1.52 6.33 6.16 17.14 9.3 23.22 2.5 3.45 5.34 10.8 13.76 11.09 3.06.1 6.75-2.09 7.1-4.88-2.35.63-3.84.52-6.39-1.4-4.86-3.65-7.42-8.39-9.42-11.79-1.6-2.72-6.96-13.11-7.08-17.94a100.6 100.6 0 0 0 7.7 11.96 47.7 47.7 0 0 0 4.8 5.4c3.36 2.7 4.93 3.17 6.98 3.13 3.03-.06 4.5-.95 4.6-5.2-.66.5-1.05.51-1.95.53-1.04.03-2.22-.91-2.76-1.3-3.1-2.47-6.59-7.67-8.51-10.79-.35-.55-1.4-2.32-2.45-4.06-1.36-2.24-2.63-4.47-1.7-4.28 2.49 3.35 5.93 8.18 10.09 9.81 4.14 1.62 6.97-.55 7.24-5.65-.4.28-.5.81-1.74.73-2.2-.15-5.1-3.38-6.25-4.88-1.31-1.7-6.08-7-5-8.26.46.35 3.19 2.33 4.2 2.84 1.44.73 3.02 1.64 4.76 1.1 3.2-1.02 3.8-2.78 3.63-6.1-.6.62-2.52.54-3.54.04-1.42-.69-2.3-1.1-4.31-3.5-2.3-2.75-2.97-3.81-4.76-6.3-.33-.44-2.53-3.32-1.42-3.27 2.8 2.57 6.56 4.79 7.9 5.11 1.47.36 2.8.5 4.13-.27 1.37-.8 2.73-2.02 2.35-4.81a6.2 6.2 0 0 1-3.36.01 13.7 13.7 0 0 1-3.46-2.25c-1.68-1.46-4.27-4.1-5.95-5.53.03-.05-.75-.56-1.61-1.29-.47-.4-1.35-.58-1.37-.68-.04-.2 1.7-.06 2.64-.72 1.05-.73 2.27-3.17 2.93-4.09a7.54 7.54 0 0 1 3.06-2.03c.86-.3 1.36-.33.44-.94-1.9-1.26-4.23.84-5.62 1.9-1.32 1-3.24 2.93-6.35 2.92-3.33 0-4.74-.77-6.47-1.36a8.59 8.6 0 0 0-6.16.4c-2.43 1.1-2.73 3.25-2.48 5.53.14 1.54 2.13 3.73 4.44 8.43.62 1.24.52 3.02.45 4.61-.07 1.79-.82 4-1.1 5.03a9.3 9.3 0 0 0 2.1-1.56c1.49-1.93 1.54-3.19 1.88-4.48 1.93 1.69 2.65 5.87 2.65 8.33 0 1.16-.9 4.41-2.22 5.89a8.27 8.28 0 0 1-6.26 2.74c-1.79-.05-3.36-.53-5.12-.78-1.2-.17-3.13 1.5-4.34 3.17l-.49-.52c1.9-2.05 2.53-2.65 2.9-2.9 1-.66 1.5-.96 2.43-.78 1.91.37 4.13.72 4.87.72 2.05 0 3.67-.52 5.16-1.96 1.54-1.5 2.2-5.35 2-7.29a9.2 9.2 0 0 0-1.54-4.44c-.18.7-1.22 2.42-1.74 2.93-.46.47-1.93 1.82-2.82 1.4.38-2.91 1.08-4.65.88-7.02-.27-3.18-2.95-6.78-4.32-9.38-3.3-6.2 3.2-10.66 8.49-9.03 3.07.95 7.53 2.21 10.29.3 3.97-2.79 7.08-5.84 9.93-2.31-1.38.68-3.78 1.48-4.7 3-.46.78-1.97 4.3-3.78 4.52 2.21 1.5 4.63 3.79 6.87 6.03a10.72 10.72 0 0 0 3.54 2.47c1.48.58 2.6.38 3.9.13 1.06 3.15-1.13 6.88-4.53 6.88-2.14 0-2.6-.14-4.65-.99-.48-.2-3.53-2.32-4.2-2.71.1.61 4.66 6.38 5.27 7.07 1.33 1.48 5.29 4.93 7.46 2.76.63 2.98.38 5.92-2.8 7.5-3.27 1.6-7.98-2.06-9.52-3.3 1.22 2.33 4.37 5.9 5.35 6.94a30.11 30.13 0 0 0 4.02 3.68c1.6 1.12 2.92-.4 3.36-.74.44 3.84-.44 7.75-3.7 8.22a7.85 7.85 0 0 1-6.37-1.67c-.15-.1-3.48-3.16-4.49-4.14a63.07 63.07 0 0 0 6.37 9.4c1.25 1.44 2.72 3.35 4.49 4.53.8.54 3.02.84 3.95-.3-.03 3.14.02 4.99-2.34 6.58-2.83 1.9-7.75.04-10.84-3.07-4.34-4.38-7.83-10.18-9.18-12.15 1 3.7 6.57 13.9 8.64 16.7a40.79 40.8 0 0 0 6.63 7.05c.95.8 2.58 2.07 6.1.83-1.83 9.6-12.8 7-15.88 3.88-8.63-8.78-10.06-17.42-13.78-25.51.44 4.3 1.46 8.35 2.41 12.3a92.94 92.94 0 0 0 1.92 6.64 14.94 14.94 0 0 0 3.03 4.67c-10.42 2.26-15.7-6.02-16.73-19.44z"/>
	<path d="M169.23 169.3c3.22-2.12 7.54.23 10.66-.34 3.3-.6 6.42-2.4 3.89-6.87-1.8 2.93-4.2 3.27-8.44 3.3-3.08.03-6.14.49-8.22 2.18.18.62 1.1 1.5 2.11 1.73z"/>
	<path d="M183.77 162.9c1.57 2.71-.58 4.6-3.44 5.41-2.81.8-4.52-.3-8.14-.3-1.43 0-2.95.3-3.38.65-.82-.31-1.28-.99-1.2-1.05.94-.74 2.91-1.2 3.87-1.4 3.55-.75 4.32-.16 7.02-.39 3.56-.3 4.17-1.23 5.27-2.92z" fill="#ba2b1a"/>
	<path d="M172.48 159.29c-.31.91-1.77 1.92-3.08 2.36-1.32.45-3.07.69-4.44 1.53-2.46 1.52-1.18 5.66.88 7.32 1.46 1.17 5.45 1.6 8.32 3.1.15.07.34-.27.39-.38.14-.4-.93-1.85-1.26-2.24-1.66-2.03-6.3-1.66-6.26-4.16.02-1.85 5.14-1.93 6.15-2.91 1.47-1.42 3.53-3.1 3.92-.51.9-1.69 1.1-1.56 1.42-2.3.59-1.32.5-2.44.1-3.22-.54-1.03-1.41-1.2-2.57-1.38a3.35 3.35 0 0 0-2.48-1.81c-.87-.11-1.97.63-2.24 1.55-.25.84-.23 1.89 1.15 3.05z"/>
	<path d="M174.09 158.7c-3.2.4-3-3.31-.5-3.31 1.14 0 1.55 1.08 1.92 1.8.77.02 2.9-.14 2.82 2.22a4.97 4.97 0 0 1-1 2.45c-1.56-1.87-3.34.94-4.7 1.62-.67.34-1.96.63-3.25.92-2.01.46-3.75 1.68-2.12 3.92 1.05 1.45 5.03 1.1 6.28 3.62.74 1.52-.22.66-1.43.32-4.29-1.25-8.04-2.32-7.87-6.64.1-2.55 5.56-3.3 6.62-4.03.72-.5 3.27-2.55 3.23-2.89z" fill="#ba2b1a"/>
	<path d="m166.06 157.37 2.8-.3 2.3-.12c.37 1.2.47 3.27-.9 3.9-.9.4-2.63.47-3.36-.47-.63-.8-.77-1.97-.84-3z"/>
	<path d="m166.59 157.4 2.2-.34 1.9-.07c.02 1.02.73 3.16-1.23 3.56-2.64.53-2.94-2.05-2.87-3.15z" fill="#fff"/>
	<path d="m168.02 157.32.8-.26.55-.02c.46.39.73 1.26.57 1.77-.14.44-.55.88-1.12.85-.69-.03-1.13-.95-1-.88 1.41.86 2.1-1.4.2-1.46z"/>
	<path d="M171.28 156.86c-2.59.02-4.95.37-7.8.47-.07.12-.02.2.14.23.75.16 3.34 0 3.69-.04.76-.1 3.23-.22 4-.3.11-.01-.03-.34-.03-.36zm-2.98 14.47 1.12.42c-4.02 1.26-.72 8.94 3.1 7.33 2.36-1 8.6-3.95 8.54 2.01-1.2-.7-2.05-.86-2.65-.68-.85.27-2.59 1.85-3.22 2.48-.96.96-4.18 1.29-4.18.99 0-.07 0-.19.07-.2 1.37-.13 2-.29 2.85-.67 1.3-.58 2.5-3.09 4.92-3.18.59-.01 1 .09 1.9.66-.93-4.76-7-.5-9.24-.42-2.75.1-4.4-2.77-4.69-5.2-.16-1.23.5-3 1.47-3.54z"/>
	<path d="m172.51 183.69 1.12-.36c2.5 2.1 5.41 3.82 6.68 7.04 1.17 2.96 1.27 7.78.13 11.57-1.25 4.17-3.39 9.54-4.64 13.51-1.6 5.06 2.6 9.14 6.1 11.28 3.86 2.35 5.13 1.42 8.84 1.42-1.06 2.13-5.16 4.03-7.57 4.07.79 1.61 1.43 7.33 1.17 9.3a72.14 72.14 0 0 1-1.92 7.75c-1.3-3.54-3.12-5.76-5.76-8.38-1.82-1.72-3.48-3.97-5.03-5.81-.28-.34-3.13-4.18-1.87-4.18 1.52 2.84 1.95 3.37 4.28 6 .54.62 1.8 2.2 3.06 3.5 1.04 1.1 2.09 1.95 2.54 2.42 1.1 1.12 2.39 3.96 2.71 4.74.38-2.09 1.34-5.25 1.34-8 0-2.69-.74-5.63-1.2-7.85 2.18 0 5.3-1.52 6.77-2.8-6.83.83-9.11-1.93-13.15-6.48-3.3-3.72.15-11.44 1.53-14.26a70.14 70.17 0 0 0 2.12-6.34c.6-2.15.83-4.98.6-7.4-.55-5.56-4.46-9-7.85-10.74z"/>
	<path d="m174.37 237.97-.46-.81c-1.26 5.06-5.51 10.58-6 14.91-.22 2.54-.62 4.34.74 6.65.81 1.39 3.3 2.12 4.82 2.05 3.33-.16 5.35-2.62 5.05-5.23-.08-.8-.64-1.35-.63-1.94 1.8 0 4.36.43 5.24 2.24.46.96.56 2 .34 3.1a17.74 17.75 0 0 1-1.04 3.19c.88-.51 8.6-4.53 9.34-4.84 8.81-3.6 13.07-.23 16 2.7 1.5 1.5 4.83 6.48 1.3 11.71.86-4.53-2.04-6.54-5.49-6.66-4.66-.18-8.41 3.57-11.79 6.32-1.82 1.47-3.68 3-5.87 4-4.14 1.84-11.22.47-14.41-2.61-1.75-1.68-3.95-6.08-4.5-6.6-1 .47-.61 2.78-.1 4.03.57 1.4 1.02 2.77 2.07 4.17.57.76 1.96 1.58 1.3 1.48a16.22 16.22 0 0 0-3.28-.1c-.51.03-.68 1.06-1.71 2.18v1c1.42-1.4 1.4-2.02 1.56-2.33.37-.66 2.08-.55 3-.38.78.15 2.35.06 1.83-.19-.57-.27-1.54-1.3-2-1.77-.9-.9-3.68-5.33-2.52-7 1.7 2.9 3.66 8.11 10.2 9.17 3.03.5 5.88.65 8.12-.15 7.6-2.71 9.63-10 17.72-10.58 7.17-.51 5.34 6.39 4.6 8.87 5.18-4.74 4.4-12.58-1.9-17.36-7.35-5.57-16.94.53-22.24 3.49.38-2.05 1.12-4.28-.81-6.23-1.47-1.48-6.22-1.95-5.86-1.2.57 1.22 1.16 3.32.52 4.33-.58.9-2.92 2.37-4.4 2.41-6.04.18-4.89-6.65-3.72-9.96 1.48-4.14 4.3-8.54 4.98-12.06zm11.09-6.32.7-.41c3.3 2.38 11.03 8.3 14.17 3.32 1.41-2.23 1.49-4.58 4.69-4.48 3.22.1 3.8 3.39 3.44 6.03-.52.03-1.28-.56-1.52-1.18-.1.65-.46 1.82-1.36 2.17-.63.25-1.33-.51-1.9-.5a3.37 3.37 0 0 1-2.83 2.03 4.25 4.25 0 0 1-2.6-.64c1.48.2 2.9.8 4.4-.7.64-.64.55-.74.41-1.67.7.51 2.08 1.03 2.27.94.51-.24 1.39-.98 1.02-2.16-.17-.5-2.53-1.21-.97-2.98-.71 1.61 2.2 2.49 2.5 3.93.36-.5.19-2.21-.64-3.36a2.93 2.93 0 0 0-1.66-1.04c-2.38-.58-3.22 1.85-4.52 3.94-.92 1.48-2.15 2.47-3.67 2.46-4.17-.06-8.94-3.6-11.93-5.7z"/>
	<path d="M203.32 241.84c-.83-.2-1.38-.63-2.12-.9.9.42 3.17.66 3.94.6 1.37-.15 4.24-.39 4.13-1.66-.06-.74.57-1.28 1.3-1.28-1.11.57-.64 2.1-.1 2.97.54.86 1.9.7 2.66.33 2.4-1.19-1.39-4.43 1.69-4.59-.96.68-.5 1.9-.42 2.24a6.94 6.94 0 0 0 1.64 2.56c.8-.78.8-6.1-2.94-6.42-1.68-.15-7.2 2.54-8.72 2.96-.59.16-1.14.25-1.64.31-1.94.23-3.16-.41-3.88-.68a11 11 0 0 0 4.24-.12c1.74-.35 3.5-1.24 4.7-1.8 3.18-1.5 4.6-1.58 4.89-1.58 1.98-.08 3.97 1.96 4.27 3.63.22 1.2.7 3.99-.73 4.69-.33.15-.5.34-.87.36a3.2 3.2 0 0 0-.9-2.47 2.46 2.46 0 0 1-1.05 1.54c-.7.55-3 .41-3.96-1.51a9.15 9.16 0 0 1-3.57.88c-.71.03-1.97.07-2.56-.06z"/>
	<path d="M212.03 251.6c.38-.37-.2-1.98-.58-1.78-.45.63-1.01 1.09-1.81 1.09-1.63 0-2.99-.76-2.9-2.54.01-.27.13-.66-.16-.93-.94-.6-5.08-2.1-5.8-2.28-1.39-.36-3.28-1.38-4.28.48.41 1.44.01 3.02-1.21 3.59-1.2.56-2.24-.1-2.72-.32-.47.38-.31 3.1-.3 3.38a3.82 3.82 0 0 1-2.1-1.07c-2.14-2.06-1.6-4.1-1.22-5.63.22-.84 1.26-1.61 1.92-2.26.65-.64 1.18-.86 1.67-1.23.88-.65-2.14-2.25-2.55-2.49-2.49-1.36-2.9-2.33-6-1.47l-.1-1.6c.51 1.64 2.2.5 3.4.98 1.05.41 6.05 3.38 6 4.28-.07 1-3.07 2.86-3.5 4.07-.64 1.74-.5 3.6.95 4.93.4.37.89.77 1.06.74-.1-1-.14-1.34-.01-2.06.1-.62.4-.82.39-1.28-.02-.63-.44-1.14-.79-1.71 1 .38.96.92 1.35 1.6.41.73.76.79 1.43.79 1.08 0 2.44-1.6 1.7-2.75-.42-.63-1.14-1.46-1.17-2.12.2.27 1.02 1.45 2.02.44.68-.68 1-1 2.22-.64a65 65 0 0 1 7.02 2.61c1.68.76 1.38-1.3 2.8-.79-.73.22-1.27 1.05-1.4 1.32-.33.68-.09 2.02.46 2.56.61.61 2.4.86 2.9.05.36-.58.44-1.18.4-2.02-.05-1.07.48-2.07 1.66-1.8-.81.41-1.08.94-1.08 1.87 0 1 .56 2.14.85 2.84 1.3-.85 1.53-2.98 1.53-3.83 0-1.26-1.15-2.92-2.63-2.85-2.02.08-3.27-.32-5.13-.66-.99-.19-3.64-1.2-4.48-1.9 1.18.35 5.55 1.73 6.86 1.82 2.62.2 4.5-.02 5.38 1.69.5 1 .83 2.82.4 4-.3.81-1.28 2.72-2.44 2.88zm-46.74-100.1v-.33c1.99-.13 3.36-.13 5.38.76 1.07.48 2.79 1.76 2.84 2.75l-.37.21c-.4-1.08-1.84-2.3-2.76-2.75a9.3 9.31 0 0 0-5.1-.64z"/>
	<path fill="#ba2b1a" d="M165.29 143.44h-30.15v139.41h30.15v-139.4z"/>
	<path fill="#fff" d="M135.14 143.44H105V291.2l3.87-4.58 8.62-3.76h17.66v-139.4z"/>
	<path fill="none" stroke="#1f1a17" stroke-width="1.06" d="M146.18 141.6v190.01" transform="matrix(.73214 0 0 .7325 28.12 39.72)"/>
	<path d="M128.28 331.61h94.56c46.78 0 47.36-24.8 47.36-50.65V-50.7H-60.1v331.67c0 25.84.57 50.65 47.35 50.65h94.56m0 0c11.8 0 23.1 4.9 23.02 16.07l.35.03c-.01-10.9 11.3-16.1 23.1-16.1" fill="none" stroke="#000" stroke-width="2.82" transform="matrix(.73214 0 0 .7325 28.12 39.72)"/>
	<path fill="none" stroke="#1f1a17" stroke-width="1.06" d="M187.35 141.6v190.31" transform="matrix(.73214 0 0 .7325 28.12 39.72)"/>
	<path d="M128.28 331.61h94.56c46.78 0 47.36-24.8 47.36-50.65V-50.7H-60.1v331.67c0 25.84.57 50.65 47.35 50.65h94.56m0 0c11.8 0 23.56 5.2 23.02 16.07m.35.03c-.01-10.8 11.3-16.1 23.1-16.1" fill="none" stroke="#000" stroke-width="2.82" transform="matrix(.73214 0 0 .7325 28.12 39.72)"/>
	<path fill="none" stroke="#000" stroke-width="1.06" d="M105.13-49.88v396.31M-60.26 141.6h330.52" transform="matrix(.73214 0 0 .7325 28.12 39.72)"/>
</svg>