<svg viewBox="0 0 42.495 45.39" fill="none" xmlns="http://www.w3.org/2000/svg">
	<path fill-rule="evenodd" clip-rule="evenodd" d="M42.495 0c-7.727.255-13.964 4.054-16.088 9.298-1.225 3.024-.6 6.75 2.066 8.535 2.667 1.785 6.364 1.399 8.606-1.656 2.24-3.056 1.063-7.008 1.329-9.672C38.901 1.57 42.495 0 42.495 0ZM27.457 11.767c.714-.563.713 1.319 1.045 1.965.183.359.669.937.84 1.375.259.665-.268.907-.632.836a.468.468 0 0 1-.074.006c-.893 0-2.276-2.521-1.179-4.182z" fill="url(#a)" style="fill:url(#a)"/>
	<path fill-rule="evenodd" clip-rule="evenodd" d="M39.143 26.793v16.544c-.023 1.422-.986 2.056-2.127 2.053h-9.75c-1.383-.011-2.159-.978-2.104-2.154v-8.875c.007-.132.055-.271.386-.335l.609-.12c1.015-.205 1.342-.323 2.36-.762.142-.06.514-.08.514.303v7.85h5.952v-12.01c.003-.344.11-.467.263-.573l3.32-2.153c.25-.163.584-.051.577.232zm-2.101-8.465.207.018c.942.102 1.978.512 1.783 1.438-.1.615-2.065 3.288-2.698 4.197l-.11.161c-1.243 1.85-2.15 2.246-4.074 3.23-8.371 4.707-5.726 5.245-16.209 2.514-4.768-1.723-5.983 2.78-15.333 12.822l-.583.621L0 29.936l9.698-8.064c5.193-4.414 10.169-1.193 14.701-.064 1.57.391 4.693.642 5.785 1.714.27 2.793-3.112 1.913-4.728 1.611l-.166-.03c-1.111-.191-2.26-.468-3.449-.476h-.362c-1.786.016-2.224.255-2.269 1.007-.01.186.11.227.314.179l.61-.14c.625-.14 1.09-.223 1.505-.257 1.193-.096 1.967.212 4.91.737 1.363.244 2.63.268 3.763-.49.944-.63.974-1.816.507-2.579l-.064-.105a.427.427 0 0 1-.053-.129.218.218 0 0 1 .09-.216c.66-.496 1.354-.903 1.964-1.492l.454-.433c1.08-1.013 2.731-2.423 3.832-2.38zM11.923 6.013c1.383.01 2.16.977 2.105 2.153v8.875c-.007.133-.055.272-.386.335l-.609.12c-1.015.206-1.342.324-2.36.762-.142.061-.515.081-.514-.302v-7.85H4.206V22.3c-.001.266-.159.318-.36.451l-1.667 1.09c-.121.075-.481.304-1.555 1-.252.164-.577.142-.578-.137V8.065c.024-1.422.987-2.055 2.127-2.052z" fill="#009cdd"/>
	<defs>
		<linearGradient id="a" x1="31.94" y1="-9.326" x2="16.186" y2="10.998" gradientUnits="userSpaceOnUse" gradientTransform="translate(-.592 -.242)">
			<stop stop-color="#E95551"/>
			<stop offset=".597" stop-color="#E2000F"/>
			<stop offset="1" stop-color="#BF1515"/>
		</linearGradient>
	</defs>
</svg>