<svg xmlns="http://www.w3.org/2000/svg" width="1360" height="1520" viewBox="0 0 8268 11692" shape-rendering="geometricPrecision" text-rendering="geometricPrecision" image-rendering="optimizeQuality" fill-rule="evenodd">
	<path d="M-4996 2227H8897v8927c-139 3689-3208 6655-6953 6655-3744 0-6814-2970-6953-6659l13-8923z" fill="#5a739b" stroke="#000" stroke-width="83" transform="matrix(.73753 0 0 .73719 2700.24 -1539.16)"/>
	<path d="M7274 15328H-3386m10660 0c-1278 1515-3194 2481-5331 2481-2136 0-4051-966-5329-2481H7274z" fill="#56876c" stroke="#000" stroke-width="56" transform="matrix(.73753 0 0 .73719 2700.24 -1539.16)"/>
	<path d="m1090.21 1189.18-15.49-75.93-79.65 116.48-53.84 176.92-9.59 106.9-157.83 139.32-46.46 120.9 22.86 138.6 32.45 76.66-91.45 221.16-46.47 67.08 33.2 256.54-70.81 1009.96 26.55 258.01 92.93 111.32 178.48 120.16 61.95-4.42 35.4-98.05 45 8.85 4.42 89.2 284.69-200.52 13.27-115-30.97-204.94 186.6-373.02 191.01-98.04 98.1-106.9 66.37 164.4 31.71 288.97-36.13 458.54-97.36 537.4-30.97 391.46 106.2 431.25 164.47 306.67-453.58-61.92-97.36-4.42-294.27-71.51-186.6-8.85-289.1 120.16-938.88 715.82-297.97 329.52-92.92 208.62v253.6l30.97 39.8 208.72-79.61 205.04-129 30.97-93.63 4.43-208.63 71.54-137.85 79.65-31.7 75.97 53.82 471.28-467.38 160.04-75.2L807 5843.06l-195.44 328.79-168.9 234.42-219.78 192.41-142.35 159.97-87.76 178.4-115.8 182.09-61.95 253.59v190.93l17.7 66.35 120.22-30.96 258.14-177.67 44.25-84.77-17.7-302.25 115.79-142.28 61.95 35.39 160.05-132.7 253.7-489.5 129.07-111.3 133.5-22.12 151.2-57.5 71.53-44.97 164.47 111.31 213.15 89.2 273.62 35.39 273.62 19.9 176.27 75.93 164.47-2.95 143.08-58.23 70.07 65.6 227.16 120.17 206.5 86.25 200.61 67.08 609.94 126.8 483.82 61.19 618.05 45.7 301.65 474.75 193.97 237.38 102.52 254.33 233.06 215.26 121.69 178.4 61.22 194.62 137.18 217.47-67.86 388.5-146.77 319.94-153.4 199.78-99.57 113.52-73.75 166.6-342.95 141.55-99.57 84.04-91.45 258.75 145.3 38.34 460.95-3.69 49.41-171.77 15.49-152.6 171.84-156.28 148.25 19.17 73.01-102.47 75.97-301.51 368.03-682.64 79.65 240.33-35.4 519.71-35.4 173.98-182.17 319.94-137.92 120.16-227.16 137.86-142.34 164.4-70.8 155.54-18.45 75.93 133.5 30.96 476.44-26.54 44.25-146.7 30.98-235.9 129.07-120.16 173.32-13.27 106.94-53.08 53.84-98.04-4.43-395.88-27.28-413.56 44.98-417.99 84.08-355.32-115.79-288.98-248.55-213.79-62.69-204.2 75.97-280.13 311.24-409.14 151.19-391.45 67.12-448.95-53.84-325.1-187.34-424.62-79.65-133.43 160.04 50.87 184.39 115 122.43 173.24 85.55 272.02 10.33 328.05-42.04 406.2-146.77 700.32-67.12 433.47 14.02 266.86L7534 8538.23l213.15 348.69 100.3 289.71 33.93 269.82-20.65 100.25 157.1-113.52 163.72-249.91 50.16-243.27-14.02-300.04-70.06-220.42 115.05 90.67 149.72-10.32 117.27-117.21-143.82-48.65-128.33-159.97-90.72-272.03-21.39-250.64 90.72 123.1 123.17 74.46 95.88 16.22 36.87-27.27-138.65-189.46-61.22-419.46 68.6-244.01 118 30.96 91.45-50.13 72.28-129-137.18-4.43-156.36-137.12-37.61-407.66-98.1-493.92-306.8-377.44-284.7-151.13-306.8-53.81-387.2-4.42-252.98-204.2-316.4-53.82-337.79 27.28-231.58 8.84-324.52-62.66-1183-482.12-277.3-272.03-117.27-32.43-96.62-111.32-84.82-112.05 15.5-150.39-53.85-227.05 98.1 62.66 137.91 17.7 89.24-8.85 28.03-11.06-176.27-139.33-132.02-249.9-236-306.68 133.48 48.66h84.08l104.73-14.75 77.44-50.13 14.75-50.86-178.48-53.08-157.1-118.69-76.7-82.56 95.88 28 129.07-35.38 79.65-62.66 35.4-93.62-120.21-22.12-101.78-22.11-155.62-146.7-174.06-177.67-146.77-93.62 124.65-53.08 71.54-80.35 13.27-92.89-13.27-75.93-80.4 71.51h-142.34l-163-61.19-364.33-223.36-233.06-122.38-247.81-49.39-186.6 26.54-309.02 84.04-79.65-152.6-95.14-129-57.53-61.2-19.18 125.33-26.55 95.83-64.9 182.83-91.46-26.54-42.03-118.69-22.87-102.47z" fill="#fff"/>
	<path d="m8084.95 9309.33-55.32 70.77c82.6-186.51-56.79-583.12-71.54-627.35-62.69-179.14-175.53-435.68-237.48-618.5-84.82-247.7-139.4-680.43-46.47-916.33-36.87 350.9-44.25 572.06 92.93 959.82 61.22 171.77 129.07 353.85 198.4 527.1 23.6 58.97 132.01 332.46 119.48 604.49z"/>
	<path d="m8155.01 9192.11 33.2-70.03c2.2-266.86-185.13-740.14-251.5-922.22-98.1-267.6-129.07-473.28-124.65-764.47 2.95-163.66 28.03-331.73 79.65-476.22-11.06-3.69-11.8-4.43-16.96 1.47-20.65 25.8-31.71 77.4-44.99 123.11-70.06 246.96-44.99 660.52-5.16 828.6 92.19 392.93 383.51 1070.4 330.41 1279.76zM5621.6 9997.13c-8.12-11.8-36.14.73-51.63 5.9-29.5 9.58-41.3 23.58-29.5 23.58 5.16-.73 19.91-9.58 38.35-14 22.86-6.64 46.46-10.32 42.78-15.48zM5651.84 10033.25c-11.8-8.11-30.98 9.58-43.52 21.38-19.17 16.95-22.13 34.65-11.06 29.48 4.42-2.2 8.85-12.53 23.6-23.59 19.17-14 36.14-23.59 30.98-27.27zM5683.55 10083.38c-12.54-6.64-25.08 8.1-36.14 20.64-16.96 19.9-24.34 34.65-15.49 44.97 3.69 4.42 10.33-22.12 22.87-35.39 17.7-18.43 34.66-27.27 28.76-30.22zM5707.89 10174.79c16.96 3.69 21.39-11.8 27.29-27.28 8.85-25.06 15.48-48.65-.74-50.86-5.16-.74-6.64 21.38-13.28 38.33-9.59 23.6-21.39 37.6-13.27 39.8zM6997.09 9916.04c-30.24-131.96-30.24-439.37-29.5-470.33 2.95-102.47-2.95-252.86 34.66-336.9 22.87 6.64-5.16 95.1-8.11 156.29-4.43 101-8.11 204.94-8.11 308.88 0 59.71 0 120.9 2.2 180.61.75 22.85 3.7 70.77 8.86 161.45zM7038.4 8371.62c-33.2 0 8.1 64.14 11.05 87 7.38 43.48 5.17 103.2-8.1 143-11.07 35.4-34.67 71.51-45.74 106.16-9.58 30.23 25.08-7.37 30.98-16.22 34.66-49.39 50.15-97.3 56.8-162.18 2.94-28.75-11.81-157.02-45-157.76zM1967.87 3201.7c-19.91 9.6 14.75 139.34 22.13 164.4 25.07 84.78 21.39 450.43-32.45 541.84-19.92 36.12 8.11 95.83 28.76 22.11 37.61-129.74 50.15-257.28 50.15-397.34 0-44.97-28.02-328.79-68.59-331zM3218.72 1717l89.24-5.89c-53.1 37.6-109.89 70.77-186.59 70.77-136.44 0-223.47-26.54-345.16-84.78-61.96-30.22-261.09-178.4-380.57-247.7-113.58-64.86-360.65-88.45-469.07-81.82 146.03-36.12 368.03 3.69 482.35 65.61 216.83 117.21 404.16 331 669.67 333.21 45-2.21 78.92 11.8 140.13-49.4z"/>
	<path d="m1593.94 1405.91.74-49.39c507.42-201.25 730.9-67.82 918.96 25.8 128.34 64.14 684.43 528.57 801.7 225.58 53.84 39.08 35.4 191.67-3.69 238.85-131.28 159.24-293.53 137.12-447.68 84.04-70.8-24.32-231.58-123.84-284.68-201.99 6.63-24.32 126.85 81.1 147.5 94.36 93.67 60.45 247.81 145.23 389.42 106.9 109.15-29.5 198.4-90.68 198.4-221.16-258.88 115.74-542.1-118.69-767.78-258.02-138.65-84.77-293.53-157.76-470.54-157.76-182.17 0-346.64 61.2-482.34 112.8zM1141.1 2653.98c33.19.73 40.57-25.8 53.1-25.8 2.22 0-20.65 36.12-52.36 36.12-25.81 0-48.68-13.27-44.25-24.33 2.21-5.16 25.81 14 43.51 14zM1234.03 2505.06l-2.21-31.7c14.01 5.17 33.92 11.06 54.57 8.85 29.5-4.42 54.58-8.84 79.66-24.33 12.54-8.84 37.61-32.43 34.66-4.42-1.47 14.74-53.1 40.55-67.11 44.23-25.82 7.37-71.54 10.32-99.57 7.37zM1201.58 2260.32c87.77 0 148.98-69.3 162.26-56.03 5.9 6.64-73.02 78.88-164.47 77.4-43.52 0-128.33-64.13-118.75-76.66 8.12-9.59 70.8 54.55 120.96 55.29z"/>
	<path d="m764.22 1961.02 31.72 42.76c-18.44 37.6-26.55 101.73-53.84 163.65-16.23 37.6-36.88 61.93-61.22 100.26-13.27 22.11-7.37 75.93 1.48 109.84s23.6 50.13 24.34 106.16c3.68 150.38-59 760.78-59.74 908.95-.74 131.96-33.2 342.06 32.45 424.62 50.89 64.88 136.44 154.81 222 175.45 5.9.74 50.15 11.8 50.88 3.69 8.12-93.62 52.37-240.32 81.13-291.93 52.37-92.15 124.64-74.45 89.98 70.77-7.37 20.64-56.05 207.89-44.99 215.26 3.69 2.21 174.06-141.54 236.01-188.72 25.08-19.17-21.39-232.95-16.96-293.4 5.16-63.4 151.2-266.13 194.7-388.5 343.7-154.8 344.43-298.56 349.6-704.75 0-42.76-8.12-98.79-1.48-107.63 2.95-3.69 12.54 12.53 15.49 47.18 15.49 159.97 39.09 510.87-80.4 647.25-33.92 39.07-199.86 134.17-250.02 155.55-21.38 59.71-47.2 109.84-73.01 162.92-29.5 59.7-104.73 157.02-104 230.74 1.48 84.04 35.4 87.72 14.76 262.44-7.38 62.66-90.72 80.35-148.25 134.9-70.06 66.35-120.21 126.06-175.53 98.79-16.96-8.11-5.16-58.24-24.34-58.24-20.65 0-14 42.02-36.14 67.08-15.48 16.96-61.21 2.95-106.2-17.69-207.25-94.36-277.31-221.16-283.21-391.45-5.9-158.5 2.21-345 6.64-471.06 5.9-160.71 70.06-523.4 50.89-698.86-11.8-110.58-60.48-182.08 9.58-258.02 42.04-44.96 83.35-182.82 107.68-258.01z"/>
	<path d="M1092.42 2436.5c-17.7 6.64-42.77 24.33-56.79 38.34-21.38 21.38-31.7 36.12-20.65 66.35 5.9 14.74 8.85 28.75 25.08 44.97 29.5 30.22 141.6 25.8 172.58-16.96 20.65-29.49 59.74-69.3 17.7-112.05-28.76-28.02-93.66-35.39-137.92-20.64z"/>
	<path d="M1112.34 2478.53c-14.02.73-28.77 21.37-29.5 36.85-1.48 18.43 5.9 35.39 27.29 37.6 18.43 1.48 28.02-22.11 29.5-36.12 1.47-16.22-10.33-36.12-27.3-38.33z" fill="#fff"/>
	<path d="m954.5 1509.12-50.88 21.38c-4.43-129 103.25-403.24 193.23-462.22-5.16 84.04 37.61 271.29 81.87 345l-48.68 14.75c-30.24-91.41-54.58-168.82-59-269.81-68.6 85.51-115.06 213.78-116.53 350.9zM1630.08 1900.57c4.43-39.81-22.12-158.5-22.86-246.22-.74-102.47 26.55-244.75 11.06-275.71-50.89-100.26-166.68-316.26-266.98-370.07-18.44 53.81-28.77 171.76-52.37 225.58-40.56 92.15-121.69 282.34-64.16 437.89 14.75 39.07 92.19 149.65 112.1 189.46 14.02 28.01 35.4 61.18 46.47 90.67 10.32 28.75 33.92 101 33.92 14.75 0-162.19-181.43-225.58-176.27-416.52 5.17-216 115.06-314.04 120.96-477.7 105.47 105.42 229.37 292.67 205.77 429.79-33.93 192.4 29.5 412.82 52.36 398.08z"/>
	<path d="M1394.07 1232.67c-3.68 63.4-18.43 162.92-39.82 213.79-25.08 59.71-42.04 121.64-30.98 195.35 3.69 27.28 38.35 85.52 42.04 67.83 2.21-16.96-38.35-84.78-17.7-159.24 18.44-70.77 42.04-148.9 61.95-218.2 10.33 5.16 74.5 170.29 75.97 232.95 1.47 38.33-.74 107.63-.74 143.75 0 22.11-1.47 87.72 5.9 102.47 9.59 22.11 12.54-143.75 13.28-160.7 5.16-103.95 14.75-143.02-28.03-244.76-22.86-56.02-45.73-127.53-81.87-173.24zM1245.1 1411.07l6.63-27.27c-154.88 30.22-469.8 154.8-514.06 305.93-42.77 147.44-7.37 243.27 45.73 312.57 22.86 29.49 97.35 50.87 132.75 106.16 17.7 27.27 23.6 28.75 11.07 130.48 75.23-37.6 165.2-100.26 183.64-127.54 18.44-25.8 25.08-100.25 18.44-137.85-24.34-136.38-147.5-208.62-36.88-331l7.38-49.39c-97.35 92.89-111.37 155.55-42.78 282.34 21.4 39.81 50.16 130.49 36.88 179.14-16.96 60.45-77.44 84.04-129.07 128.27 9.59-98.04-36.87-123.85-133.5-174.71-16.22-8.85-33.18-27.28-40.56-44.23-72.27-159.97-36.87-225.58-4.42-287.5 86.3-168.09 356.96-249.18 458.74-265.4z"/>
	<path d="M1137.41 1430.98c54.58 0 80.4 25.8 87.03 80.35 13.28-69.3 28.03-92.15 16.97-118.69-16.23 3.7-104.73 24.33-104 38.34z"/>
	<path d="m1234.03 1641.81 21.39 53.82c-77.44 144.49 61.21 216.73 69.33 298.56 0 3.69-2.22 38.34-3.7 36.86-25.8-25.8-75.96-68.56-109.88-95.1-209.46-160.7-155.62-376.7-8.12-496.13l18.44 19.17c-126.12 53.08-172.58 248.43-61.21 388.5 19.91 24.33 200.6 216 115.79 89.94-61.22-92.89-113.58-146.7-104.73-272.03 6.64 5.9 3.69 65.61 30.98 92.9 3.68-25.07 29.5-81.1 31.71-116.49zM1028.26 1590.95c-65.64 76.67-139.4 212.3 1.47 352.38-73.01-169.56-80.39-183.56-1.47-352.38z"/>
	<path d="m1152.9 1497.33 61.22-45.71c-44.25 4.42-137.18 50.87-174.8 70.03-59.74 29.49-129.07 75.2-169.63 118.69-56.79 61.19-81.87 129.75-66.38 193.88 7.38 0 11.07-66.35 19.18-87.72 28.76-79.62 220.52-231.48 330.41-249.17z"/>
	<path d="M1020.15 2154.9 984 2188.8c19.17-42.76 36.87-78.14 23.6-117.95-19.91-59.71-59.74-92.89-95.88-145.23-62.69-91.4-75.23-160.7 7.38-230 30.23 1.47-28.03 61.19-28.77 89.2-2.21 61.19 41.3 123.11 83.34 165.13 20.65 20.64 50.15 74.46 58.27 102.47 5.16 17.7 5.9 39.07 0 56.03-1.48 4.42-10.33 46.44-11.8 46.44zM1511.34 3153.05l-5.16-38.33c-32.45 15.48-143.82 10.32-181.43 8.85-21.4-.74-51.63 65.6-102.52 112.79 33.93 16.22 80.4-67.09 99.57-89.2 11.8-14.01 82.6 8.1 105.46 8.84 33.2.74 57.53 5.16 84.08-2.95zM1276.07 3658.77c-12.54 4.42-13.28 64.13-16.23 85.51-2.95 17.7-6.63 21.38-22.86 36.86-4.42 3.69-30.98 20.64-5.16 17.7 18.44-1.48 39.82-32.44 44.99-56.77 2.95-10.32 10.32-86.99-.74-83.3zM728.08 3562.2c-3.68-25.07 2.95-34.65 10.33-41.29 2.95-2.95 17.7-11.8 22.13-4.42 4.42 6.63-2.95 11.8-6.64 14-10.33 5.17-14.75 12.54-25.82 31.7zM782.66 3466.36c45.73-47.92 98.83 37.6 109.9 70.03 14 40.55 17.7 144.5 4.42 182.83-14.01 40.54-28.03 77.4-80.4 79.61-102.5 3.69-117.26-103.2-79.64-165.86 13.27-22.86 38.35-47.92 60.47-58.24 8.12-4.43 14.02.73 9.59 9.58-11.06 24.33-58.26 56.03-60.48 95.84-3.68 69.3 11.8 92.14 59 98.04 78.18 9.58 96.62-157.02 65.65-233.69-7.38-18.43-25.82-63.4-45.73-72.24-8.11-3.69-43.52-1.48-42.78-5.9zM1003.18 3677.93c-2.95 2.22-8.1-2.2-9.58-4.42-10.33-14.74 38.35-110.58 122.43-84.78 55.31 17.7 66.37 77.4 66.37 123.85 0 21.38-11.06 4.42-12.53-5.9-8.12-64.87-44.26-115-109.16-97.3-35.4 9.58-53.1 65.6-57.53 68.55zM1046.7 3559.25c6.64-18.43 23.6-22.86 42.77-20.65 9.6.74 31.72 12.54 31.72 22.12 0 8.11-13.28-3.69-16.96-5.9-5.9-4.42-28.77-4.42-36.14-2.2-4.43 1.47-11.07 6.63-13.28 8.1-4.42 5.16-8.11 0-8.11-1.47zM1419.89 2574.36c-50.9 109.1-193.97 541.1-270.68 530.78-95.87-11.8-32.45 23.59 4.43 19.9 67.85-5.9 203.56-276.45 246.33-413.56 5.17-15.48 52.37-137.12 19.92-137.12zM1055.55 2715.16c-39.1 46.45-43.52 209.37-43.52 308.15 0 44.23-39.82 43.5-57.52 64.13-28.03 33.18-16.23 108.37-83.34 140.07-42.78 19.9 13.27 25.8 30.97 9.58 36.14-33.17 50.15-67.82 61.22-109.84 11.8-42.75 65.64-47.91 69.32-76.67 3.7-22.11 10.33-122.37 8.12-162.18-4.43-53.07 24.34-164.39 14.75-173.24zM1048.17 2409.97c22.13-17.7 36.88-27.28 54.58-32.44 30.24-9.58 53.1-3.69 84.08 0 29.5 2.95 25.07-15.48 5.16-25.06-39.83-19.17-128.33 2.2-143.82 57.5zM1077.67 2594.26l-22.12-6.63c5.9 24.33.74 46.44-16.97 64.14-4.42 5.16 3.7 15.48 9.6 9.58 19.17-19.17 29.5-39.81 29.5-67.09zM973.68 2467.47c9.59 8.84-1.47 28.01-1.47 42.02 0 38.33 5.16 44.23 20.65 75.2 12.54 25.06 5.9 30.22 1.47 45.7-2.95 10.32-11.06 3.68-8.11-15.48 2.95-15.49-31.71-67.09-33.19-98.05-1.47-28.01 17.7-52.34 20.65-49.4zM1835.12 2839.75l-56.05 151.86c88.5-53.08 151.19-248.43 157.83-285.3 5.16-30.95 16.22-88.46 8.1-89.93-12.53-2.95-15.48 38.33-21.38 56.76-15.49 49.4-31.71 115-88.5 166.6z"/>
	<path d="m1778.33 2951.8-16.97 55.3c118-66.36 185.86-152.6 274.37-252.13 13.27-14.74-8.12-17.7-26.56 1.48-65.64 72.24-138.65 157.02-230.84 195.35zM1686.87 1911.63c3.7-77.4-46.46-140.8-32.45-151.86 7.38-5.17 62.7 88.46 57.53 156.28-2.95 45.7-59.74 151.12-67.85 135.64-8.12-14.74 39.82-67.08 42.77-140.06zM1598.37 1975.02c14.01-46.44-12.54-67.82-2.95-71.5 5.9-2.21 28.03 47.18 18.44 81.83-11.06 36.85-49.42 61.92-50.9 51.6-2.2-9.58 22.87-18.43 35.41-61.93zM1605 1451.62l11.07-18.43c280.26 11.06 401.22-64.87 692.54 169.55 8.11 7.38-2.21 19.17-13.27 12.54-18.44-9.59-56.06-44.97-115.8-84.04-88.5-58.24-155.62-75.2-279.52-82.57-59.74-3.68-208.72 1.48-295.01 2.95zM1613.86 1501.01l-11.06 16.96c165.2 29.48 244.12 96.57 329.67 241.06 0 0 26.55 40.54 24.34 25.06-59.74-185.03-213.88-258.01-342.95-283.08z"/>
	<path d="m1604.27 1588.74-7.37 19.9c145.29 2.21 207.98 79.62 277.3 185.04 28.77 43.49 53.1 190.2-15.48 297.08 163.73-47.91 226.42-151.12 227.16-345 70.06 55.29 198.4 168.82 230.1 269.07 30.98 98.05 56.8 115 48.68 365.65 96.62-56.03 154.15-226.32 173.32-327.31 190.29 41.28 336.32 452.63 289.85 600.07-30.24 96.57-76.7 159.97-130.54 244-27.29 42.77-111.37 159.24-152.67 226.33-132.02 212.3-164.47 335.42-164.47 410.61 0 49.4-2.21 207.15 67.12 210.84-2.22-204.94 114.31-353.12 210.2-446.74 57.52-56.76 307.54-283.82 342.94-346.48 85.56-149.65 132.02-412.09 132.02-521.2 0-41.27-15.49-81.08-29.5-103.2-4.42-7.37-13.27-2.21-11.8 2.21 60.48 170.3-56.79 495.4-127.6 607.45-71.53 113.52-216.83 219.68-354.74 365.64-73.02 77.4-132.76 177.67-185.12 289.72 11.06-126.06 167.42-308.15 243.38-401.03 116.53-120.16 242.65-310.36 278.79-387.76 52.36-113.53 62.69-283.82 53.84-392.19-25.08-126.8-28.03-152.6-64.17-221.16-6.64-12.53-22.12-5.16-18.44 5.9 101.78 272.76 73.76 516.03-64.9 707.7-53.84 72.99-122.43 141.54-190.28 229.27-73.02 92.89-148.98 204.94-233.8 349.43 11.06-81.83 35.4-122.38 65.64-191.67 126.86-291.2 395.32-488.02 411.54-791 13.28-242.54-109.89-397.35-227.16-518.99 64.9 114.27 145.3 186.51 183.65 300.78 42.04 127.53 29.5 246.22 3.69 324.36-19.18-165.13-59-291.2-87.77-352.38-50.89-105.42-120.22-216.73-236-235.16 5.15-78.14-14.76-134.9-33.2-203.47 24.34 24.33 79.66 81.83 124.64 108.37-4.42-25.06-116.52-125.32-139.39-147.44-23.6-23.59-89.24-80.35-134.23-109.84 67.12 90.68 118 122.38 144.56 239.59 24.34 110.58-8.85 233.69-42.04 303.72 1.47-155.55-30.98-276.45-113.58-400.3-68.6-103.2-255.19-242.53-371.72-290.45 138.66 119.43 279.53 176.2 378.36 350.17 59.74 105.42 115.05 341.32 43.51 448.21-4.42-291.93-60.48-375.97-198.4-514.56-35.4-34.65-249.28-209.36-317.13-248.43 81.86 103.2 139.39 131.96 138.65 298.56-.74 69.3-50.89 165.13-106.94 190.2 30.24-147.44 27.29-211.58-36.14-302.25-70.06-99.52-151.93-151.86-274.36-151.86z"/>
	<path d="M2033.51 1916.79c9.6-84.78 16.97-162.92-24.34-232.96 78.92 23.6 66.38 140.07 24.34 232.96z" fill="#fff"/>
	<path d="m1792.34 2972.44 37.61-46.44c82.6 199.04 89.25 457.8 67.12 693.7-31.71 331.73-114.32 694.43-135.7 1031.32-18.44 292.67 162.99 720.24 306.07 939.92l-79.65 11.06c5.16-13.27 11.06-36.86 0-55.29-177.75-301.51-365.08-565.42-236.75-1268.7 61.95-334.69 207.98-953.19 41.3-1305.57zM3002.63 2917.15l22.86-50.86c9.59 187.98 32.45 440.84 83.34 534.46 84.08 156.28 196.18 329.52 213.15 518.98 18.44 209.36-42.78 411.35-94.4 562.48-22.87 64.87-56.8 182.82-56.8 260.96 0 47.18-26.55 155.55 87.77 277.92-27.29-111.31-39.83-256.54-17.7-403.24 8.85-53.81 82.6-291.19 101.78-375.97 0 2.22 27.29-146.7 27.29-171.02 0-55.3 10.32-113.53 0-173.24-17.7-103.95-59.74-270.55-114.32-364.91-61.21-106.16-156.36-409.88-150.46-541.1 0-7.37 7.38-20.64 8.12-14 37.61 288.23 143.82 482.12 240.43 719.5 44.25 109.1 47.2 162.91 49.42 337.62 4.42 269.82-243.39 615.56-104.73 940.66.73-89.94 9.58-225.58 20.65-302.99 17.7-115 80.39-213.04 120.22-314.04 29.5-74.46 59.73-199.78 63.42-279.4 14.02-338.37-180.7-471.8-251.5-801.32-.73-4.42 5.17-3.69 5.17-8.11 59 114.26 152.67 328.05 209.46 465.17 87.76 211.57 69.32 341.32 34.66 523.4 88.5-91.4 123.17-202.73 118-328.05-2.2-42.75-33.92-117.21-47.93-159.97-28.03-83.3-81.87-187.98-123.17-264.65-2.21-3.68-5.9-8.1-2.21-14 36.87 38.33 98.82 152.6 122.43 206.4 4.42 10.33 66.37 125.33 81.86 268.34 25.81-45.7 47.94-108.36 47.94-165.13 0-28.75-8.85-106.15-20.65-143.75-27.29-88.46-110.63-201.25-134.23-233.69-54.58-74.45-72.28-168.08-102.52-258.75-33.92-99.52-109.15-252.12-192.5-403.24-2.94-4.43-8.84-20.64-5.16-17.7 109.9 72.25 205.78 364.18 257.4 496.13 40.57 103.95 87.77 190.2 154.88 248.44 21.4 18.43 141.61 113.52 147.51 94.36 4.42-16.22-71.54-89.2-136.44-189.46-45-70.03-95.14-145.23-112.85-230-6.63-29.5 32.46 47.18 37.62 58.97 55.31 109.1 259.6 434.2 392.36 368.6-53.84-2.22-142.34-77.41-202.08-179.88-61.21-105.42-118.74-232.21-171.84-297.09-69.33-86.25-225.69-269.8-261.83-446 14.75 33.91 112.85 172.5 141.61 201.26 38.35 38.33 104.73 66.34 186.6 66.34 38.35 0 93.66-5.16 123.9-24.32-95.88 5.16-238.96-104.68-310.5-176.2-31.71-31.7-251.5-280.86-218.3-275.7 56.78 61.92 428.5 555.84 592.23 392.18-278.05-20.64-448.42-336.9-590.03-510.87-28.76-47.92-140.13-175.45-179.22-207.89-31.71-27.27-78.17-58.23-107.68-79.61-31.71-23.6-42.77-36.13 20.65-34.65 14.02 0 112.85 67.82 168.16 131.96 36.14 42.75 98.83 127.53 132.76 173.97 53.1 72.25 163.73 243.28 219.78 250.65 99.57 13.27 263.3-40.55 258.14-162.18-179.22 29.48-240.44-50.87-333.37-143.76-95.88-95.83-256.66-288.24-384.25-309.62l95.14-11.8c124.64 60.46 210.93 184.3 326.73 300.05 55.31 56.02 97.35 103.2 171.1 126.8 24.34 8.1 131.28 2.2 169.64-14.75 35.4 207.15-133.5 246.96-281 263.17 61.95 84.78 268.46 185.04 377.61 193.15-8.85 151.86-264.77 165.13-363.6 140.8 71.54 104.68 163.73 219.68 219.05 330.26 39.09 78.15 182.9 300.04 281.73 309.62-111.36 47.18-213.88 38.34-349.59 14 113.58 235.17-104.73 553.64-201.34 696.65-130.54 192.41-199.87 457.06-181.43 809.44-192.5-96.57-213.89-277.92-179.22-471.07 23.6-135.64 130.54-444.52 140.13-580.16 5.9-80.36-22.13-340.59-118-482.86-166.69-247.7-159.31-369.34-171.85-665.69z"/>
	<path d="m3039.5 3271.74 78.18 186.51c-45.72 305.2-159.3 651.68-496.36 739.4 188.81 119.43 373.2-47.91 408.6-81.09 149.71-136.38 216.83-297.82 197.65-438.63l34.67 92.89c8.85 104.68-60.48 201.99-157.1 311.83-177 202.73-429.98 245.49-557.57 92.15 309.76-2.21 508.9-384.08 522.17-675.27 3.69-80.35-30.24-157.02-30.24-227.79z"/>
	<path d="m3229.79 3659.5-104-195.35-16.22 19.17c41.3 209.36-93.67 446.73-143.08 521.93 49.41-18.43 85.55-95.1 106.2-137.12 42.78-83.3 66.38-210.84 81.87-308.15 102.52 140.8-14.75 300.04-50.15 364.18-83.34 146.7-255.93 240.32-292.07 257.27-5.9 2.95 7.38 8.11 14.76 6.64 73.01-15.48 165.94-81.83 246.33-178.4 95.14-115 163.73-265.39 156.36-350.17zM843.88 5813.57l-56.8 63.4c-179.21-7.37-260.34 103.2-415.22 242.54-93.67 84.04-291.33 348.69-352.54 302.24-59.74-44.96-56.05-62.66-108.42-3.68-30.97 34.65-70.06 101.73-70.06 159.23 0 65.61 14.75 129.01 11.06 198.3-104.73 120.9-327.46 263.18-511.1 277.19-16.97-87.73-34.67-232.22-9.6-322.15 117.27-411.35 626.9-704.76 1087.86-1094.73 343.69-289.72 600.35-343.53 934.45-239.59 147.5 45.7 335.58 7.38 621 75.93l47.94 106.9c-61.22-75.2-275.1-80.36-480.87-100.26-160.78-15.48-317.88-81.1-406.38-93.62-217.57-30.97-508.9 148.17-729.42 344.26 11.8-15.48-160.04 146.7-309.02 244.75-92.93 61.92-163.73 135.64-212.41 157.76-82.6 37.6-101.78 46.44-163 137.85-64.9 96.58-289.1 233.7-338.52 504.24-11.06 61.19-16.23 167.34 5.16 230 76.7-5.16 252.98-102.46 314.93-145.22 160.78-110.58 69.33-160.7 102.51-328.79 15.5-79.61 94.4-232.21 181.44-206.41 43.51 13.27 47.94 79.62 101.04 25.8l385.73-389.97c68.59-57.5 107.68-94.36 199.87-109.84 70.06-11.06 112.84-8.11 170.37-36.13z"/>
	<path d="M2164.8 5629.28c36.87 9.58 81.86 16.21 118.74 28.75 28.02 9.58 8.85 33.9-2.22 33.9-20.65 0-39.82-.73-59-8.1-35.4-13.27-80.39-28.75-118-36.12-74.5-14.01-148.25-6.64-225.69-3.7-60.48 2.22-125.38 19.91-185.12 25.07-88.5 8.85-257.4 29.5-344.42 0-81.13-27.27-191.76-25.8-297.97 44.24-43.51 28.75-81.13 61.18-131.28 95.1-14.75 10.31-53.84 26.53-95.88 56.76-89.24 145.22-306.8 518.98-429.98 613.34-87.02 67.08-272.14 222.63-328.93 356.8-35.4 86.25-171.85 272.76-196.19 372.28-28.02 114.26-57.53 241.8-11.8 389.24 120.22-11.06 334.84-179.14 375.4-255.8 0-95.84-36.87-284.56 26.56-372.29 14.75-20.64 56.05-68.56 78.17-78.88-29.5-19.9-53.1-70.77-37.61-99.52 3.69-8.1 14.75-14.74 23.6-7.37-33.19 53.08 46.47 101.73 56.8 109.84 61.94 47.18 215.35-219.68 244.85-272.76 53.1-97.31 179.96-381.13 276.57-396.6-8.1-19.18-77.44-44.98-77.44-58.98 0-11.06 8.12-9.59 16.23-9.59 21.39 14 51.63 22.85 106.94 22.12 139.4-1.48 317.88-86.25 421.13-168.82 6.64-5.9 89.98-88.46 88.5-43.5-12.53 20.65-74.49 84.78-102.51 102.48 61.21 81.82 331.89 176.92 374.66 187.24 137.18 33.18 371.72 52.34 498.57 56.77 34.67.73 93.67 36.86 138.66 50.86 53.1 16.22 206.5 30.96 261.08-7.37 29.5-12.53 216.84-99.52 238.23-115 25.07-18.43 58.26-41.28 83.34-53.82 23.6-11.8 41.3 5.16 19.91 20.65-45.73 34.64-129.07 93.62-169.63 120.16 19.91 2.95 115.8-18.43 179.22-46.45 9.59-4.42 16.96 5.9 17.7 7.38-11.06 47.18-165.94 69.3-212.4 72.98 146.76 137.12 631.32 298.56 737.52 323.62l-51.63 30.23c-251.5-58.98-575.27-205.68-761.86-346.48-50.16 9.58-103.26 54.55-152.67 54.55-56.8 0-115.06-1.47-164.47-12.53-81.87-18.43-97.36-63.4-347.38-70.77-314.19-8.85-482.34-61.92-739.74-245.48-89.24 76.66-279.53 123.84-351.8 138.59-167.42 121.63-192.5 266.86-272.15 398.08-38.35 63.4-146.03 372.28-345.9 313.3-109.9 95.1-67.86 250.65-53.84 403.99-37.62 124.58-355.5 328.78-460.22 294.13-29.5-35.38-41.3-241.8-28.77-296.35 72.28-307.4 139.4-336.15 187.34-420.2 33.92-58.97 51.62-111.31 78.91-154.07 109.9-173.97 224.21-229.26 371.72-376.7 38.35-38.34 87.03-117.21 124.64-171.77 65.64-94.36 117.27-190.93 170.37-268.33 95.88-140.07 132.02-159.97 193.23-196.83 77.44-46.45 153.4-126.06 248.55-140.8 38.35-6.64 100.3-5.17 120.22.73 43.51 13.27 96.61 23.6 143.08 25.8 53.1 2.95 116.53-1.47 170.37-6.63 58.26-5.16 393.84-43.5 442.52-43.5 73.75-.73 123.16-12.53 159.3-25.06 30.98-9.58 64.9-28.01 96.62-33.91 111.37-19.9 178.48-66.35 262.56-130.48 42.78-32.44 146.03-7.38 63.43 11.05-55.32 12.54-230.85 121.64-47.2 108.37 13.27-1.47.73 16.22-3.7 16.22-85.55 12.53-374.66 34.65-407.85 89.94zM1029 5613.06c9.58-13.27 14.75 8.84 2.21 22.11-19.91 19.9-170.37 141.54-213.15 139.33-16.96-.74-6.63-11.06 0-13.27 56.8-16.95 185.86-112.79 210.94-148.17z"/>
	<path d="m2256.98 5557.03-40.56 13.27c-56.79-165.87-109.9-286.77-151.93-434.94-26.55-92.89 43.51-218.95 109.15-268.34 45.73.74 8.12 18.43-2.95 34.65-39.09 53.08-92.19 137.85-78.17 204.2 36.13 172.5 88.5 258.02 164.46 451.16zM624.1 5874.02l53.1-18.43c-61.22-19.9-98.1-58.97-163-27.27-63.43 31.7-138.65 89.2-191.76 142.27-23.6 23.6-137.18 138.6-149.72 158.5-6.63 9.58-14 51.6 2.95 34.65 53.1-53.08 125.38-136.38 179.96-193.88 54.58-58.24 101.04-98.05 186.6-127.54 41.3-14.74 64.16 10.32 81.86 31.7z"/>
	<path d="m553.29 5824.63-32.45 8.11c18.44-8.85 10.32-34.65 25.81-43.5 4.43-2.2 7.38 21.38 6.64 35.4zM1214.12 6047.26c14.01-14 14.75 9.59-2.95 24.33-26.55 22.85-264.04 110.58-315.67 87.73-19.17-8.85-7.37-16.22.74-14.75 74.5 9.58 276.58-56.03 317.88-97.3zM815.85 6239.67c-42.04-30.96-260.35 373.75-302.39 472.54-6.63 15.48 10.33 10.32 11.8 7.37 57.53-113.53 207.25-393.66 290.6-471.06 2.94-2.95-2.22-5.9 0-8.85zM281.88 6874.39c-20.65-20.64-125.38 112.05-138.66 160.7-1.47 6.64 8.85 1.48 9.6.74 25.07-47.18 87.76-134.16 129.06-157.75 1.47-1.48-.74-2.95 0-3.7zM-116.39 6300.12c-24.34-22.12-134.23 133.43-146.77 188.72-1.47 8.1 10.33 1.47 11.07 0 25.07-53.82 90.71-155.55 135.7-184.3 1.48-1.47-1.47-2.95 0-4.42zM-39.68 6330.34l25.81-.73c-3.69-33.18-8.85-72.99-16.96-86.26-5.17-7.37-16.23-5.9-16.97.74-3.68 24.33 14.75 41.28 8.12 86.25zM16.37 7067.53c-12.54-13.27-76.7 66.35-85.56 96.58-.73 3.68 5.9.73 6.64.73 19.92-26.54 58.27-72.98 78.18-92.88 2.21-2.22 0-4.43.74-4.43zM28.9 7102.18c-17.7-1.47-28.02 63.4-16.22 81.1 1.48 2.94 4.43-.75 4.43-1.48 1.47-19.9 7.37-58.98 12.53-76.67.74-1.47-1.47-2.21-.73-2.95zM81.27 7126.5c-14.75-.73-16.22 51.61-4.42 66.36 1.47 1.47 3.68-1.48 3.68-2.22-1.47-16.21-.73-47.18 2.22-61.92.73-1.47-1.48-2.21-1.48-2.21zM161.66 7226.77c21.39-20.65-17.7-78.88-43.51-91.42-3.69-2.2-8.85 3.7-5.17 8.11 15.5 17.7 36.14 48.66 41.3 79.62.74 2.21 5.9 3.69 7.38 3.69zM-416.56 6501.37c-11.06-15.48-92.93 71.5-96.62 108.37 0 4.42 8.11 3.68 8.85 2.95 19.92-30.23 63.43-81.83 89.98-104.68 1.48-1.48-.74-5.16-2.21-6.64zM-381.9 6542.65c-8.11-9.58-58.26 54.56-58.26 78.88 0 3.69 5.9 2.21 5.9 2.21 11.8-22.11 37.61-59.7 54.57-76.66.74-1.48-1.47-3.69-2.2-4.43zM-318.47 6588.36c-9.59-9.58-43.51 25.06-35.4 42.76 1.47 3.68 11.06 2.95 11.8 1.47 8.11-15.48 14.75-25.8 24.34-35.38.73-1.48 1.47-7.38-.74-8.85zM1812.25 5714.79c-19.9 5.9-19.17-16.22 2.22-24.33 47.94-19.9 296.48-7.37 335.57 38.34 13.28 16.21-.73 22.11-8.11 18.43-64.17-34.65-276.57-50.13-329.68-32.44zM2317.46 6258.84a5.66 5.66 0 0 1 5.9-5.16c27.3 2.2 67.85 42.02 129.8 43.49 39.1 1.47 87.04 1.47 121.7-8.1 56.05-15.49 114.32-79.63 188.8-79.63 41.3-.73 42.78 31.7 24.35 26.54-42.78-11.05-76.7 11.06-107.68 26.54-59 29.49-105.47 55.3-179.22 56.77-75.97 2.2-183.65-22.12-183.65-60.45zM2964.28 6381.95c-.74 2.2-1.48 6.63.73 12.53 44.26 30.22 168.9 78.88 256.66 120.9 18.44 8.84 147.51 64.13 157.84 55.29 20.65-17.7-136.45-66.35-204.3-98.79-72.28-34.64-193.97-102.47-210.93-89.93zM3048.35 1959.54l-101.04-10.32c185.12 47.18 290.59 202.73 414.5 326.58 52.36 52.34 160.04 165.13 236 190.93 36.88 12.53 188.07-1.47 207.25-50.13l-17.7-28.01-36.14 2.95c4.43 45.7-114.32 71.5-165.2 40.54-113.59-70.03-139.4-111.31-236.02-207.89-85.55-85.5-181.43-223.36-301.65-264.65zM3407.53 3405.91c4.43 6.64 8.11 23.6 5.16 25.06-4.42 1.48-14-18.42-15.48-20.64-2.95-3.68-6.64-10.32-6.64-15.48.74-11.8 13.27 5.16 16.96 11.06zM3976.17 4202.81l-50.9-56.76c-33.18-34.65-163.72-210.1-206.5-258.75l-22.86 41.28c72.27 123.1 127.59 246.96 280.26 274.23zM5153.26 6950.32l-47.2-58.24c-463.9-39.8-859.96-58.97-1202.9-140.06l-53.11 30.22c421.13 134.9 872.5 110.58 1303.21 168.08z"/>
	<path d="m4888.5 6674.61 37.6 11.06-1.47 37.6c165.94 53.07 314.19 282.34 387.94 406.92 34.67 58.98 264.04 410.62 337.05 462.96 167.42 119.42 338.53 272.76 463.17 446.74 95.14 131.95 279.53 375.96 458.74 423.88-5.9 77.4 255.19 456.32 252.24 631.04 14.75 140.06-32.45 447.47-50.89 605.23-14.01 121.64-132.02 262.44-148.98 316.99-59.74 185.04-289.85 244.01-390.15 334.68-101.05 92.15-226.43 243.28-247.08 389.24 148.25 8.85 365.82 32.44 552.41-16.95 38.36-67.83 52.37-155.55 53.1-207.15 2.96-167.35 47.95-174.72 81.13-213.79 73.02-86.99 88.5-70.03 232.33-76.67 78.17-4.42 177-77.4 179.22-202.72 3.68-210.84-45.73-426.1-45.73-633.25 0-249.17 31.71-530.78 116.53-821.23 14.75-49.4-30.98-188.72-63.43-253.6-67.85-115.73-148.98-150.38-207.98-221.15-86.3-101.73-217.57-266.13-104.73-415.78 21.39-28-4.43-118.68 28.02-157.75 193.24-232.22 214.63-261.7 246.34-307.41 183.64-266.13 337.05-830.82 258.14-1158.13-75.97-317.73-327.47-841.87-587.82-971.62-313.45-156.28-460.22-86.98-753.01-70.77-222 12.54-371.72-32.43-567.17-58.97l118.01-44.97c463.17 151.12 772.2-137.85 1241.26 111.32 252.98 134.17 472.02 608.92 542.82 791.74 124.65 319.2 99.57 493.92 50.16 794.69-98.1 481.38-306.82 726.13-365.82 804.27-125.38 165.13-143.08 100.26-143.08 261.7 0 69.3-64.16 101.74-46.46 181.35 30.24 139.33 169.63 235.9 274.36 333.21 61.95 57.5 167.42 218.95 137.18 380.4-46.47 247.7-102.52 420.93-115.8 730.55-6.63 144.49 4.43 321.42 17.7 460.74 7.38 80.36 9.6 168.08 9.6 247.7 0 76.67-39.1 168.08-64.17 193.14-119.48 120.17-227.9 46.45-297.22 84.04-39.1 21.38-86.3 75.93-98.1 124.59-11.06 45.7-19.17 109.1-28.02 182.08-9.59 75.2-40.57 173.24-58.27 178.4-136.44 38.34-491.2 49.4-664.51-5.9 57.53-168.07 148.24-350.16 298.7-460 117.27-86.25 245.6-135.64 295.75-204.2 150.45-208.63 168.9-269.81 205.77-355.33 24.34-146.7 95.88-572.06 42.78-715.07-53.84-146.7-127.6-368.6-233.06-502.03-84.08-58.97-157.84-112.79-257.4-216.73-113.58-120.16-260.35-353.85-388.68-471.07-95.14-93.62-300.18-234.42-341.48-288.24-78.91-103.94-174.8-217.47-237.48-333.94-103.26-193.89-217.57-381.13-407.86-485.81-.73-19.9-2.2-36.12-2.2-56.03z"/>
	<path d="m5589.15 7585.78 87.76 58.24c0 182.08 226.42 329.52 343.69 475.48 39.83 49.4 123.9 166.6 134.97 250.65 11.8 81.83 98.83 166.6 131.28 224.1 93.66 202.73-57.53 541.1-139.4 726.14-39.08 89.2-167.41 254.33-229.37 322.15-39.09 42.75-61.95 56.76-88.5 112.79-12.54 26.54-33.93 136.38-84.08 144.49-56.05 22.11-125.38 51.6-182.17 73.72-82.6 33.17-152.67 65.6-210.93 127.53-30.98 31.7-86.3 184.3-108.42 246.22 0 .74 92.93 13.27 98.1 13.27 151.92 14.74 271.4 25.8 451.36 5.9 25.81-42.76 51.63-109.1 51.63-162.18 0-50.87 2.21-120.9 29.5-162.19 36.14-54.55 126.85-131.95 164.47-149.64 11.8-64.88-40.57-64.88-76.7-44.24-30.98 17.7-79.66 78.15-105.47 104.68-10.33 10.33-50.9 64.88-56.8 30.97 58.27-56.03 103.26-115 167.43-157.02 24.34-16.22 59-11.06 70.06-1.48 22.13 19.17 16.23 54.55 36.88 66.35 31.71 17.7 89.98 19.17 120.95 5.9 20.66-8.11 29.5-36.86 35.4-67.09 25.82-119.42 78.92-268.34 120.22-369.33 82.6-202 254.45-460.74 351.8-634.72l22.87 78.88c-52.37 36.86-289.85 535.94-332.63 611.87-53.1 94.36-74.49 254.33-103.25 330.26-52.37 139.33-80.4 103.94-228.64 101.73-71.54 31.7-165.2 116.47-165.2 190.93 0 98.78-20.65 188.72-57.53 269.08-104.73 16.21-478.66 31.7-666.73-45.71 97.36-209.36 67.86-297.09 297.97-409.14 81.86-39.8 188.07-60.45 244.86-113.53 56.05-52.34 65.64-139.33 115.05-182.08 186.6-166.6 434.4-602.29 421.13-982.68-17.7-50.86-84.82-128.27-123.17-202.73-37.61-75.19-64.16-178.4-75.23-205.67-62.69-159.97-276.57-267.6-347.37-400.3-41.3-77.4-101.04-198.3-115.8-281.6zM6956.53 10143.09c-29.5 21.38-83.35 32.44-114.32 10.32-17.7-12.53-65.64-30.22-99.57-27.28-50.89 3.7-101.78 77.41-127.6 114.27-13.27 19.17-36.13 39.8-44.98 58.97-28.76 62.67 31.71-5.9 45.73-26.53 35.4-50.13 73.75-140.07 157.83-126.06 42.77 7.37 75.96 36.12 126.12 36.12 20.65 0 36.13-5.9 50.89-15.48 6.63-5.16 26.55-25.07 5.9-24.33z"/>
	<path d="m6698.39 8838.26-86.3-188.72c14.02 33.91 25.82 121.64 10.33 153.34-14.75 30.96-53.1 75.93-103.99 73.72.74 72.24-17.7 109.84-45.72 183.56 12.53-5.9 41.3-60.45 45.72-75.2 7.38-23.59 19.18-58.97 20.65-84.04 30.98-14.74 75.97-39.8 88.5-62.66 22.13-42.02 47.95-23.59 70.81 0z"/>
	<path d="M6451.32 9115.45c-11.8 16.95-21.4 39.07-30.98 58.24-5.16 8.84-16.22 26.53-16.22 34.64 0 24.33 28.02-32.43 28.76-34.64 4.42-8.11 32.45-56.77 18.44-58.24zM6257.35 9580.61c14.75-16.21 61.21-129 68.59-148.17 8.85-20.64 39.82-114.27 38.35-122.37-5.9-26.54-36.88 75.93-53.84 114.26-13.28 30.96-67.12 150.39-53.1 156.28zM6134.18 7952.9c4.42 27.27 50.89 100.26 115.8 181.35 64.16 80.35 177 177.66 188.8 173.97 21.39-7.37-114.32-115-172.58-189.45-35.4-44.97-120.96-176.2-132.02-165.87zM6702.82 8653.23c-3.7 23.59-3.7 28.75 20.65 89.94 45.72 112.79 61.95 120.9 73.75 120.9 22.86.73-8.85-23.6-43.52-106.9-21.38-52.34-36.87-108.36-50.88-103.94zM6239.65 10404.06c17.7 18.42 91.45-28.02 105.46-36.13 14.75-8.1 74.5-58.24 70.8-69.3-6.63-20.63-59 33.92-87.02 48.66-22.13 11.8-94.4 42.02-89.24 56.77z" fill="#191919"/>
	<path d="M6393.79 10376.04c-11.8-8.1-27.29 8.11-40.56 18.43-22.87 19.17-22.87 35.39-11.8 30.23 4.42-2.22 8.85-9.59 22.86-21.38 19.17-15.48 34.66-24.33 29.5-27.28zM6424.77 10418.8c-11.8-8.11-22.13 2.95-35.4 13.27-22.87 19.17-19.18 35.38-10.33 30.96 4.42-2.21 6.64-10.32 20.65-21.38 19.18-15.48 30.24-19.9 25.08-22.85zM6469.02 10476.3c-9.59-6.63-16.23 3.69-26.55 12.53-17.7 14.75-15.5 27.28-8.12 23.6 2.95-2.22 4.43-5.9 16.23-15.49 14.75-12.53 22.86-17.7 18.44-20.64zM6505.16 10509.47c-9.6-6.63-13.28 3.69-22.13 13.27-16.96 17.7-16.96 14.75-13.27 22.86 1.47 2.2 4.42-7.38 16.22-16.96 15.49-12.53 23.6-16.22 19.18-19.17zM6544.25 10550.02c-8.85-5.9-15.5 1.47-22.87 8.85-14.75 14.74-11.8 14-8.85 20.64 1.48 2.2 4.43-5.9 14.75-13.27 14.02-10.32 20.65-14.01 16.97-16.22zM7222.77 6056.85c-4.42 193.88 10.33 460-26.55 619.24-30.97 136.38-102.51 293.4-168.15 411.35-87.03 155.54 33.92 16.22 93.66-99.52 45-89.2 95.14-234.43 121.7-388.5 12.53-73.72 28.76-415.04-20.66-542.57zM5960.86 5072.7c-13.28-11.06-35.4 2.2-55.31 4.42-28.03 3.69-38.36 8.1-60.48 10.32-5.16.74-28.03 1.48-7.38 11.06 21.4 8.85 59-.74 77.44-2.95 5.17-.74 47.2-11.8 45.73-22.85zM5676.17 5090.39c6.64 11.06 32.45 20.64 71.54 24.33 16.23 1.47 32.46-.74 49.42-.74 17.7 0-2.95-14-10.33-14.74-26.55-5.16-88.5-15.49-110.63-8.85zM6901.21 5174.43l55.32 57.5c306.07 9.58 731.63-3.69 962.47 238.85 135.7 143.01 264.04 309.62 308.29 501.29 25.08 106.15 45.73 210.84 56.05 322.15 2.21 19.9 19.92 188.72 16.97 266.13-32.46-80.36-63.43-208.63-69.33-238.85a7743.03 7743.03 0 0 0-64.17-316.26c-27.29-123.85-146.77-387.02-276.57-429.78 212.4 180.61 282.47 535.2 318.61 777 21.39 156.28 65.64 266.86 97.36 319.2 64.9 108.37 147.5 213.05 286.16 190.93 5.16 39.08-44.25 87.73-67.12 103.95-24.34 17.7-86.29 22.85-120.22 17.7-128.33-19.91-148.24-144.5-180.69-223.38-30.24-74.45-66.38-272.02-73.02-328.78-17.7-156.29-49.41-244.01-98.82-359.02-4.43-11.05-82.6-170.29-75.23-92.88 156.35 237.37 154.14 559.53 191.75 680.42 42.04 134.91 79.66 394.4 314.93 373.02 104-9.58 167.42-129 182.9-224.1-371.7 12.53-294.27-269.08-335.57-587.54-25.81-191.67-54.58-394.4-151.93-540.36-333.36-498.34-628.38-471.07-1278.14-507.2zM5999.21 5075.65c106.2-44.24 199.13-33.18 300.18-25.07 82.6 7.37 230.84 56.77 296.48 104.68 7.38 5.16-22.12 1.48-25.81.74-134.97-44.23-204.3-76.67-318.61-87.73-52.37-5.16-101.04-7.37-156.36-1.47-18.44 2.21-85.55 19.9-95.88 8.85z"/>
	<path d="m7090.02 5420.65-23.6-44.97c171.84 42.76 325.99 126.06 413.75 245.49 120.22 162.92 157.83 370.07 163 465.9 29.5 497.6-126.12 1009.95-216.1 1528.93-53.1 301.51-69.33 625.88 184.38 977.52 173.32 238.85 316.4 601.54 281 897.9 78.92-38.34 280.26-267.6 296.49-451.9 14.75-168.82 4.42-354.6-10.33-424.62-22.86-107.63-95.14-255.81-130.54-355.33-72.28-204.94-160.78-482.12-132.02-718.76 5.9 97.3 29.5 211.57 43.52 302.25 22.86 145.22 66.37 311.1 146.03 461.48 38.35 72.98 112.1 182.08 206.5 182.08 44.26 0 118.01-28 164.47-81.09-98.82-16.95-185.12-111.31-219.78-173.97-27.29-48.66-84.08-199.05-97.35-252.12-22.13-89.2-53.1-447.48-53.84-563.95-2.95-300.78 10.32-582.38-107.68-1032.07 28.02 53.82 79.65 203.47 89.98 289.72 29.5 235.9 48.67 488.75 48.67 731.29 0 210.84 89.24 419.46 311.24 433.47-86.29-37.6-174.06-345.75-175.53-447.48-2.21-129-3.69-308.88 72.28-405.45l35.4 11.8c-22.86 43.49-45.73 121.63-47.94 193.87-5.16 266.13 15.49 548.47 216.83 648-134.97 118.68-306.07-15.49-365.07-89.2 0 205.67 112.1 603.02 373.19 603.02-22.87 165.13-222.74 229.26-354.76 159.97 73.76 166.6 67.86 397.34 28.03 593.43-22.86 116.48-259.61 480.65-399 474.75 96.61-549.94-282.48-849.98-434.4-1300.4-50.9-149.65-73.76-316.25-48.69-514.56 21.4-171.76 84.82-473.27 155.62-801.32 140.87-657.58 192.5-1420.57-413.75-1543.68z"/>
	<path d="m8366.68 8491.05-52.36 7.37c-45.73-37.6-134.97-139.33-167.42-238.11-25.81-80.36-50.15-161.45-62.7-244.01 27.3-11.06 52.37 165.86 84.09 224.1 13.27 23.6 39.82 141.54 198.4 250.65zM8027.42 9386.73l-38.35 33.91c9.59-301.5-153.4-625.13-234.54-760.78-86.29-144.49-261.82-444.52-277.3-607.44-36.88-392.92 39.08-700.33 133.48-1003.32-46.46 218.95-146.03 622.2-115.79 961.3 20.65 230.74 236.75 544.05 331.15 732.77 107.68 213.78 188.81 368.6 201.35 643.56zM7912.36 6883.97c4.43-56.02 11.07-109.1-8.1-168.81-9.6 44.97 5.15 109.1-11.8 155.54-6.65 17.7 17.7 21.38 19.9 13.27zM7512.62 5600.53c51.63 24.32 154.15 269.07 169.64 331 42.03 173.97 66.37 345 66.37 527.08 17.7-311.83-14.75-388.5-31.71-489.49-19.91-122.37-170.37-423.15-204.3-368.6zM7047.24 5321.87l29.5 53.81c61.22-5.16 181.44 35.39 236.75 63.4 39.83 19.9 142.34 98.78 127.6 64.87-9.6-21.38-154.15-93.62-186.6-104.68-57.53-19.9-170.37-45.7-207.25-77.4z"/>
	<path d="m7039.13 5321.87-53.1-100.26c14.01 4.42 20.65 49.4 71.54 66.35 68.59 22.85 165.2 49.39 265.5 84.77 157.1 53.82 318.62 140.07 362.87 226.32 8.12 14.74-89.98-69.3-105.46-79.62-148.25-96.57-360.66-185.77-541.35-197.56zM5578.82 4963.6c-30.24 144.48 8.85 322.15 40.56 466.63 45 202 207.25 670.85 270.68 880.2 53.1 173.99 57.52 546.27 29.5 798.39-527.34-224.85-1632.16-625.88-2222.18-858.83-209.46-82.57-331.89-193.14-358.44-222.63-89.98-98.79-168.9-225.58-172.58-361.22-4.43-184.3 192.5-392.19 257.4-467.38 224.94-258.76 593.7-735.72 517-1039.44l378.36 510.13 757.44 325.84 502.26-31.7z"/>
	<path d="M5529.4 4955.48c-53.1 298.57 130.55 817.55 219.79 1057.87 127.6 342.06 137.92 622.19 129.8 1035.75-766.29-364.9-2002.39-726.13-2335.02-937.7-103.99-66.35-289.84-221.9-315.66-399.56-24.34-171.03 105.47-342.8 276.58-526.35 125.38-133.43 219.04-280.14 267.72-357.54 130.54-207.89 205.77-308.15 255.92-587.54l519.22 624.4 981.66 90.67z" fill="#d32820"/>
	<path d="m5499.9 4829.42-322.3 2.22-896.1-345.75-247.07-294.13c43.52 193.14-57.53 461.48-111.37 613.34-81.86 227.79-249.28 499.81-272.88 744.56-28.03 290.45 32.45 483.6 343.69 662.73 422.6 242.54 786.2 137.12 936.66 10.32 350.33-295.61 388.68-1023.95 569.37-1393.29z"/>
	<path d="M5390.75 4827.95 4083.1 4401.12c-37.62 339.84-327.46 779.2-388.68 1155.17-39.09 244.01 67.12 520.46 453.58 697.39 331.89 151.86 637.23 42.75 784.73-112.06 296.49-309.62 390.16-978.25 458-1313.67z" fill="#fff500"/>
	<path d="M4440.81 6136.46c-91.45 237.38-373.93 541.84-584.12 680.43-153.4-13.27-302.39-35.39-434.4-94.36 299.43-199.04 478.65-387.03 626.9-687.06 103.98 33.17 276.57 119.42 391.62 101z"/>
	<path d="M3841.2 6758.65c222.73-158.5 421.87-391.45 535.45-590.49-77.44-13.27-232.33-58.97-297.97-88.46-112.1 239.59-409.33 554.37-544.3 624.4 110.64 30.96 199.14 47.18 306.82 54.55z" fill="#fff500"/>
	<path d="m4153.91 6087.07-20.65-11.06c-129.07 257.28-199.87 350.17-359.91 501.3-3.7 3.68 8.1 14 17.7 5.15 258.87-232.21 324.51-416.51 362.86-495.39zM3541.76 6752.02l-40.56-10.32c82.6-22.12 153.4-69.3 239.7-137.12 4.42-3.69 12.53 9.58 2.2 17.69-145.29 113.53-117.26 104.68-201.34 129.75zM5762.46 4743.17c2.22 62.66 0 98.79-79.65 81.83-83.34-17.7-229.37-39.8-303.12-1.47-61.96 31.7-116.53 61.92-148.25 173.24 96.62-112.8 169.63-169.56 329.68-166.6 47.2 1.47 92.93 25.8 166.68 22.1 61.22-2.2 54.58-95.83 34.66-109.1zM4161.29 4332.56c0-60.45-32.45-139.33-45.73-157.02-26.55-36.86-78.18-89.94-126.86-89.94 19.18-31.7 118.75 35.38 145.3 84.78 26.55 50.13 46.46 101.73 46.46 157.76 0 14.74-17.7 11.05-19.17 4.42z"/>
	<path d="M5200.47 4710c148.24-75.93 264.77-140.07 455.05-145.23 329.68-8.84 379.83 365.65 106.2 368.6-101.03 1.47-287.63 8.1-328.93 43.5-83.34 72.24-266.99 716.54-339.27 811.64-202.08 413.56-561.26 439.36-958.78 303.72-613.63-210.1-270.68-869.88-162.26-1194.25 75.96-225.58 94.4-331.73 84.08-527.09-8.12-151.86-316.4-291.19-82.6-398.82 69.32-32.43 186.59 6.64 233.05 100.26 65.64 133.43 74.5 262.44 226.43 362.7 193.97 127.53 520.7 237.37 767.03 274.97z"/>
	<path d="M4278.55 4391.53c-25.07-16.95-35.4-104.68-51.62-147.43-41.3-109.85-70.07-208.63-195.45-234.43-45.73-9.58-104.73 16.22-103.25 69.3 2.95 105.41 129.8 82.56 170.37 297.08 19.91 107.63 12.53 288.98-36.14 420.94-167.42 450.42-463.17 1066.71 85.55 1254.7 477.18 162.91 760.4 37.6 949.2-358.28 123.9-259.49 238.22-734.24 322.3-778.47 17.7-9.59 50.9-30.23 107.68-27.28 223.47 13.27 401.22-25.8 344.43-145.22-79.65-165.87-390.9-114.27-493.4-56.03-36.89 21.38-72.29 48.65-120.23 79.62-331.88-58.24-623.95-135.65-979.44-374.5z" fill="#fff500"/>
	<path d="M4406.15 4577.3c92.93 47.92 197.65 105.42 309.76 143.02 30.98 10.32 83.34 30.23 116.53 33.91.74 0 64.16-6.63 30.98-11.8-117.27-16.21-373.2-135.64-446.95-171.76-8.11-3.69-8.11 5.9-10.32 6.64zM4541.11 4704.1c59 36.86 123.17 67.09 203.56 92.15 20.65 6.64 55.32 17.7 75.97 19.9.74 0 42.78-8.84 21.39-11.79-76.7-11.06-235.27-86.99-290.59-106.9-5.9-2.2-8.85 6.64-10.33 6.64zM4637.73 4802.89c59 36.86 46.47 28 75.97 40.54 19.91 8.11 55.31 16.96 75.96 19.9.74 0 42.04-7.37 21.4-11.79-76.71-17.7-105.48-36.86-160.8-56.76-5.9-2.22-11.8 7.37-12.53 8.1zM4960.77 4783.72c2.95-2.21 10.32-6.64 10.32-7.37-1.47-2.21-25.07-10.32-40.56-13.27-4.42-.74-8.85 6.63-12.54 9.58-2.95 2.21 36.88 16.22 42.78 11.06zM4915.78 4840.48c2.95-2.95 10.33-7.37 9.59-8.1-.74-2.22-22.87-11.06-38.35-14.01-4.43-.74-9.6 8.84-13.28 11.8-2.95 2.2 36.14 14.74 42.04 10.31zM4878.17 4884.71c2.95-2.2 10.32-7.37 9.58-7.37-1.47-2.95-22.86-11.06-38.35-14-3.69-.74-10.32 6.63-14.01 9.58-2.95 2.21 36.88 16.22 42.78 11.8zM4836.86 4934.1c2.95-2.94 10.33-11.05 10.33-11.79-1.48-2.21-25.08-9.58-40.56-12.53-4.43-.74-8.85 5.9-12.54 8.84-2.95 2.22 36.87 19.9 42.77 15.49zM4762.37 4905.35c3.7-.73 15.5-8.1 14.75-8.84-1.47-2.21-16.96-7.37-32.45-10.32-3.68-.74-8.85 8.1-12.53 10.32-2.95 2.95 20.65 11.06 30.23 8.84zM4987.32 4791.83c39.09 16.95 81.13 28.75 114.32 36.86 0 0 31.71-8.85 19.91-12.54-53.1-16.95-81.13-21.37-121.7-34.64-4.42-1.48-11.8 10.32-12.53 10.32zM4949.7 4847.85c42.05 14.01 61.96 20.65 95.15 29.5 0 0 33.19-9.6 20.65-13.28-52.37-14.74-65.64-17.69-103.26-26.54-4.42-.73-11.8 10.32-12.53 10.32zM4918 4897.25c39.82 12.53 30.97 9.58 61.2 16.95.75 0 32.46-7.37 20.66-11.06-41.3-13.27-45-13.27-73.02-17.69-3.68-.74-8.11 11.06-8.85 11.8zM4875.95 4946.64c39.1 12.53 29.5 10.32 42.78 12.53 0 0 18.44-11.06 14.75-11.8-19.91-5.9-29.5-8.84-48.68-12.53-4.42-.73-8.1 11.06-8.85 11.8zM4403.2 6192.49l8.11-12.53c45.73 11.05 184.38 21.38 231.58 2.2.74-.73-11.8 16.96-26.55 19.18-56.05 8.1-163 5.16-213.14-8.85zM4369.27 6254.41l11.06-16.95c42.04 11.06 173.32 22.85 219.79 2.95 1.47-.74-9.6 17.69-24.34 20.64-56.05 10.32-156.36 6.63-206.51-6.64zM4013.04 6134.25l-10.32 11.8c-22.13-11.8-49.42-33.91-66.38-52.34 24.34 8.84 57.53 33.9 76.7 40.54zM4035.17 6082.65l-8.85 13.27c-22.13-11.8-85.55-60.45-98.1-80.36 24.35 10.32 87.04 59.72 106.95 67.09zM5501.38 4917.89c-12.54 51.6-23.6 87.72-44.25 132.7-4.43 10.31-8.12 47.17 0 30.22 11.8-23.6 56.79-124.59 56.79-149.65 0-6.64-2.22-11.8-12.54-13.27zM5454.91 5122.09c-5.16 34.65-16.22 125.32-5.16 111.31 3.69-4.42 25.82-117.95 5.16-111.31zM5466.72 5310.8c0 25.07 48.67 313.32 67.85 272.77 8.85-17.7-54.58-248.43-67.85-272.76zM5655.52 5986.08c-22.86 0 14.02 58.23 22.87 42.02 4.42-9.59-14.02-42.02-22.87-42.02z"/>
	<path d="m2139 10751 11-38c597 147 1182 388 2014 715 9-289-13-571-38-848 75 93 93 669 75 909-902-371-1530-590-2062-738z" fill="#191919" stroke="#000" stroke-width="3" transform="matrix(.73753 0 0 .73719 2700.24 -1539.16)"/>
	<path d="m4024.1 4257.36 59 176.2c-30.97 59.7-214.61 438.62-394.57 661.25-163 202.73-278.05 345-340.74 447.48-62.69 101-44.25 177.66-10.32 235.16 8.85 15.48-4.43 11.8-6.64 11.8-86.3-113.53-27.29-246.96 58.26-357.54 115.8-148.91 237.49-284.56 338.53-435.68 154.14-231.48 330.41-514.56 296.49-738.67zM3358.85 5821.68c-3.68 10.32 13.28 39.81 22.13 38.34 6.64-.74-16.23-52.34-22.13-38.34zM3402.37 5899.82c-6.64 13.27 50.89 76.67 63.43 84.04 5.9 4.43 25.81 11.8 14.75-2.2-9.6-11.07-54.58-64.88-72.28-83.31-2.21-2.21-3.69 1.47-5.9 1.47zM3957 6241.88l-20.66 16.22c-124.64-49.4-334.1-143.75-356.96-176.19 4.42-2.21 6.63-8.1 14-4.42 122.44 65.6 230.12 119.42 363.61 164.39zM5361.99 7058.69c9.58 23.59 23.6 67.08 37.61 95.1 28.03 58.23 111.37 144.48 157.1 194.61 23.6 26.54 67.85 69.3 95.87 85.52 10.33 6.63 20.65-.74 8.85-12.54-58.26-56.76-184.38-184.3-238.22-270.54-9.59-15.49-40.56-73.72-61.21-92.15zM5726.33 7486.26c-14.02-3.69-11.8 12.53-2.22 22.11 6.64 6.64 14.75 12.54 24.34 16.22 6.64 2.21 11.06 5.16 11.8-5.9.74-9.58-25.81-25.06-33.92-32.43zM5809.67 7587.99c2.2-6.64 9.58-2.21 13.27 0 8.11 4.42 32.45 20.64 38.35 30.22 2.22 2.95 12.54 16.96-.73 16.96s-20.65-15.48-29.5-25.06c-5.17-4.43-22.87-14.75-21.4-22.12z"/>
	<path d="M7172.62 850.81 6929.97 555.2l-186.6 286.03 36.15 157.76 7.37 249.9 58.27 171.77 111.37 48.65 114.31-63.4 60.48-193.88v-171.76l41.3-189.46z" fill="#56876c"/>
	<path d="m6752.97 848.6-20.65-30.23c74.49-81.82 146.76-207.15 195.44-302.24 68.6 88.46 182.9 249.9 253.71 322.88l-26.55 42.76c-64.9-78.14-171.1-224.84-220.52-302.98-30.24 59.7-113.58 202.72-181.43 269.8z"/>
	<path d="m6925.55 579.52 22.86-.73 32.45 855.14-23.6.73-31.71-855.14z"/>
	<path d="M5682.07 1590.21 5322.9 1720.7l207.98 270.55 160.78 17.7 238.22 75.93 181.44 2.2 82.6-89.2-21.39-128.26-163-121.64-162.99-56.76-164.47-101z" fill="#56876c"/>
	<path d="m5541.2 1984.6-36.13 9.6c-52.37-97.32-146.77-207.16-220.52-284.56 106.2-35.39 297.22-89.2 388.67-132.7l31.72 39.07c-95.14 36.13-268.46 87.73-359.18 108.37 47.2 47.92 154.14 173.98 195.45 260.23z"/>
	<path d="m5343.55 1733.23 7.37-22.12 817.92 252.12-7.37 22.12-817.92-252.12z"/>
	<path d="m5924.72 3239.3 25.08 381.87 318.61-124.59 61.95-149.64 138.66-207.16 52.36-173.97-61.95-103.95-129.8-15.48-162.26 123.11-99.57 140.07-143.08 129.75z" fill="#56876c"/>
	<path d="m6264.72 3484.79-1.47 36.86c-107.68 23.59-239.7 83.3-334.1 132.7-4.43-111.32-3.7-310.36-19.18-409.88l46.46-19.9c7.38 100.99 8.86 282.34 3.7 374.48 59-30.96 210.19-99.52 304.6-114.26z"/>
	<path d="m5967.5 3604.21-19.18-13.26 470.55-714.34 19.17 12.53-470.54 715.07z"/>
	<path d="m7567.2 3506.9 367.29 106.16-8.11-341.32-119.48-109.1-147.5-201.26-145.3-109.1-119.48 22.85-58.27 116.48 60.48 194.62 97.35 141.54 73.02 179.14z" fill="#56876c"/>
	<path d="m7913.84 3271 34.66 14.01c-14.75 109.1-3.68 253.6 9.6 359.75-106.21-33.91-292.07-103.2-391.64-122.37l-2.95-50.87c98.1 28.01 269.2 88.46 354.02 125.32-8.85-66.34-21.4-231.47-3.69-325.84z"/>
	<path d="m7924.16 3590.95-18.43 14-511.11-687.06 19.17-13.27 510.37 686.33z"/>
	<path d="m8325.38 2041.37 216.84-314.78-326.73-99.52-141.6 78.14-237.5 76.67-149.71 103.94-15.49 120.17 92.2 92.15 203.55 4.42 165.2-47.92 193.24-13.27z" fill="#56876c"/>
	<path d="m8211.06 1638.13 23.6-28.01c98.83 48.65 239.7 83.3 344.43 103.94-65.64 89.94-189.54 244.75-239.7 333.2l-48.67-14c56.79-84.04 168.15-227.05 230.1-295.61-65.63-12.53-226.41-53.08-309.76-99.52z"/>
	<path d="m8517.88 1728.8 7.37 22.12-813.5 268.34-7.37-22.12 813.5-268.34z"/>
	<path d="M5746.98 2006.72c-332.63-98.78-435.15 103.95-429.25 383.34 2.95 135.65 152.67 608.18 253.71 743.83 157.1 212.3 359.92 154.07 501.52 5.16 70.8-75.2 189.55-347.22 357.7-256.54 177.75 95.83-44.98 350.9-84.8 418.72-67.12 114.26-171.12 258.02 25.8 440.84 136.45 126.06 722.78 121.64 820.14 107.63 242.65-33.17 484.55-159.23 356.96-439.37-59-129.74-314.92-393.66-145.3-491.7 219.06-126.8 364.35 349.43 533.98 379.65 128.33 22.12 244.86-28.75 306.81-103.2 185.86-221.9 311.98-660.53 309.03-922.97-1.48-125.32-133.5-250.64-255.92-249.9-132.76-20.65-475.71 189.45-567.9 5.9-122.43-242.54 439.56-230.75 540.6-462.23 147.51-336.9-646.8-847.03-853.32-854.4-151.93-5.16-301.65 101.73-301.65 320.68 0 151.12 3.7 403.24-151.19 402.5-173.32-1.47-167.42-224.1-167.42-401.76 0-231.48-120.22-334.69-313.45-324.37-286.9 15.48-623.21 304.46-807.6 507.93-110.62 123.1-95.14 295.6 36.14 409.87 171.11 149.65 512.59 148.92 451.37 347.96-52.36 171.76-282.47 77.4-415.96 32.43z"/>
	<path d="M5789.02 2062.01c-317.88-128.27-437.36 33.18-424.82 325.1 5.9 128.27 133.5 587.54 253.7 721.71 167.43 186.51 327.47 125.33 471.29-44.97 63.43-75.19 189.55-314.04 361.39-205.67 204.3 128.27-7.38 347.95-43.51 413.56-60.48 110.58-207.99 244.75-20.66 418.73 129.81 120.16 705.08 125.32 798.01 112.79 281-36.86 439.57-158.5 304.6-432.73-59.74-121.64-297.22-356.8-111.36-483.6 230.84-157.02 355.48 210.84 507.42 335.42 111.36 91.41 250.76 28.01 308.28-42.76 174.06-214.52 326.73-607.44 309.03-913.38-6.64-118.68-137.18-220.42-268.46-201.99-126.12-19.9-469.8 198.3-544.3-23.59-110.63-326.57 445.47-256.54 542.08-476.22 140.14-319.94-643.12-800.59-839.3-807.22-143.82-5.16-247.81 131.95-247.81 339.84 0 143.75 1.47 376.7-182.17 379.65-184.39 3.69-199.87-212.3-199.87-381.86 0-218.95-75.23-348.7-259.62-339.1-272.14 14.74-619.52 294.13-781.04 497.6-104 130.48-95.88 282.34 60.48 386.28 177.74 117.22 494.14 81.83 419.65 350.17-50.15 179.14-286.16 115-413.01 72.24z" fill="#fff500"/>
	<path d="M5907.02 1638.87c-4.42.73-13.28-4.43-19.91-7.38-255.93-123.1-207.99-235.16-73.76-305.2 120.22-63.4 231.59-48.65 355.5-151.12 101.04-83.3 151.92-215.26 251.5-289.71 87.02-64.14 270.66-81.83 249.28 244.74-.74 3.7 0 7.38-2.22 11.8-3.68 8.1-16.96 5.16-21.38-1.47-16.23-22.86-11.07-91.42-12.54-125.33-5.9-123.1-117.27-211.57-245.6-47.18-165.2 211.58-193.23 285.3-460.22 350.9-81.13 20.65-182.9 56.77-178.48 148.92 3.69 81.83 139.4 124.58 158.57 151.86 4.42 5.9 3.69 18.43-.74 19.17z"/>
	<path d="m6531 5393-22 57c-401-174-756 129-757 518h-77c10-504-259-668-721-569l-21-69c454-108 549-476 319-857l55-46c268 392 610 366 920 34l57 54c-260 299-213 702 247 878z" fill="#d32820" stroke="#000" stroke-width="28" transform="matrix(.73753 0 0 .73719 2700.24 -1539.16)"/>
	<path d="M5743 4963c97 0 176 79 176 176s-79 175-176 175c-96 0-175-78-175-175s79-176 175-176z" fill="#fff500" stroke="#000" stroke-width="28" stroke-linecap="round" transform="matrix(.73753 0 0 .73719 2700.24 -1539.16)"/>
	<path d="M6033.88 3029.94c-.74 4.43-8.12 11.8-13.28 16.22-196.92 204.94-288.37 124.59-313.45-25.06-22.13-133.43 26.55-235.17-31.71-384.08-47.94-122.37-157.84-211.57-196.92-329.52-34.67-103.2 5.9-282.35 309.02-159.97 3.69 1.47 7.38 1.47 11.06 5.16 7.38 6.63 0 17.69-8.1 19.9-26.56 8.85-90.73-18.43-123.18-27.27-118.74-32.44-237.48 45.7-120.95 218.94 149.72 222.63 210.93 272.02 190.28 546.26-6.64 84.04-3.69 191.67 85.55 216 78.92 22.11 161.52-93.63 193.97-103.21 6.64-2.21 18.44 2.95 17.7 6.63zM7411.58 3354.3c4.43 2.22 8.11 11.8 11.06 17.7 131.28 252.86 25.08 313.3-123.9 288.98-134.23-22.12-214.62-101-374.67-93.62-131.28 5.9-251.5 81.09-375.4 80.35-109.15 0-265.5-96.57-52.36-344.27 2.95-2.95 4.42-6.63 8.85-8.85 8.11-4.42 16.22 5.9 16.22 14.01-.73 28.01-46.46 80.36-65.64 108.37-69.33 101.73-33.19 239.59 168.9 185.03 258.87-70.03 325.25-112.05 578.22-4.42 77.44 32.44 179.96 64.87 232.32-11.8 45.73-67.82-36.87-182.82-36.14-216.73 0-7.37 8.85-16.95 12.54-14.74zM8121.82 2131.3c3.7-2.94 13.28-3.68 20.65-5.15 279.53-50.13 306.08 69.3 238.96 204.2-60.47 121.64-160.04 174.71-200.6 330.26-32.46 126.8 3.68 263.92-33.93 382.6-33.19 103.21-171.85 224.1-345.16-53.07-1.48-2.95-4.43-5.16-5.17-10.33-2.21-9.58 10.33-14 18.44-11.79 26.55 8.85 61.95 68.56 83.34 94.36 76.7 96.57 219.05 103.2 227.16-105.42 9.59-268.34-11.06-344.27 166.68-553.63 54.58-64.13 115.8-152.6 57.53-225.58-50.89-64.13-185.12-19.16-216.83-29.49-7.38-2.94-14.02-14-11.07-16.95zM7207.29 1079.34c-2.22-4.42 0-14 .73-20.64 37.62-282.35 159.31-270.55 267.73-165.13 97.35 94.36 118 204.94 253.7 290.45 110.64 70.03 252.24 77.4 354.02 148.91 88.5 62.66 161.52 231.48-154.88 312.57-4.43.74-7.38 2.95-12.54 2.21-8.85-1.47-9.59-14.74-5.16-21.38 16.96-22.11 84.08-38.33 115.05-50.86 115.8-43.5 165.21-176.93-31.71-247.7-252.23-91.41-331.15-94.36-476.44-328.05-44.26-70.77-110.63-156.28-196.92-123.1-76.7 28.74-75.23 170.28-95.15 197.56-4.42 6.63-16.96 8.84-18.43 5.16z"/>
</svg>